<svg xmlns="http://www.w3.org/2000/svg" width="58" height="58" viewBox="0 0 58 58">
    <g fill="none" fill-rule="evenodd">
        <g>
            <g>
                <g>
                    <path d="M0 0H58V58H0z" transform="translate(-684 -705) translate(0 675) translate(684 30)"/>
                    <g fill="#000" fill-rule="nonzero" opacity=".77">
                        <path d="M52.059 8.824c.487 0 .882-.396.882-.883V.882c0-.487-.395-.882-.882-.882H20.294c-.234 0-.458.093-.624.259l-2.023 2.023L15.624.259C15.458.093 15.234 0 15 0H.882C.395 0 0 .395 0 .882v7.06c0 .486.395.882.882.882 1.928-.007 3.747.893 4.912 2.43.825 1.074 1.27 2.392 1.265 3.746-.004 3.41-2.767 6.173-6.177 6.176-.487 0-.882.396-.882.883v7.059c0 .487.395.882.882.882H15c.234 0 .458-.093.624-.259l2.023-2.023 2.023 2.023c.166.166.39.259.624.259H52.06c.487 0 .882-.395.882-.882v-7.06c0-.486-.395-.882-.882-.882-3.411 0-6.177-2.765-6.177-6.176s2.766-6.176 6.177-6.176zM44.118 15c.005 4.042 3.042 7.438 7.058 7.892v5.343H20.66l-2.388-2.388c-.166-.166-.39-.259-.624-.259-.234 0-.458.093-.624.259l-2.388 2.388H1.765v-5.343c4.017-.454 7.054-3.85 7.059-7.892.005-1.742-.567-3.437-1.628-4.818-1.31-1.73-3.275-2.841-5.431-3.075V1.765h12.87l2.388 2.388c.166.166.39.259.624.259.234 0 .458-.093.624-.259l2.389-2.388h30.516v5.343c-4.016.454-7.053 3.85-7.058 7.892z" transform="translate(-684 -705) translate(0 675) translate(684 30) translate(3 14)"/>
                        <path d="M16.765 13.235L18.529 13.235 18.529 16.765 16.765 16.765zM16.765 19.412L18.529 19.412 18.529 22.941 16.765 22.941zM16.765 7.059L18.529 7.059 18.529 10.588 16.765 10.588z" transform="translate(-684 -705) translate(0 675) translate(684 30) translate(3 14)"/>
                        <path d="M25.337 13.677L39.061 13.677 39.061 15.442 25.337 15.442z" transform="translate(-684 -705) translate(0 675) translate(684 30) translate(3 14) rotate(-45 32.199 14.56)"/>
                        <path d="M29.118 14.118c1.462 0 2.647-1.185 2.647-2.647 0-1.462-1.185-2.647-2.647-2.647-1.462 0-2.647 1.185-2.647 2.647.001 1.46 1.185 2.645 2.647 2.647zm0-3.53c.487 0 .882.395.882.883 0 .487-.395.882-.882.882-.488 0-.883-.395-.883-.882 0-.488.396-.882.883-.883zM35.294 15c-1.462 0-2.647 1.185-2.647 2.647 0 1.462 1.185 2.647 2.647 2.647 1.462 0 2.647-1.185 2.647-2.647-.001-1.461-1.186-2.645-2.647-2.647zm0 3.53c-.487 0-.882-.396-.882-.883s.395-.882.882-.882.882.395.882.882-.395.882-.882.882z" transform="translate(-684 -705) translate(0 675) translate(684 30) translate(3 14)"/>
                    </g>
                </g>
            </g>
        </g>
    </g>
</svg>
