<svg xmlns="http://www.w3.org/2000/svg" width="58" height="58" viewBox="0 0 58 58">
    <g fill="none" fill-rule="evenodd">
        <g>
            <g>
                <g>
                    <path d="M0 0H58V58H0z" transform="translate(-979 -705) translate(0 675) translate(979 30)"/>
                    <g fill="#000" fill-rule="nonzero" stroke="#090909" stroke-width=".5" opacity=".772">
                        <path d="M40.188 10.484H.582c-.209 0-.402-.113-.506-.295-.103-.182-.1-.405.006-.585L5.627.284c.105-.176.295-.284.5-.284h28.516c.206 0 .396.108.5.285l5.546 9.319c.107.18.109.403.005.585-.103.182-.296.295-.506.295h0zM1.607 9.319h37.557l-4.852-8.154H6.459L1.607 9.319z" transform="translate(-979 -705) translate(0 675) translate(979 30) translate(9 11)"/>
                        <path d="M30.287 10.484H10.484c-.184 0-.357-.087-.467-.234-.11-.148-.143-.338-.091-.515L12.698.416c.074-.246.3-.416.558-.416h14.258c.258 0 .485.17.558.416l2.773 9.32c.052.176.018.366-.092.514-.11.147-.282.234-.466.234zM11.265 9.319h18.24L27.08 1.165H13.69l-2.425 8.154z" transform="translate(-979 -705) translate(0 675) translate(979 30) translate(9 11)"/>
                        <path d="M20.385 36.111c-.18 0-.35-.083-.46-.226L.12 10.257c-.136-.175-.16-.413-.061-.613.098-.199.3-.325.522-.325h39.606c.222 0 .425.126.523.325.098.2.074.438-.061.613L20.847 35.885c-.11.143-.281.226-.462.226h0zM1.77 10.484l18.616 24.092 18.617-24.092H1.769z" transform="translate(-979 -705) translate(0 675) translate(979 30) translate(9 11)"/>
                        <path d="M20.385 36.111c-.24 0-.456-.148-.543-.373L9.94 10.111c-.069-.179-.045-.38.064-.539.108-.158.288-.253.48-.253h19.803c.192 0 .372.095.48.253.109.158.132.36.063.54L20.93 35.737c-.087.225-.303.373-.544.373zm-9.052-25.627l9.052 23.428 9.053-23.428H11.333z" transform="translate(-979 -705) translate(0 675) translate(979 30) translate(9 11)"/>
                    </g>
                </g>
            </g>
        </g>
    </g>
</svg>
