<svg xmlns="http://www.w3.org/2000/svg" xmlns:xlink="http://www.w3.org/1999/xlink" width="176" height="90" viewBox="0 0 176 90">
    <defs>
        <path id="kvh179toua" d="M0 0.82L60.055 0.82 60.055 60.873 0 60.873z"/>
    </defs>
    <g fill="none" fill-rule="evenodd">
        <g>
            <g>
                <path d="M0 0H176V90H0z" transform="translate(-478 -2459) translate(478 2459)"/>
                <g>
                    <g transform="translate(-478 -2459) translate(478 2459) translate(58 14) translate(0 .308)">
                        <mask id="e184ryky6b" fill="#fff">
                            <use xlink:href="#kvh179toua"/>
                        </mask>
                        <path fill="#231916" d="M30.027 59.449c-15.771 0-28.603-12.833-28.603-28.606l.002-.107c.593-.522 1.74-.4 2.606.072.423.229.823.514 1.248.815.71.504 1.442 1.025 2.333 1.313 2.272.737 4.597-.3 6.57-1.411l.21-.12c1.708-.963 3.473-1.958 5.26-1.751 1.021.12 1.972.625 2.978 1.16.244.128.486.257.728.38 3.536 1.79 7.085 2.054 9.742.725.692-.347 1.324-.795 1.934-1.23.996-.709 1.937-1.376 3.012-1.516 1.866-.24 3.388.77 5 1.841 1.048.698 2.13 1.417 3.36 1.826.736.244 1.326.344 1.85.344.883 0 1.579-.283 2.465-.641.177-.072.365-.148.567-.227l1.542-.791.212-.12c1.708-.963 3.474-1.958 5.26-1.751.11.013.207.022.3.029.014.385.029.77.029 1.16 0 15.773-12.833 28.606-28.605 28.606m0-57.205c14.896 0 27.163 11.444 28.48 26-.013 0-.023-.002-.038-.004-2.247-.265-4.311.9-6.13 1.925l-1.607.84c-.194.076-.377.149-.55.22-1.311.532-1.855.753-3.323.264-1.049-.347-2.006-.984-3.02-1.657-1.76-1.172-3.58-2.384-5.976-2.07-1.43.185-2.562.99-3.658 1.769-.592.42-1.151.818-1.746 1.116-2.245 1.125-5.327.862-8.451-.722-.236-.12-.47-.243-.705-.368-1.079-.572-2.195-1.166-3.482-1.317-2.247-.265-4.312.9-6.132 1.925l-.21.12c-1.702.958-3.68 1.863-5.425 1.297-.682-.22-1.295-.657-1.944-1.118-.44-.312-.895-.636-1.393-.907-.99-.536-2.217-.756-3.236-.449.901-14.965 13.357-26.864 28.546-26.864m0-1.425C13.47.82 0 14.288 0 30.843c0 16.558 13.47 30.03 30.027 30.03 16.558 0 30.029-13.472 30.029-30.03C60.056 14.288 46.585.819 30.027.819" mask="url(#e184ryky6b)"/>
                    </g>
                    <path fill="#231916" d="M22.921 18.579h-5.413c-.287 0-.492-.067-.616-.201-.123-.134-.186-.328-.186-.582v-2.848c0-.28.06-.467.176-.558.118-.092.313-.138.588-.138h5.402c.124 0 .186.063.186.186v.744c0 .072-.014.122-.04.147-.026.027-.074.04-.146.04h-4.629c-.111 0-.167.052-.167.157v1.79c0 .105.056.157.167.157h4.678c.15 0 .225.055.225.167v.732c0 .138-.075.207-.225.207m1.184 2.741h-8.407c-.085 0-.139-.02-.161-.06-.024-.038-.035-.087-.035-.146v-.705c0-.07.01-.124.035-.156.022-.033.076-.05.16-.05h8.408c.137 0 .206.069.206.206v.705c0 .136-.069.206-.206.206M33.453 18.236h-1.214v4.561c0 .078-.012.129-.034.152-.023.023-.07.034-.142.034h-.989c-.072 0-.123-.011-.152-.034-.03-.023-.044-.074-.044-.152v-9.013c0-.073.015-.122.044-.147.03-.027.08-.04.152-.04h.989c.072 0 .12.013.142.04.022.025.034.074.034.147v3.337h1.214c.058 0 .106.008.14.024.037.017.055.07.055.161v.744c0 .078-.018.129-.054.153-.035.022-.083.033-.141.033M30.26 20.43c-.293.059-.617.111-.973.157s-.721.083-1.096.112c-.376.03-.752.048-1.131.053-.379.007-.737.004-1.077-.009-.287-.006-.48-.062-.582-.167-.1-.104-.151-.28-.151-.528v-2.603c0-.209.045-.356.137-.44.09-.085.24-.128.45-.128h2.29c.06 0 .096-.008.112-.025.017-.016.025-.053.025-.112v-1.195c0-.057-.008-.095-.025-.111-.016-.017-.053-.025-.113-.025h-2.622c-.132 0-.196-.062-.196-.186v-.744c0-.071.015-.12.044-.147.03-.025.08-.039.152-.039h3.445c.143 0 .26.011.347.034.088.024.156.06.201.113.045.053.077.12.093.205.016.085.024.192.024.324v2.26c0 .274-.054.46-.16.554-.109.095-.28.142-.515.142h-2.222c-.084 0-.127.042-.127.126v1.459c0 .085.05.127.146.127.575.013 1.155-.003 1.739-.05.584-.044 1.136-.113 1.658-.203.065-.014.108-.01.127.013.02.024.036.061.05.113l.107.724c.014.072.008.12-.015.142-.022.023-.07.041-.142.054M41.635 22.983h-.979c-.072 0-.12-.011-.147-.034-.026-.023-.039-.074-.039-.152v-9.013c0-.073.013-.122.039-.147.027-.026.075-.04.147-.04h.979c.07 0 .12.014.146.04.026.025.04.074.04.147v9.013c0 .078-.014.129-.04.152-.026.023-.075.034-.146.034m-4.67-7.585c-.169 0-.324.05-.464.15-.14.104-.261.244-.362.427-.101.183-.179.402-.234.656-.057.255-.084.532-.084.833 0 .286.027.555.084.802.055.248.133.464.234.647.1.182.221.325.362.43.14.103.295.156.465.156.177 0 .334-.053.475-.156.14-.105.26-.248.362-.43.1-.183.18-.4.235-.647.055-.247.083-.516.083-.802 0-.3-.028-.578-.083-.833-.056-.254-.135-.473-.235-.656-.101-.183-.222-.323-.362-.426-.14-.1-.298-.151-.475-.151m0 5.286c-.378 0-.72-.078-1.027-.235-.307-.158-.569-.377-.784-.662-.215-.282-.38-.62-.5-1.012-.116-.392-.175-.823-.175-1.293 0-.482.059-.924.176-1.325.118-.402.284-.746.5-1.033.214-.288.476-.51.783-.67.306-.16.649-.24 1.027-.24.385 0 .732.078 1.042.235.31.155.573.377.788.66.216.284.382.627.5 1.028.117.4.175.844.175 1.327 0 .482-.058.921-.175 1.316-.118.394-.284.732-.5 1.013-.215.28-.478.498-.788.656-.31.157-.657.235-1.042.235" transform="translate(-478 -2459) translate(478 2459) translate(58 14)"/>
                </g>
            </g>
        </g>
    </g>
</svg>
