<svg xmlns="http://www.w3.org/2000/svg" xmlns:xlink="http://www.w3.org/1999/xlink" width="176" height="90" viewBox="0 0 176 90">
    <defs>
        <path id="vh0hw53m2a" d="M0 0.655L70.239 0.655 70.239 70.892 0 70.892z"/>
    </defs>
    <g fill="none" fill-rule="evenodd">
        <g>
            <g>
                <path d="M0 0H176V90H0z" transform="translate(-872 -2459) translate(872 2459)"/>
                <g>
                    <g transform="translate(-872 -2459) translate(872 2459) translate(53 9) translate(0 .453)">
                        <mask id="i2bza8lj9b" fill="#fff">
                            <use xlink:href="#vh0hw53m2a"/>
                        </mask>
                        <path fill="#231916" d="M24.79 11.91c-2.736 1.18-5.224 2.806-7.395 4.83-.28.26-.477.446-.672.638-.188.188-.367.382-.546.573l-.092.1c-2.203 2.363-3.924 5.08-5.118 8.08l.416.269L25.07 12.315l-.28-.405zm5.053-1.593c-.396.08-.79.17-1.183.27l-.067.017L9.78 29.959l-.016.068c-.088.398-.17.793-.239 1.193l-.14.802 21.26-21.872-.802.167zM9.193 33.892c-.024.319-.043.637-.055.956-.01.293-.015.586-.015.88v.619L34.95 9.775l-.757.018c-.446.016-.892.047-1.34.085l-.093.008L9.074 34.24l.158-.887-.04.539zm.043 4.251l.011.115c.043.467.1.932.17 1.397l.075.501 29.284-30.127-.503-.062c-.466-.057-.935-.095-1.402-.127l-.117-.008L9.236 38.143zm.578 3.593l.033.134c.079.326.164.65.254.974l.117.415 32.208-32.44-.416-.114c-.5-.138-1.003-.263-1.51-.37l-.135-.027-30.55 31.428zm.875 2.94l.055.151c1.197 3.233 2.995 6.151 5.343 8.67l.088.094c.18.195.362.389.551.578.195.194.394.381.595.568 4.647 4.33 10.612 6.797 16.872 7.018.31.01.618.016.927.016.308 0 .619-.005.927-.016 6.261-.22 12.226-2.689 16.794-6.945.277-.258.478-.446.673-.64.19-.189.37-.383.551-.578l.088-.094c4.259-4.57 6.727-10.536 6.947-16.798.022-.617.022-1.235 0-1.853-.22-6.262-2.687-12.227-6.945-16.796-.258-.277-.445-.478-.64-.673-.177-.178-.361-.348-.544-.519l-.126-.119c-2.572-2.397-5.549-4.215-8.846-5.407l-.151-.056-33.159 33.4zM35.12 70.892c-.367 0-.666-.298-.666-.667v-7.13l-.243-.008c-6.63-.219-12.942-2.83-17.768-7.35l-.178-.164-5.034 5.033c-.126.126-.294.196-.472.196-.177 0-.346-.07-.472-.196-.125-.125-.195-.293-.195-.472 0-.177.07-.344.195-.47l5.035-5.035-.165-.177c-2.66-2.84-4.644-6.146-5.897-9.827l-.019-.055-.163-.163.082-.08-.047-.147c-.783-2.436-1.224-4.958-1.307-7.497l-.008-.242H.667c-.368 0-.667-.298-.667-.666 0-.368.3-.668.667-.668h7.131l.008-.241c.06-1.816.307-3.65.737-5.455l.043-.186c1.11-4.532 3.382-8.726 6.568-12.129l.165-.178-5.033-5.031c-.26-.262-.26-.685 0-.944.127-.126.294-.196.472-.196s.346.07.472.196l5.033 5.032.177-.165c4.829-4.522 11.14-7.131 17.771-7.35l.243-.007V1.32c0-.367.299-.665.666-.665.368 0 .667.298.667.665v7.133l.242.007c6.632.219 12.941 2.827 17.77 7.35l.178.165 5.033-5.034c.126-.126.294-.195.47-.195.18 0 .348.07.473.195.26.26.26.683 0 .943l-5.035 5.034.166.178c4.52 4.827 7.13 11.138 7.349 17.769l.008.241h7.132c.368 0 .666.3.666.668 0 .177-.069.344-.195.472-.126.125-.294.195-.471.195h-7.132l-.008.241c-.22 6.633-2.83 12.944-7.35 17.77l-.166.178 5.035 5.035c.26.26.26.683 0 .943-.126.126-.293.195-.472.195s-.346-.07-.471-.195l-5.034-5.034-.178.165c-4.828 4.52-11.138 7.13-17.768 7.348l-.242.008v7.13c0 .179-.07.346-.196.472-.125.127-.293.195-.47.195z" mask="url(#i2bza8lj9b)"/>
                    </g>
                    <path fill="#231916" d="M33.51 43.05h-.93c-.067 0-.112-.012-.138-.034-.023-.024-.035-.077-.035-.157v-9.323c0-.075.012-.126.035-.153.026-.027.071-.04.138-.04h.93c.068 0 .113.013.137.04.025.027.036.078.036.153v9.323c0 .08-.011.133-.036.157-.024.022-.07.035-.137.035m-2.226-5.365h-3.302c-.306 0-.517-.057-.635-.173-.119-.115-.179-.34-.179-.678v-2.813c0-.135.061-.203.183-.203h.904c.128 0 .192.068.192.203v2.297c0 .095.013.154.04.177.027.024.08.036.16.036h2.637c.048 0 .09.01.127.03.038.02.055.067.055.143v.798c0 .096-.017.149-.055.163-.037.012-.079.02-.127.02m-1.533 5.051h-.877c-.12 0-.181-.07-.181-.212V39.7c-.366.006-.727.008-1.086.004-.359-.003-.709-.007-1.049-.015-.074-.007-.12-.027-.142-.061-.022-.033-.032-.087-.032-.16v-.73c0-.075.012-.127.037-.157.024-.03.07-.045.137-.045.857.019 1.738.02 2.64.004.905-.016 1.772-.092 2.606-.227.091-.014.15-.012.177.005.03.016.048.062.06.137l.073.748c.013.087.005.141-.022.162-.029.02-.073.037-.133.051-.322.06-.652.109-.99.147-.338.037-.682.065-1.036.086v2.875c0 .141-.06.212-.182.212M37.598 35.135c-.152 0-.29.056-.416.167-.124.112-.232.267-.323.465-.09.2-.162.434-.214.705-.052.269-.078.567-.078.89 0 .31.026.6.078.865.052.267.123.5.214.7.09.199.2.353.323.464.126.111.264.168.416.168.158 0 .302-.058.434-.172.13-.115.243-.27.337-.466.094-.196.168-.429.22-.698.05-.27.077-.557.077-.86 0-.324-.027-.622-.078-.891-.05-.27-.125-.506-.22-.705-.093-.198-.205-.353-.336-.465-.132-.11-.276-.167-.434-.167m0 5.628c-.346 0-.66-.088-.94-.263-.28-.175-.518-.415-.716-.719-.197-.303-.35-.662-.455-1.077-.108-.416-.161-.863-.161-1.342 0-.5.053-.958.16-1.377.106-.417.259-.78.456-1.083.198-.304.436-.542.715-.713.28-.173.595-.259.94-.259.318 0 .607.07.868.208.262.138.489.33.68.577.19.247.348.543.469.89.123.348.205.731.247 1.15h1.195v-3.219c0-.075.011-.126.032-.153.021-.026.066-.04.133-.04h.922c.066 0 .112.014.136.04.024.027.037.078.037.153v9.324c0 .08-.013.133-.037.156-.024.023-.07.034-.136.034h-.922c-.067 0-.112-.01-.133-.034-.02-.023-.032-.077-.032-.156v-4.952H39.87c-.036.426-.115.812-.237 1.16-.121.347-.28.648-.474.9-.195.254-.426.45-.69.589-.264.138-.554.206-.871.206M50.81 43.05h-.931c-.067 0-.112-.012-.138-.034-.023-.024-.036-.077-.036-.157v-5.234h-1.66c-.055 0-.098-.01-.128-.035-.031-.024-.046-.072-.046-.146v-.781c0-.073.015-.124.046-.151.03-.028.073-.04.127-.04h1.66v-2.936c0-.075.014-.126.037-.153.026-.027.071-.04.138-.04h.93c.068 0 .112.013.132.04.022.027.032.078.032.153v9.323c0 .08-.01.133-.032.157-.02.022-.064.035-.132.035zm-2.684-2.348c-.078.109-.188.102-.328-.02-.115-.087-.243-.212-.383-.375-.14-.16-.282-.343-.429-.546-.146-.202-.288-.417-.424-.643-.137-.226-.253-.45-.351-.673-.214.486-.469.941-.768 1.367-.296.425-.596.772-.892 1.043-.087.073-.15.114-.192.121-.043.007-.095-.024-.156-.09l-.502-.58c-.049-.052-.072-.104-.072-.155 0-.051.039-.117.119-.197.346-.372.664-.805.952-1.302.29-.495.513-1.01.671-1.543.128-.432.222-.902.283-1.408.06-.506.092-1.055.092-1.65 0-.073.01-.129.03-.165.023-.04.075-.057.161-.057l.877.03c.084.007.136.03.154.067.018.036.027.096.027.177 0 .5-.02.962-.058 1.391-.04.429-.103.845-.188 1.25.079.278.19.562.333.856.144.293.298.574.466.84.166.266.335.51.506.73.17.218.328.396.473.531.087.074.128.14.124.196-.003.058-.032.124-.086.198l-.439.607z" transform="translate(-872 -2459) translate(872 2459) translate(53 9)"/>
                </g>
            </g>
        </g>
    </g>
</svg>
