<svg xmlns="http://www.w3.org/2000/svg" width="367" height="140" viewBox="0 0 367 140">
    <g fill="none" fill-rule="evenodd">
        <g>
            <g>
                <path fill="#FFF" stroke="#000" stroke-width="2" d="M302.018 1.002c.255 7.25 3.266 13.8 8.019 18.632 4.765 4.844 11.28 7.962 18.522 8.33h0l.436 84.054c-7.25.255-13.797 3.267-18.629 8.019-4.844 4.764-7.961 11.278-8.33 18.518h0l-274.054.443c-.255-7.25-3.266-13.8-8.019-18.632-4.765-4.844-11.28-7.962-18.522-8.33h0l-.436-84.054c7.25-.255 13.797-3.267 18.629-8.019 4.844-4.764 7.961-11.278 8.33-18.518h0z" transform="translate(-777 -1460) translate(777 1460)"/>
                <path fill="#DF9CDF" fill-rule="nonzero" d="M334.372 56.375c2.28 0 4.501.123 6.633.356l.909.106.897.12.885.132.873.145c.289.05.576.103.86.158l.847.17.419.09.826.187.408.099.804.205c.399.106.791.216 1.178.33l.766.233c7.953 2.508 13.195 6.798 13.195 11.67 0 4.097-3.71 7.784-9.623 10.344l-.679.285c-1.95.794-4.12 1.469-6.46 2.001l-.834.183c-.28.058-.562.115-.847.17l-.86.157c-1.011.177-2.048.328-3.108.452l-.914.1-.924.086c-1.704.145-3.459.221-5.251.221-1.792 0-3.547-.076-5.251-.22l-.925-.087-.913-.1c-1.06-.124-2.097-.275-3.108-.452l-.86-.157c-.285-.055-.568-.112-.848-.17l-.833-.183-.82-.193c-9.47-2.33-15.942-7.025-15.942-12.438 0-5.026 5.58-9.433 13.96-11.902l.782-.223c.92-.253 1.873-.483 2.853-.688l.847-.17c.285-.055.572-.107.86-.158l.874-.145.885-.133.897-.119.908-.106c2.132-.233 4.353-.356 6.634-.356zm0 4c-1.527 0-3.018.06-4.462.173l-.862.074-.85.086-.42.048-.832.104-.411.056-.813.121-.401.065-.793.137-.778.148-.764.158-.75.168c-.37.087-.736.177-1.095.27l-.71.19c-.234.066-.465.132-.693.2l-.677.208c-.222.07-.442.142-.659.216l-.64.223-.624.23c-.204.078-.406.158-.604.238l-.584.244c-1.246.535-2.353 1.115-3.3 1.722l-.426.283c-2.14 1.469-3.352 3.085-3.352 4.638 0 1.503 1.135 3.066 3.148 4.496l.414.284c.071.048.143.094.216.141l.448.279c.92.552 1.972 1.078 3.141 1.566l.595.241c.201.08.406.157.613.234l.633.227.65.22c.44.143.89.282 1.353.415l.701.195c.474.128.958.249 1.452.364l.75.168.764.158.778.148.395.07.8.132c.268.043.539.083.812.122l.825.11.838.098.424.044.855.08c.862.074 1.74.13 2.633.164l.898.028c.451.01.906.016 1.364.016.458 0 .913-.005 1.364-.016l.898-.028c.893-.035 1.77-.09 2.632-.164l.856-.08.423-.044.838-.099.826-.11c.273-.038.544-.078.812-.12l.8-.133.394-.07.779-.148.764-.158.75-.168c.494-.115.978-.236 1.451-.364l.702-.195.685-.204c.226-.069.448-.14.668-.211l.65-.22.632-.227c.208-.077.412-.155.614-.234l.594-.24c4.581-1.912 7.368-4.412 7.368-6.767 0-2.004-2.019-4.113-5.444-5.875l-.524-.262c-.356-.172-.727-.341-1.11-.506l-.585-.244-.604-.238-.622-.23-.642-.223c-.216-.074-.436-.145-.659-.216l-.676-.208c-.229-.068-.46-.134-.694-.2l-.71-.19c-.359-.093-.724-.183-1.095-.27l-.749-.168-.764-.158-.779-.148-.792-.137-.806-.127c-.271-.04-.544-.079-.82-.115l-.831-.104-.42-.048-.85-.086-.862-.074c-1.445-.113-2.935-.173-4.462-.173z" transform="translate(-777 -1460) translate(777 1460) rotate(-13 334.372 70.375)"/>
                <path fill="#FFF" d="M304 69H328V86H304z" transform="translate(-777 -1460) translate(777 1460)"/>
                <g transform="translate(-777 -1460) translate(777 1460) translate(301 61.5)">
                    <circle cx="8.5" cy="8.5" r="7.5" stroke="#000" stroke-width="2"/>
                    <path fill="#DF9CDF" d="M13.775 1.835c1.057.837 1.91 1.92 2.472 3.163l-.14.085-.575.362-.555.365c-.181.122-.36.244-.535.367l-.515.37c-1.093.801-2.041 1.615-2.828 2.42l-.35.37c-1.755 1.913-2.573 3.761-2.224 5.274.189.816.724 1.57 1.556 2.242-.51.096-1.04.147-1.581.147-1.321 0-2.572-.302-3.688-.84-.072-.213-.133-.429-.184-.649-1.036-4.489 2.613-9.526 9.09-13.64z"/>
                </g>
                <g fill="#282828" stroke="#FFF" stroke-width=".5" transform="translate(-777 -1460) translate(777 1460) translate(50 125)">
                    <circle cx="2.5" cy="2.5" r="2.25"/>
                    <circle cx="122.5" cy="2.5" r="2.25"/>
                    <circle cx="62.5" cy="2.5" r="2.25"/>
                    <circle cx="182.5" cy="2.5" r="2.25"/>
                    <circle cx="32.5" cy="2.5" r="2.25"/>
                    <circle cx="152.5" cy="2.5" r="2.25"/>
                    <circle cx="92.5" cy="2.5" r="2.25"/>
                    <circle cx="212.5" cy="2.5" r="2.25"/>
                    <circle cx="17.5" cy="2.5" r="2.25"/>
                    <circle cx="137.5" cy="2.5" r="2.25"/>
                    <circle cx="77.5" cy="2.5" r="2.25"/>
                    <circle cx="197.5" cy="2.5" r="2.25"/>
                    <circle cx="47.5" cy="2.5" r="2.25"/>
                    <circle cx="167.5" cy="2.5" r="2.25"/>
                    <circle cx="107.5" cy="2.5" r="2.25"/>
                    <circle cx="227.5" cy="2.5" r="2.25"/>
                </g>
                <g fill="#282828" stroke="#FFF" stroke-width=".5" transform="translate(-777 -1460) translate(777 1460) translate(50 10)">
                    <circle cx="2.5" cy="2.5" r="2.25"/>
                    <circle cx="122.5" cy="2.5" r="2.25"/>
                    <circle cx="62.5" cy="2.5" r="2.25"/>
                    <circle cx="182.5" cy="2.5" r="2.25"/>
                    <circle cx="32.5" cy="2.5" r="2.25"/>
                    <circle cx="152.5" cy="2.5" r="2.25"/>
                    <circle cx="92.5" cy="2.5" r="2.25"/>
                    <circle cx="212.5" cy="2.5" r="2.25"/>
                    <circle cx="17.5" cy="2.5" r="2.25"/>
                    <circle cx="137.5" cy="2.5" r="2.25"/>
                    <circle cx="77.5" cy="2.5" r="2.25"/>
                    <circle cx="197.5" cy="2.5" r="2.25"/>
                    <circle cx="47.5" cy="2.5" r="2.25"/>
                    <circle cx="167.5" cy="2.5" r="2.25"/>
                    <circle cx="107.5" cy="2.5" r="2.25"/>
                    <circle cx="227.5" cy="2.5" r="2.25"/>
                </g>
            </g>
        </g>
    </g>
</svg>
