<svg xmlns="http://www.w3.org/2000/svg" width="110" height="110" viewBox="0 0 110 110">
    <g fill="none" fill-rule="evenodd">
        <g>
            <g>
                <g fill-rule="nonzero">
                    <path fill="#F2D8F2" d="M22.5 45C10.093 45 0 34.907 0 22.5S10.093 0 22.5 0C34.906 0 45 10.093 45 22.5S34.906 45 22.5 45z" transform="translate(-905 -320) translate(905 320) translate(55 13)"/>
                    <path fill="#FFF" stroke="#F2D8F2" stroke-width="6" d="M18.751 27.034c-.12-1.05-1.251-10.954-1.251-13.622 0-2.984 2.243-5.412 5-5.412s5 2.428 5 5.412c0 2.668-1.13 12.572-1.251 13.622C26.204 29.229 24.539 31 22.5 31c-2.04 0-3.704-1.771-3.749-3.966z" transform="translate(-905 -320) translate(905 320) translate(55 13)"/>
                    <path fill="#FFF" stroke="#F2D8F2" stroke-width="4" d="M22.5 37c-1.93 0-3.5-1.57-3.5-3.5s1.57-3.5 3.5-3.5 3.5 1.57 3.5 3.5-1.57 3.5-3.5 3.5z" transform="translate(-905 -320) translate(905 320) translate(55 13)"/>
                </g>
                <g>
                    <g fill="#292929" fill-rule="nonzero">
                        <path d="M32.475 0c3.587 0 6.495 2.908 6.495 6.495v.956c8.09 2.445 14.344 9.349 15.686 18.072l3.353 20.35c.202 1.24.877 2.354 1.883 3.106l2.676 2.006c2.05 1.537 2.887 4.215 2.077 6.646-.81 2.432-3.087 4.072-5.65 4.07H43.724c-.793 5.506-5.526 9.737-11.25 9.743-5.723-.006-10.456-4.237-11.249-9.742H5.953c-2.562 0-4.837-1.64-5.648-4.071-.81-2.432.027-5.109 2.078-6.646l2.674-2.006c1.006-.752 1.681-1.865 1.883-3.105l3.356-20.368c1.348-8.716 7.6-15.612 15.683-18.055v-.956C25.98 2.908 28.889 0 32.476 0zm.002 9.742c-1.451-.007-2.87.15-4.236.452-.166.074-.347.118-.537.13-7.315 1.846-13.043 7.93-14.201 15.692l-3.358 20.386c-.337 2.066-1.462 3.921-3.14 5.175L4.33 53.583c-.932.699-1.312 1.916-.944 3.021.369 1.105 1.403 1.85 2.568 1.85h16.778c.174 0 .463-.005.817-.007h.374c.206 0 .426.002.651.007h34.423c1.164 0 2.198-.745 2.567-1.85.368-1.105-.012-2.321-.944-3.02l-2.676-2.007c-1.677-1.254-2.802-3.109-3.139-5.175l-3.356-20.368c-1.153-7.77-6.884-13.863-14.205-15.712l.102.005c-.226 0-.44-.046-.636-.13-1.365-.305-2.783-.461-4.233-.455zm-.002-6.495c-1.794 0-3.248 1.454-3.248 3.248v.233c1.065-.155 2.152-.235 3.256-.234 1.098 0 2.18.08 3.24.234v-.233c0-1.794-1.455-3.248-3.248-3.248z" transform="translate(-905 -320) translate(905 320) translate(17 22)"/>
                    </g>
                    <path fill="#DF9CDF" d="M21 61.702L46 61.702 46 72 21 72z" transform="translate(-905 -320) translate(905 320) translate(17 22)"/>
                </g>
            </g>
        </g>
    </g>
</svg>
