<svg xmlns="http://www.w3.org/2000/svg" width="33" height="33" viewBox="0 0 33 33">
    <g fill="none" fill-rule="evenodd">
        <g>
            <g>
                <path d="M0 0H33V33H0z" transform="translate(-501 -492) translate(501 492)"/>
                <g fill="#959595" fill-rule="nonzero" stroke="#959595" stroke-width=".4">
                    <path d="M14.606 6.833h-1.372V5.491c0-3.033-2.45-5.49-5.464-5.491-3.015 0-5.472 2.458-5.472 5.491v1.342H.933c-.501 0-.912.413-.912.918v9.332c0 .504.41.917.912.917h13.673c.501 0 .912-.413.912-.917V7.75c0-.505-.41-.918-.912-.918zM2.982 5.491c0-1.327.548-2.526 1.412-3.396C5.259 1.225 6.45.688 7.77.688c1.319 0 2.51.537 3.375 1.407.865.87 1.405 2.069 1.405 3.396v1.342H2.982V5.491zm11.624 11.821H.933c-.124 0-.228-.105-.228-.23V7.752c0-.125.104-.23.228-.23h13.673c.124 0 .228.105.228.23v9.332h0c0 .124-.104.229-.228.229z" transform="translate(-501 -492) translate(501 492) translate(9 8)"/>
                    <path d="M7.77 10.433c-.882 0-1.596.719-1.596 1.605 0 .769.537 1.41 1.254 1.567v1.643c0 .19.153.344.342.344.188 0 .341-.154.341-.344v-1.643c.717-.157 1.254-.799 1.254-1.567 0-.886-.714-1.605-1.595-1.605zm0 2.523c-.503 0-.912-.412-.912-.918 0-.505.409-.917.912-.917.502 0 .911.412.911.917 0 .506-.409.918-.911.918z" transform="translate(-501 -492) translate(501 492) translate(9 8)"/>
                </g>
            </g>
        </g>
    </g>
</svg>
