<svg xmlns="http://www.w3.org/2000/svg" width="110" height="110" viewBox="0 0 110 110">
    <g fill="none" fill-rule="evenodd">
        <g>
            <g>
                <g transform="translate(-905 -464) translate(905 464) translate(15 20)">
                    <path fill="#000" d="M4 0h73c2.21 0 4 1.79 4 4v7.7H0V4c0-2.21 1.79-4 4-4z"/>
                    <circle cx="7.2" cy="5.85" r="1.8" fill="#FFF"/>
                    <circle cx="13.5" cy="5.85" r="1.8" fill="#FFF"/>
                    <circle cx="19.8" cy="5.85" r="1.8" fill="#FFF"/>
                    <path fill="#000" d="M0 14.4h81v39.2c0 2.21-1.79 4-4 4H4c-2.21 0-4-1.79-4-4V14.4z"/>
                    <g fill="#8D8682">
                        <path d="M22.004 27.33l5.35-5.332c.338.332.702.685 1.06 1.043 1.592 1.592 3.174 3.193 4.783 4.767.193.188.525.324.796.33 1.563.03 3.128.025 4.691.007.408-.005.726.102 1.012.394 1.084 1.103 2.195 2.18 3.259 3.302.209.22.35.597.355.905.033 1.752.01 3.505.017 5.257.002.385-.054.722-.444.904-.408.19-.687-.035-.952-.3l-4.19-4.193c-.72-.719-1.837-.712-2.563.015-.207.206-.394.437-.622.616-.485.38-.65.845-.638 1.468.011.526.164.89.535 1.252 1.392 1.354 2.755 2.738 4.128 4.11.274.274.54.553.346.987-.187.418-.55.453-.95.451-1.754-.008-3.507.014-5.26-.017-.291-.005-.648-.145-.857-.345-1.131-1.08-2.24-2.183-3.319-3.314-.21-.22-.357-.595-.364-.902-.035-1.58-.026-3.16-.008-4.74.005-.359-.109-.606-.36-.854-1.819-1.801-3.626-3.615-5.436-5.425-.12-.12-.235-.245-.37-.386M15.927 21.346c-.811-.835-1.64-1.7-2.482-2.552-1.111-1.123-2.225-2.244-3.36-3.344-.161-.157-.44-.268-.666-.271-1.597-.023-3.196.012-4.792-.03-.336-.008-.742-.176-.987-.407-1.097-1.038-2.142-2.131-3.22-3.191-.288-.285-.424-.587-.42-1C.018 8.8.014 7.048.006 5.297c-.002-.39.068-.72.459-.894.41-.182.685.054.949.317C2.87 6.177 4.328 7.636 5.788 9.09c.442.44 1.714.44 2.156.01.246-.24.463-.517.734-.723.587-.445.802-.997.735-1.734-.037-.404-.135-.698-.427-.984C7.563 4.266 6.161 2.851 4.75 1.444c-.276-.274-.54-.556-.348-.987.185-.417.55-.454.95-.451C7.089.014 8.823.018 10.558 0c.412-.004.717.128 1.002.418 1.048 1.065 2.104 2.122 3.171 3.167.316.31.46.64.453 1.092-.024 1.545 0 3.091-.019 4.636-.004.357.106.606.356.854 1.819 1.8 3.625 3.613 5.434 5.423.13.13.254.269.359.38l-5.386 5.376M20.14 27.072l-3.886-3.882c.086-.094.183-.21.29-.318 5.164-5.162 10.326-10.326 15.5-15.478.332-.33.49-.655.459-1.124-.04-.599 0-1.203-.013-1.803-.009-.393.163-.656.501-.825 2.35-1.174 4.703-2.344 7.052-3.521.357-.18.664-.132.94.14.694.691 1.384 1.385 2.076 2.079.293.293.325.612.138.984-1.165 2.316-2.324 4.635-3.478 6.956-.2.402-.492.58-.944.562-.584-.023-1.171.025-1.753-.015-.456-.032-.763.14-1.074.452-5.156 5.171-10.321 10.332-15.485 15.495-.107.107-.223.206-.324.298M17.27 32.871c-1.275 1.266-2.567 2.545-3.855 3.828-1.727 1.72-3.435 3.46-5.18 5.161-1.713 1.667-4.35 1.917-6.204.639-2.433-1.678-2.74-5.187-.592-7.39 2.396-2.457 4.847-4.863 7.27-7.296.59-.594 1.163-1.207 1.722-1.79l6.84 6.848M18.436 31.759l-6.767-6.807c.532-.55 1.073-1.167 1.676-1.716.341-.31.707-.112 1.001.182 1.082 1.08 2.166 2.158 3.247 3.24.753.752 1.508 1.503 2.253 2.264.517.529.508.815-.006 1.355l-1.404 1.482" transform="translate(18.9 27)"/>
                    </g>
                </g>
            </g>
        </g>
    </g>
</svg>
