<svg xmlns="http://www.w3.org/2000/svg" width="58" height="58" viewBox="0 0 58 58">
    <g fill="none" fill-rule="evenodd">
        <g>
            <g>
                <g>
                    <path d="M0 0H58V58H0z" transform="translate(-389 -705) translate(0 675) translate(389 30)"/>
                    <g fill="#000" fill-rule="nonzero" opacity=".772">
                        <path d="M34.995 5.995C31.123 2.129 25.975 0 20.5 0 15.024 0 9.877 2.129 6.005 5.995S0 15 0 20.469c0 5.467 2.133 10.608 6.005 14.474 3.872 3.866 9.02 5.994 14.495 5.994 5.476 0 10.623-2.128 14.495-5.994C38.867 31.077 41 25.936 41 20.469 41 15 38.867 9.86 34.995 5.995zM20.5 39.335c-10.42 0-18.898-8.463-18.898-18.866 0-10.404 8.477-18.867 18.898-18.867 10.42 0 18.898 8.463 18.898 18.867 0 10.403-8.477 18.867-18.898 18.867z" transform="translate(-389 -705) translate(0 675) translate(389 30) translate(9 8)"/>
                        <path d="M36.823 19.7h-1.938c-.185-3.365-1.534-6.425-3.65-8.786l1.373-1.37c.313-.313.313-.82 0-1.133-.312-.313-.819-.314-1.132-.001l-1.375 1.373c-2.364-2.114-5.43-3.462-8.8-3.647V4.203c0-.442-.359-.8-.801-.8-.442 0-.8.358-.8.8v1.933c-3.371.185-6.437 1.533-8.801 3.647L9.524 8.41c-.313-.313-.82-.312-1.133 0-.312.314-.312.82.001 1.133l1.374 1.371c-2.117 2.36-3.466 5.42-3.651 8.785H4.177c-.442 0-.8.359-.8.801 0 .442.358.8.8.8h1.938c.185 3.365 1.534 6.425 3.65 8.786l-1.373 1.37c-.313.313-.313.82 0 1.133.156.157.361.235.566.235.205 0 .41-.078.566-.234l1.375-1.373c2.364 2.114 5.43 3.462 8.8 3.647v1.933c0 .442.359.8.801.8.442 0 .8-.358.8-.8v-1.933c3.371-.185 6.437-1.533 8.801-3.647l1.375 1.373c.156.156.361.234.566.234.205 0 .41-.078.567-.235.312-.313.312-.82-.001-1.132l-1.374-1.371c2.117-2.36 3.466-5.42 3.651-8.785h1.938c.442 0 .8-.359.8-.801 0-.442-.358-.8-.8-.8zM20.5 33.283c-7.061 0-12.806-5.735-12.806-12.784 0-7.05 5.745-12.784 12.806-12.784 7.061 0 12.806 5.735 12.806 12.784 0 7.05-5.745 12.784-12.806 12.784z" transform="translate(-389 -705) translate(0 675) translate(389 30) translate(9 8)"/>
                        <path d="M18.013 26.563v-4.105h3.391c1.276 0 2.294-.348 3.053-1.044.76-.695 1.14-1.611 1.14-2.748 0-1.125-.38-2.032-1.14-2.722-.76-.69-1.777-1.035-3.053-1.035h-5.252v11.654h1.86zm3.391-5.81h-3.391v-4.157h3.391c.72 0 1.288.192 1.705.574.418.383.626.882.626 1.496 0 .638-.208 1.145-.626 1.522-.417.377-.986.565-1.705.565z" transform="translate(-389 -705) translate(0 675) translate(389 30) translate(9 8)"/>
                    </g>
                </g>
            </g>
        </g>
    </g>
</svg>
