<svg xmlns="http://www.w3.org/2000/svg" xmlns:xlink="http://www.w3.org/1999/xlink" width="100" height="40" viewBox="0 0 100 40">
    <defs>
        <path id="zka38dt47a" d="M0.129 0.059L12.95 0.059 12.95 10.243 0.129 10.243z"/>
    </defs>
    <g fill="none" fill-rule="evenodd">
        <g>
            <g>
                <path d="M0 0H100V40H0z" transform="translate(-734 -388) translate(734 388)"/>
                <g>
                    <path fill="#FCB813" d="M5.838 1.428L2.995 0 5.838 5.407 8.683 0z" transform="translate(-734 -388) translate(734 388) translate(0 13)"/>
                    <g>
                        <path fill="#FCB813" d="M9.677 3.994l-.043-.037 2.03-.853V.251L8.137 1.754l-1.954 3.7c1.497.18 2.62 1.434 2.62 2.944 0 1.636-1.33 2.97-2.966 2.97-1.636 0-2.966-1.334-2.966-2.97 0-1.51 1.122-2.764 2.618-2.944l-1.95-3.7L.016.25v2.853l2.029.853L2 3.994c-1.271 1.112-2 2.718-2 4.404 0 3.221 2.618 5.841 5.837 5.841 3.22 0 5.84-2.62 5.84-5.84 0-1.685-.73-3.29-2-4.405" transform="translate(-734 -388) translate(734 388) translate(0 13) translate(0 .185)"/>
                        <path fill="#0066B2" d="M53.208 8.643c.557.354.891.87.891 1.559 0 1.502-1.616 2.187-3.616 2.187s-3.616-.685-3.616-2.187c0-1.503 1.594-2.187 3.616-2.187l-.027-.004h6.017c.08 0 .145-.066.156-.165.006-.047.038-.3-.002-.51-.018-.086-.075-.141-.155-.141h-5.053V5.632h4.808c.084 0 .147-.065.16-.16.006-.048.037-.303-.004-.514-.016-.085-.076-.138-.16-.138h-9.11c-.254 0-.466-.202-.466-.447V2.15c0-.25-.21-.448-.466-.448h-1.43v3.091c0 .46.395.84.884.84h3.885v1.563h-5.574l.54.816h1.662c-.731.499-1.168 1.196-1.168 2.094 0 2.14 2.465 3.115 5.503 3.115 3.04 0 5.504-.975 5.504-3.115 0-.57-.172-1.057-.488-1.462h-2.29zM68.252 5.56h-2.258c.05-.179.076-.37.076-.56 0-.176-.022-.348-.064-.52h2.246v1.08zm0 6.393H61.38c-.144 0-.261-.11-.261-.254v-1.428h7.133v1.682zm-4.601-8.306c.1.11.186.233.26.367.163.29.262.63.262.986 0 1.107-.8 2.002-1.974 2.002-1.178 0-1.972-.895-1.972-2.002 0-1.094.845-1.988 1.948-1.999h4.246c.08 0 .146-.068.157-.165.008-.049.04-.31 0-.525-.019-.09-.079-.142-.161-.142h-3.243v-.447c0-.25-.213-.454-.48-.454h-1.47v.9h-3.692c.076.11.529.802.551.833h1.392c-.713.51-1.153 1.218-1.153 2 0 1.554 1.562 2.807 3.877 2.807 1.557 0 2.7-.566 3.367-1.416h2.686v3.046H61.12V8.59c0-.256-.214-.458-.48-.458h-1.465v3.794c0 .473.41.86.907.86H70.21V1.95c0-.255-.219-.457-.48-.457h-1.477v2.154h-4.601zM41.282 1.775h-1.705v4.4H32.61v-4.4h-1.705c-.402 0-.731.388-.731.868v9.302c0 .476.327.868.731.868h1.705V8.087h6.968v4.726h1.705c.405 0 .732-.392.732-.868V2.643c0-.48-.324-.868-.732-.868M27.33 1.775h-1.705v8.452l-5.124-6.751c-.852-.985-1.437-1.701-2.799-1.701h-1.736v10.17c0 .476.327.868.735.868h1.703V4.321l5.157 6.706c.872 1.009 1.646 1.786 2.909 1.786h1.592V2.643c0-.48-.327-.868-.731-.868M82.34 12.628V1.576h1.45c.124 0 .228.044.313.13.087.085.13.183.13.298v2.915h1.434c.068 0 .112.039.136.115.023.075.037.175.037.297 0 .123-.014.22-.037.291-.024.071-.068.112-.136.122h-1.434v6.884h-1.894zm-9.091-6.017l-.526-.81h4.822c.18-.474.32-.96.419-1.457.1-.5.15-1.003.15-1.516h-4.865l-.526-.824h6.986c.12.008.226.057.31.14.087.088.13.185.13.3-.01 1.225-.32 2.432-.926 3.628-.597 1.195-1.455 2.269-2.575 3.221-1.117.954-2.455 1.682-4.01 2.184l-.57-.682c1.157-.37 2.168-.92 3.03-1.644.864-.724 1.55-1.572 2.063-2.54H73.25z" transform="translate(-734 -388) translate(734 388) translate(0 13) translate(0 .185)"/>
                        <g transform="translate(-734 -388) translate(734 388) translate(0 13) translate(0 .185) translate(86.731 1.942)">
                            <mask id="kkxxgodmkb" fill="#fff">
                                <use xlink:href="#zka38dt47a"/>
                            </mask>
                            <path fill="#0066B2" d="M3.045 5.223c0 .124.042.225.127.306.086.08.19.125.313.134h8.72c.067 0 .113.035.136.107.025.072.03.168.022.292.008.133.003.235-.022.307-.023.071-.069.107-.135.107H2.02c-.247-.011-.45-.096-.611-.256-.163-.161-.248-.365-.257-.613V.059h10.912c.065.01.108.051.126.121.021.07.03.169.03.293 0 .12-.009.222-.03.296-.018.079-.061.116-.126.116h-9.02v4.338zm9.879 4.915c-.023.071-.07.105-.136.105H.654L.13 9.45h12.659c.067 0 .113.033.136.105.025.07.03.168.023.292.008.123.002.22-.023.29z" mask="url(#kkxxgodmkb)"/>
                        </g>
                    </g>
                </g>
            </g>
        </g>
    </g>
</svg>
