<svg xmlns="http://www.w3.org/2000/svg" xmlns:xlink="http://www.w3.org/1999/xlink" width="30" height="30" viewBox="0 0 30 30">
    <defs>
        <path id="c4taz4wgoa" d="M0 0H30V30H0z"/>
    </defs>
    <g fill="none" fill-rule="evenodd">
        <g>
            <g>
                <g>
                    <g>
                        <g transform="translate(-1112 -10306) translate(369 10116) translate(0 185) translate(400) translate(343 5)">
                            <mask id="61zjvhb86b" fill="#fff">
                                <use xlink:href="#c4taz4wgoa"/>
                            </mask>
                            <path fill="#FFF" d="M13.985 4.978C12.764 4.191 11.29 3.75 9.773 3.75c-3.898 0-6.96 2.967-6.96 6.744 0 1.342.323 2.616.878 3.828 1.72 3.764 5.66 6.94 9.051 9.673.976.787 1.907 1.538 2.727 2.255.82-.717 1.75-1.468 2.727-2.255 3.391-2.733 7.331-5.91 9.05-9.672.555-1.213.879-2.487.879-3.83 0-3.776-3.063-6.743-6.96-6.743-1.517 0-2.991.441-4.213 1.228-.552.356-1.053.783-1.483 1.272-.43-.489-.931-.916-1.484-1.272zm2.727 16.976c.353-.285.706-.57 1.052-.852 1.387-1.13 2.744-2.28 3.945-3.483 1.488-1.49 2.593-2.924 3.237-4.339.424-.934.648-1.86.648-2.786 0-2.35-1.884-4.244-4.43-4.244-1.504 0-2.908.642-3.784 1.639l-1.911 2.175-1.912-2.175c-.876-.997-2.28-1.639-3.784-1.639-2.546 0-4.43 1.893-4.43 4.244 0 .926.224 1.852.649 2.786.644 1.415 1.749 2.85 3.236 4.339 1.202 1.204 2.559 2.352 3.945 3.483l1.053.852c.417.337.834.674 1.243 1.008.408-.334.826-.671 1.243-1.008z" mask="url(#61zjvhb86b)"/>
                        </g>
                    </g>
                </g>
            </g>
        </g>
    </g>
</svg>
