<svg xmlns="http://www.w3.org/2000/svg" width="50" height="50" viewBox="0 0 50 50">
    <g fill="none" fill-rule="evenodd">
        <g>
            <g>
                <g>
                    <g>
                        <path d="M0 0H50V50H0z" transform="translate(-1211 -1054) translate(370 987) translate(104 40) translate(737 27)"/>
                        <g fill="#000" fill-rule="nonzero">
                            <path d="M38 .76V3.8H0V.76C.001.34.34.001.76 0h36.48c.42.001.759.34.76.76zM0 5.32L38 5.32 38 7.6 0 7.6zM28.88 18.24c0-.516.131-1.023.38-1.474-.124-.031-.252-.046-.38-.046-.84 0-1.52.68-1.52 1.52s.68 1.52 1.52 1.52c.128 0 .256-.015.38-.046-.248-.451-.379-.958-.38-1.474zm0 0c0-.516.131-1.023.38-1.474-.124-.031-.252-.046-.38-.046-.84 0-1.52.68-1.52 1.52s.68 1.52 1.52 1.52c.128 0 .256-.015.38-.046-.248-.451-.379-.958-.38-1.474zM0 9.12v14.44c.001.42.34.759.76.76h36.48c.42-.001.759-.34.76-.76V9.12H0zm3.8 6.84h3.04v1.52H3.8v-1.52zm11.4 4.56H3.8V19h11.4v1.52zm0-3.04H8.36v-1.52h6.84v1.52zm16.72 3.8c-.534 0-1.059-.142-1.52-.41-1.277.74-2.903.456-3.853-.674-.95-1.131-.95-2.781 0-3.912.95-1.13 2.576-1.415 3.853-.674 1.106-.64 2.495-.518 3.474.303.979.82 1.34 2.167.903 3.368-.437 1.2-1.58 2-2.857 1.999zm0-4.56c-.84 0-1.52.68-1.52 1.52s.68 1.52 1.52 1.52 1.52-.68 1.52-1.52c-.002-.839-.681-1.518-1.52-1.52zm-2.66.046c-.124-.031-.252-.046-.38-.046-.84 0-1.52.68-1.52 1.52s.68 1.52 1.52 1.52c.128 0 .256-.015.38-.046-.507-.917-.507-2.03 0-2.948z" transform="translate(-1211 -1054) translate(370 987) translate(104 40) translate(737 27) translate(6 13)"/>
                        </g>
                    </g>
                </g>
            </g>
        </g>
    </g>
</svg>
