<?xml version="1.0" encoding="UTF-8"?>
<svg width="26px" height="26px" viewBox="0 0 26 26" version="1.1" xmlns="http://www.w3.org/2000/svg" xmlns:xlink="http://www.w3.org/1999/xlink">
    <title>341D3E63-1E6A-4DF0-B79A-C9B8E2AF1F0E</title>
    <g id="Page-1" stroke="none" stroke-width="1" fill="none" fill-rule="evenodd">
        <g id="IM-PW-MP-44" transform="translate(-1139.000000, -1672.000000)">
            <g id="Group-6-Copy-2" transform="translate(1137.000000, 1672.000000)">
                <g id="review/icon/mypage" transform="translate(2.000000, 0.000000)">
                    <rect id="Rectangle" x="0" y="0" width="26" height="26"></rect>
                    <path d="M20.4723827,4.80881254 C19.393966,3.73039582 17.6455837,3.73039582 16.5671669,4.80881254 L5.61952279,15.7564567 C5.54449625,15.8314832 5.4903237,15.9244874 5.46203896,16.0266002 L4.02239215,21.2240465 C3.96318588,21.4371411 4.02335089,21.6653368 4.17963629,21.8218619 C4.33616132,21.9781472 4.56435708,22.0383123 4.77745165,21.9793457 L9.97489796,20.5394592 C10.0770107,20.5111744 10.1700149,20.4570019 10.2450415,20.3819753 L21.1924459,9.43409151 C22.2691847,8.35495566 22.2691847,6.60801157 21.1924459,5.52887567 L20.4723827,4.80881254 Z M6.95657744,16.1553198 L15.9163775,7.19528007 L18.8059783,10.0848809 L9.84593855,19.0449207 L6.95657744,16.1553198 Z M6.37937638,17.3135572 L8.68794095,19.6223615 L5.49463835,20.5070995 L6.37937638,17.3135572 Z M20.3247266,8.5663723 L19.6739373,9.21716172 L16.7840967,6.32732117 L17.4351258,5.67653175 C18.0341397,5.07751784 19.0054099,5.07751784 19.6044238,5.67653175 L20.3247266,6.39659487 C20.9227818,6.9963279 20.9227818,7.96687901 20.3247266,8.5663723 L20.3247266,8.5663723 Z" id="Shape" fill="#FFFFFF" fill-rule="nonzero"></path>
                </g>
            </g>
        </g>
    </g>
</svg>