<svg xmlns="http://www.w3.org/2000/svg" xmlns:xlink="http://www.w3.org/1999/xlink" width="140" height="47" viewBox="0 0 140 47">
    <defs>
        <path id="orc76qdh7a" d="M0 0L103.625 0 103.625 29.587 0 29.587z"/>
    </defs>
    <g fill="none" fill-rule="evenodd">
        <g>
            <g>
                <g transform="translate(-1192 -566) translate(1038 417) translate(154 149)">
                    <rect width="139" height="45.667" x=".5" y=".5" stroke="#6BAE7E" rx="6"/>
                    <g transform="translate(17.889 8.556)">
                        <mask id="5ekb54jfvb" fill="#fff">
                            <use xlink:href="#orc76qdh7a"/>
                        </mask>
                        <path fill="#6BAE7E" d="M6.24 2.976h2.344c.153 0 .278-.127.278-.273 0-.155-.125-.28-.278-.28H6.241c-.149 0-.277.125-.277.28 0 .146.128.273.277.273zm1.172 20.536c-.671 0-1.218.548-1.218 1.222 0 .67.547 1.218 1.218 1.218.673 0 1.219-.547 1.219-1.218 0-.674-.546-1.222-1.22-1.222zm-5.979-1.044h11.96V4.781H1.432v17.687zm38.344-5.808c-.567 0-1.079.186-1.542.562-.462.382-.762.874-.905 1.485-.07.286-.104.518-.104.704v1.722c0 .753.226 1.39.69 1.908.46.514 1.06.774 1.798.774.863 0 1.543-.331 2.024-1 .483-.667.721-1.546.721-2.643 0-1.005-.224-1.836-.679-2.487-.499-.678-1.165-1.025-2.003-1.025zm41.94-.143c-.92 0-1.623.409-2.103 1.23-.416.677-.62 1.503-.62 2.48 0 .951.204 1.764.62 2.442.491.82 1.187 1.229 2.086 1.229.874 0 1.565-.414 2.06-1.255.428-.687.642-1.51.642-2.456 0-.947-.206-1.763-.615-2.44-.489-.821-1.175-1.23-2.07-1.23zm-30.57.143c-.57 0-1.078.186-1.541.562-.462.382-.765.874-.907 1.485-.071.286-.105.518-.105.704v1.722c0 .753.228 1.39.691 1.908.46.514 1.061.774 1.795.774.871 0 1.543-.331 2.026-1 .485-.667.727-1.546.727-2.643 0-1.005-.229-1.836-.682-2.487-.5-.678-1.167-1.025-2.004-1.025zm-23.759-3.702h-.04c-.144.61-.368 1.51-.683 2.704l-1.192 3.748h3.852l-1.209-3.748c-.13-.385-.375-1.287-.728-2.704zm71.767 3.446c-.75 0-1.36.32-1.831.942-.383.494-.612 1.092-.682 1.784h4.79c.012-.68-.133-1.266-.445-1.766-.399-.635-1.011-.96-1.832-.96zM37.528 6.194c.032-.099.032-.198.032-.296v-.733c-.952-.011-1.86.186-1.86.995 0 .526.34.767.767.767.546 0 .929-.35 1.061-.733zm-12.545-3.35c-.143-.448-.263-.951-.373-1.377h-.022c-.11.426-.23.94-.35 1.378l-.569 1.817h1.893l-.58-1.817zm76.294-.524c1.73 0 2.299 1.422 2.299 2.594 0 .25-.022.448-.044.568h-3.568c.033.963.777 1.38 1.641 1.38.624 0 1.062-.099 1.477-.242l.197.92c-.459.196-1.093.338-1.86.338-1.728 0-2.746-1.06-2.746-2.69 0-1.48.897-2.868 2.604-2.868zm-21.358.12l.065.8h.033c.24-.417.821-.92 1.708-.92.93 0 1.893.6 1.893 2.286V7.77h-1.346V4.76c0-.766-.285-1.347-1.018-1.347-.536 0-.908.384-1.051.789-.044.11-.066.274-.066.427v3.14h-1.345V4.028c0-.614-.022-1.127-.045-1.587h1.172zm-14.135-.12c1.73 0 2.3 1.422 2.3 2.594 0 .25-.023.448-.045.568H64.47c.033.963.777 1.38 1.642 1.38.623 0 1.061-.099 1.477-.242l.197.92c-.46.196-1.094.338-1.86.338-1.729 0-2.747-1.06-2.747-2.69 0-1.48.897-2.868 2.604-2.868zm-5.516 5.449h1.345v-7.77h-1.345v7.77zM49.593 3.27c-.526 0-1.072.165-1.433.395l-.262-.876c.392-.24 1.082-.47 1.925-.47 1.707 0 2.2 1.083 2.2 2.254v1.915c0 .482.02.952.087 1.28h-1.215l-.098-.59h-.033c-.317.415-.875.711-1.576.711-1.073 0-1.675-.777-1.675-1.587 0-1.335 1.193-2.025 3.163-2.014v-.087c0-.35-.143-.931-1.083-.931zM41.634.218c.46 0 .745.318.755.734 0 .393-.295.722-.766.722-.449 0-.743-.329-.743-.722 0-.416.306-.734.754-.734zm-.677 7.552H42.3V2.44h-1.344v5.33zM23.789.393h1.718l2.396 7.377h-1.455l-.667-2.091H23.45l-.635 2.09h-1.39L23.788.394zm-8.963 24.458c0 1.3-1.06 2.353-2.359 2.353H2.36C1.06 27.204 0 26.15 0 24.85V2.391C0 1.091 1.06.035 2.36.035h10.107c1.3 0 2.359 1.057 2.359 2.356v22.46zm16.247.54l-1.34-4.212h-4.664l-1.28 4.211h-2.381l4.615-14.348h2.856l4.644 14.348h-2.45zm.522-17.621H30.27l-1.982-5.33h1.457l.863 2.703c.153.47.262.898.362 1.336h.033c.097-.438.219-.855.36-1.336l.854-2.703h1.412l-2.035 5.33zm2.77-1.467c0-1.335 1.193-2.025 3.163-2.014v-.087c0-.35-.143-.931-1.083-.931-.526 0-1.072.165-1.434.395l-.263-.876c.394-.24 1.084-.47 1.927-.47 1.706 0 2.2 1.083 2.2 2.254v1.915c0 .482.02.952.087 1.28h-1.215l-.099-.59h-.033c-.317.415-.875.711-1.575.711-1.072 0-1.674-.777-1.674-1.587zm9.003 17.962c-.854.905-1.92 1.36-3.19 1.36-1.372 0-2.355-.49-2.952-1.471v5.433h-2.298V18.444c0-1.107-.03-2.239-.088-3.4h2.022l.127 1.638h.04c.77-1.23 1.933-1.847 3.496-1.847 1.22 0 2.236.478 3.057 1.446.813.963 1.223 2.236 1.223 3.81 0 1.765-.478 3.15-1.437 4.174zM44.415 7.77h1.346V0h-1.346v7.77zm10.32 16.495c-.856.905-1.917 1.36-3.189 1.36-1.37 0-2.354-.49-2.952-1.471v5.433h-2.3V18.444c0-1.107-.029-2.239-.084-3.4h2.017l.133 1.638h.04c.77-1.23 1.931-1.847 3.491-1.847 1.222 0 2.24.478 3.056 1.446.819.963 1.225 2.236 1.225 3.81 0 1.765-.477 3.15-1.436 4.174zm1.58-16.375c-.69 0-1.303-.263-1.686-.92h-.022l-.065.8h-1.15c.022-.362.045-.952.045-1.5V0h1.345v3.173h.021c.329-.514.909-.853 1.708-.853 1.303 0 2.233 1.083 2.222 2.703 0 1.915-1.214 2.867-2.418 2.867zm11.572 16.456c-.939.839-2.24 1.255-3.91 1.255-1.547 0-2.784-.3-3.718-.893l.534-1.915c1.007.593 2.113.894 3.317.894.87 0 1.541-.198 2.024-.585.48-.389.723-.91.723-1.571 0-.574-.2-1.064-.595-1.463-.4-.398-1.056-.764-1.979-1.107-2.51-.934-3.767-2.304-3.767-4.107 0-1.178.439-2.145 1.327-2.897.888-.75 2.061-1.127 3.525-1.127 1.305 0 2.392.229 3.259.68l-.58 1.874c-.81-.44-1.729-.662-2.754-.662-.81 0-1.446.207-1.904.594-.382.36-.574.793-.574 1.303 0 .564.22 1.034.66 1.408.384.34 1.08.706 2.084 1.103 1.239.493 2.144 1.079 2.728 1.748.58.667.873 1.495.873 2.488 0 1.221-.427 2.217-1.273 2.98zm8.105-7.58h-2.537v5.03c0 1.276.45 1.909 1.345 1.909.412 0 .75-.03 1.021-.1l.066 1.742c-.455.17-1.05.255-1.788.255-.904 0-1.619-.273-2.128-.83-.516-.55-.77-1.482-.77-2.788v-5.219h-1.51v-1.722h1.51V13.15l2.254-.682v2.575h2.537v1.722zM74.696 7.89c-1.499 0-2.67-1.029-2.67-2.747 0-1.75 1.149-2.823 2.758-2.823 1.586 0 2.648 1.116 2.648 2.735 0 1.96-1.379 2.835-2.736 2.835zm10.73 16.163c-.954 1.047-2.217 1.571-3.79 1.571-1.52 0-2.734-.502-3.635-1.51-.9-1.006-1.348-2.281-1.348-3.812 0-1.602.463-2.917 1.393-3.937.93-1.025 2.18-1.53 3.755-1.53 1.524 0 2.744.5 3.666 1.511.878.974 1.318 2.24 1.318 3.787 0 1.594-.451 2.894-1.36 3.92zM87.8 2.44h.756v-.996l1.324-.373v1.37h1.28v1.005h-1.28v2.353c0 .658.175.985.69.985.24 0 .371-.01.524-.054l.023 1.017c-.198.076-.559.143-.974.143-.504 0-.91-.165-1.16-.438-.296-.306-.427-.798-.427-1.5V3.447H87.8V2.44zm5.902 14.625c-.226-.04-.47-.059-.724-.059-.809 0-1.432.306-1.873.914-.384.54-.575 1.212-.575 2.042v5.428h-2.299v-7.092c0-1.186-.02-2.272-.061-3.255h2l.086 1.981h.063c.24-.68.621-1.228 1.15-1.636.51-.373 1.067-.552 1.662-.552.211 0 .404.011.571.039v2.19zm.349-12.491V7.77h-1.345V0h1.345v3.162h.022c.164-.251.394-.46.668-.601.273-.154.59-.241.93-.241.908 0 1.861.6 1.861 2.309v3.14h-1.347V4.772c0-.766-.285-1.358-1.028-1.358-.526 0-.898.351-1.05.756-.045.12-.056.262-.056.405zm9.49 16.2h-6.9c.028 1.021.361 1.8 1.002 2.338.58.484 1.332.725 2.256.725 1.023 0 1.95-.163 2.789-.493l.362 1.598c-.976.43-2.135.638-3.472.638-1.601 0-2.861-.47-3.777-1.413-.914-.944-1.375-2.21-1.375-3.799 0-1.563.427-2.86 1.277-3.9.898-1.106 2.104-1.658 3.62-1.658 1.495 0 2.622.552 3.386 1.658.608.882.915 1.97.915 3.262 0 .408-.03.756-.084 1.045zM56.018 3.37c-.547 0-1.05.394-1.192.984-.024.1-.045.22-.045.351v.864c0 .11.011.22.033.318.142.547.613.942 1.192.942.844 0 1.358-.669 1.358-1.751 0-.941-.45-1.708-1.346-1.708zm9.689-.13c-.832 0-1.182.754-1.237 1.301h2.342c.011-.493-.208-1.302-1.105-1.302zm9.043.053c-.953 0-1.335.93-1.335 1.817 0 1.029.514 1.806 1.324 1.806.766 0 1.302-.745 1.302-1.827 0-.833-.372-1.796-1.29-1.796zM48.85 6.16c0 .526.339.767.766.767.547 0 .93-.35 1.06-.733.033-.099.033-.198.033-.296v-.733c-.95-.011-1.86.186-1.86.995zM101.2 3.24c-.832 0-1.182.754-1.237 1.301h2.342c.011-.493-.208-1.302-1.105-1.302z" mask="url(#5ekb54jfvb)"/>
                    </g>
                </g>
            </g>
        </g>
    </g>
</svg>
