<svg xmlns="http://www.w3.org/2000/svg" width="35" height="35" viewBox="0 0 35 35">
    <g fill="none" fill-rule="evenodd">
        <g>
            <g>
                <g>
                    <path d="M0 0H35V35H0z" transform="translate(-469 -262) translate(48 42) translate(421 220)"/>
                    <g fill="#414141" fill-rule="nonzero">
                        <path d="M12.755 18.622h-.027c-.466-.015-.832-.404-.818-.87l.31-10.13c.015-.466.394-.836.87-.818.467.015.833.404.819.87l-.311 10.13c-.014.457-.39.818-.843.818zM6.344 18.622c-.454 0-.829-.36-.843-.818l-.31-10.13c-.015-.465.351-.855.817-.87.468-.017.856.352.87.819l.311 10.13c.014.465-.352.855-.818.87h-.027zM9.76 18.622c-.465 0-.844-.378-.844-.844V7.648c0-.465.379-.844.845-.844.466 0 .844.379.844.845v10.13c0 .465-.378.843-.844.843zM14.826 21.999H3.85c-.466 0-.844-.378-.844-.844 0-.466.378-.845.844-.845h10.975c.466 0 .844.379.844.845 0 .466-.378.844-.844.844z" transform="translate(-469 -262) translate(48 42) translate(421 220) translate(8 7)"/>
                        <path d="M15.67 21.197l-.044-.001c-.465-.023-.824-.42-.8-.886l.804-16.08c.023-.466.418-.818.885-.8.466.022.825.419.801.885l-.804 16.08c-.022.451-.395.802-.843.802z" transform="translate(-469 -262) translate(48 42) translate(421 220) translate(8 7)"/>
                        <path d="M14.826 21.999c-.466 0-.844-.378-.844-.844 0-.466.378-.845.844-.845.024-.465.418-.83.886-.8.465.023.824.42.8.885-.045.9-.786 1.604-1.686 1.604zM3.008 21.197c-.447 0-.82-.35-.843-.802l-.804-16.08c-.023-.467.335-.863.8-.886.47-.022.863.335.886.8l.804 16.081c.024.466-.335.862-.8.886h-.043z" transform="translate(-469 -262) translate(48 42) translate(421 220) translate(8 7)"/>
                        <path d="M3.851 21.999c-.9 0-1.641-.705-1.686-1.604-.023-.466.335-.862.8-.886.47-.022.863.336.886.801.466 0 .844.379.844.845 0 .466-.378.844-.844.844zM12.715 5.116c-.466 0-.844-.378-.844-.844V1.74c0-.466.378-.844.844-.844.466 0 .844.378.844.844v2.532c0 .466-.378.844-.844.844zM5.962 5.116c-.466 0-.844-.378-.844-.844V1.74c0-.466.378-.844.844-.844.466 0 .844.378.844.844v2.532c0 .466-.378.844-.844.844z" transform="translate(-469 -262) translate(48 42) translate(421 220) translate(8 7)"/>
                        <path d="M17.78 5.116H.896c-.466 0-.844-.378-.844-.844 0-.466.378-.844.844-.844h16.885c.466 0 .844.378.844.844 0 .466-.378.844-.845.844zM5.961 2.584c-.466 0-.843-.378-.843-.844C5.118.809 5.875.05 6.806.05c.466 0 .844.379.844.845 0 .466-.378.844-.844.844h-.001c0 .466-.377.844-.844.844z" transform="translate(-469 -262) translate(48 42) translate(421 220) translate(8 7)"/>
                        <path d="M11.87 1.74H6.807c-.466 0-.844-.378-.844-.844 0-.466.378-.845.844-.845h5.065c.465 0 .844.379.844.845 0 .466-.379.844-.844.844z" transform="translate(-469 -262) translate(48 42) translate(421 220) translate(8 7)"/>
                        <path d="M12.715 2.584c-.466 0-.844-.378-.844-.844v-.001c-.466 0-.845-.377-.845-.844 0-.466.379-.844.845-.844.93 0 1.688.758 1.688 1.689 0 .466-.378.844-.844.844z" transform="translate(-469 -262) translate(48 42) translate(421 220) translate(8 7)"/>
                    </g>
                </g>
            </g>
        </g>
    </g>
</svg>
