<svg xmlns="http://www.w3.org/2000/svg" width="34" height="34" viewBox="0 0 34 34">
    <g fill="none" fill-rule="evenodd">
        <g>
            <g>
                <path d="M0 0H34V34H0z" transform="translate(-1197 -353) translate(1197 353)"/>
                <g fill-rule="nonzero">
                    <path fill="#BBB3AB" stroke="#BBB3AB" stroke-width=".4" d="M12.043 16.319h-1.486c-.54 0-.979-.438-.979-.978 0-.541.438-.979.979-.979h2.616c.357 0 .649-.292.649-.648 0-.357-.292-.65-.649-.65h-1.227v-.902c0-.357-.292-.648-.649-.648-.356 0-.648.291-.648.648v.903h-.092c-1.254 0-2.276 1.021-2.276 2.276 0 1.254 1.022 2.275 2.276 2.275h1.486c.54 0 .979.438.979.979 0 .54-.438.978-.979.978H9.378c-.356 0-.648.292-.648.649 0 .356.292.648.648.648h1.276v.925c0 .356.292.648.649.648.356 0 .648-.292.648-.648v-.925h.125c1.243-.016 2.243-1.032 2.243-2.275 0-1.254-1.022-2.276-2.276-2.276z" transform="translate(-1197 -353) translate(1197 353) translate(6 4)"/>
                    <path fill="#524E4B" d="M21.049 14.849c-.681-1.568-1.622-3.087-2.811-4.508-1.438-1.73-2.87-2.887-3.6-3.422l2.757-5.114c.135-.254.091-.567-.12-.767C16.563.34 15.806 0 14.963 0c-.773 0-1.48.292-2.097.551-.487.2-.946.395-1.32.395-.113 0-.21-.016-.307-.054C9.95.422 8.962.13 8.005.13c-1.21 0-2.243.486-3.254 1.524-.21.216-.243.557-.075.81l2.973 4.493c-.735.546-2.14 1.692-3.552 3.384-1.183 1.421-2.13 2.94-2.81 4.508C.431 16.822 0 18.88 0 20.968 0 23.74 2.26 26 5.032 26h12.27c2.774 0 5.033-2.26 5.033-5.032 0-2.087-.432-4.146-1.286-6.12zM6.059 2.195c.627-.54 1.227-.779 1.946-.779.768 0 1.633.26 2.784.687.238.086.492.13.752.13.632 0 1.237-.25 1.816-.492.557-.233 1.086-.455 1.6-.455.248 0 .6.044 1.043.357l-2.595 4.822H8.886L6.06 2.195zm11.244 22.508H5.033c-2.06 0-3.736-1.676-3.736-3.735 0-3.465 1.27-6.752 3.768-9.768 1.578-1.908 3.184-3.092 3.67-3.438h4.854c.492.34 2.092 1.53 3.67 3.438 2.503 3.016 3.768 6.297 3.768 9.768.01 2.059-1.665 3.735-3.724 3.735z" transform="translate(-1197 -353) translate(1197 353) translate(6 4)"/>
                </g>
            </g>
        </g>
    </g>
</svg>
