<svg xmlns="http://www.w3.org/2000/svg" xmlns:xlink="http://www.w3.org/1999/xlink" width="30" height="30" viewBox="0 0 30 30">
    <defs>
        <path id="bwq9tyoppa" d="M0 0H30V30H0z"/>
    </defs>
    <g fill="none" fill-rule="evenodd">
        <g>
            <g>
                <g>
                    <g transform="translate(-712 -10306) translate(369 10116) translate(0 185) translate(343 5)">
                        <mask id="87desqc74b" fill="#fff">
                            <use xlink:href="#bwq9tyoppa"/>
                        </mask>
                        <path fill="#DB4242" d="M13.985 4.978C12.764 4.191 11.29 3.75 9.773 3.75c-3.898 0-6.96 2.967-6.96 6.744 0 1.342.323 2.616.878 3.828 1.72 3.764 5.66 6.94 9.051 9.673.976.787 1.907 1.538 2.727 2.255.82-.717 1.75-1.468 2.727-2.255 3.391-2.733 7.331-5.91 9.05-9.672.555-1.213.879-2.487.879-3.83 0-3.776-3.063-6.743-6.96-6.743-1.517 0-2.991.441-4.213 1.228-.552.356-1.053.783-1.483 1.272-.43-.489-.931-.916-1.484-1.272z" mask="url(#87desqc74b)"/>
                    </g>
                </g>
            </g>
        </g>
    </g>
</svg>
