<svg xmlns="http://www.w3.org/2000/svg" width="35" height="35" viewBox="0 0 35 35">
    <g fill="none" fill-rule="evenodd">
        <g>
            <g>
                <g>
                    <path d="M0 0H35V35H0z" transform="translate(-418 -262) translate(48 42) translate(370 220)"/>
                    <g fill="#414141" transform="translate(-418 -262) translate(48 42) translate(370 220) translate(7 7)">
                        <path fill-rule="nonzero" d="M2.062 15.186c-.207 0-.413-.079-.571-.237-.316-.315-.316-.826 0-1.142L14.115 1.183c.315-.315.827-.315 1.142 0 .316.316.316.827 0 1.142L2.633 14.95c-.157.158-.364.237-.571.237z"/>
                        <path fill-rule="nonzero" d="M.815 21.004c-.056 0-.113-.006-.17-.019-.437-.093-.714-.523-.62-.959l1.247-5.817c.094-.437.525-.714.96-.62.436.093.714.522.62.958l-1.248 5.818c-.081.38-.416.639-.79.639zM6.631 19.756c-.206 0-.413-.08-.57-.237-.316-.316-.316-.827 0-1.142L18.683 5.753c.315-.315.827-.315 1.143 0 .315.315.315.827 0 1.142L7.203 19.52c-.158.158-.365.237-.572.237z"/>
                        <path fill-rule="nonzero" d="M.813 21.004c-.373 0-.708-.26-.79-.639-.092-.436.185-.866.621-.96l5.818-1.247c.436-.093.866.184.96.62.092.436-.185.866-.621.96L.983 20.984c-.057.013-.114.019-.17.019z"/>
                        <rect width="21.958" height="1.909" y="20.049" rx=".955"/>
                        <path fill-rule="nonzero" d="M16.97 9.416c-.206 0-.413-.078-.57-.236l-4.57-4.57c-.316-.315-.316-.827 0-1.142.315-.315.827-.315 1.142 0l4.57 4.57c.315.315.315.826 0 1.142-.158.158-.365.236-.571.236zM19.255 7.132c-.206 0-.413-.079-.571-.237-.316-.315-.316-.827 0-1.142.45-.45.697-1.059.697-1.714s-.248-1.264-.697-1.713c-.45-.45-1.059-.698-1.714-.698s-1.264.248-1.713.698c-.315.315-.827.316-1.143 0-.315-.316-.315-.827 0-1.143.755-.755 1.769-1.17 2.856-1.17s2.102.415 2.856 1.17c.755.755 1.17 1.769 1.17 2.856s-.415 2.102-1.17 2.856c-.157.158-.364.237-.57.237z"/>
                    </g>
                </g>
            </g>
        </g>
    </g>
</svg>
