<svg xmlns="http://www.w3.org/2000/svg" width="42" height="42" viewBox="0 0 42 42">
    <g fill="none" fill-rule="evenodd">
        <g>
            <g>
                <path d="M0 0H42V42H0z" transform="translate(-1362 -415) translate(1362 415)"/>
                <path fill="#8D8682" fill-rule="nonzero" d="M10.257 21.912c.192-.152.455-.18.676-.073.22.108.36.333.359.578v3.833h9.582c.353 0 .64.286.64.639v5.11c0 .17-.068.333-.188.453s-.282.187-.452.187h-9.582v3.833c.001.245-.139.47-.36.577-.22.108-.483.08-.675-.072l-2.798-2.198-.001.004-1.426-1.105-4.72-3.716c-.13-.1-.214-.247-.239-.407l-.007-.098c0-.197.09-.383.247-.504l4.868-3.834 1.278-1.009zm-.243 1.821l-7.27 5.711 7.27 5.712V32c0-.353.286-.639.639-.639h9.583v-3.833h-9.583c-.353 0-.64-.286-.64-.639v-3.156z" transform="translate(-1362 -415) translate(1362 415)"/>
                <g>
                    <path fill="#EFEEEA" d="M1.023 20.491L12.881 25.516 13.094 11 1.023 5.834z" transform="translate(-1362 -415) translate(1362 415) translate(14 6)"/>
                    <path fill="#8D8682" fill-rule="nonzero" d="M25.801 5.039L13.325.047c-.147-.063-.314-.063-.461 0C-3.18 6.458 1.189 4.714.388 5.04c-.23.099-.38.321-.388.57v14.97c.001.254.157.482.393.576l12.47 4.992c.149.058.314.058.462 0l12.47-4.992c.237-.094.392-.322.394-.576V5.609c-.01-.248-.16-.47-.388-.57zM13.094 1.294L23.89 5.61l-2.095.832L11 2.127l2.095-.833zm4.557 6.982l-11-4.405L9.34 2.797l11.853 4.74v3.902l-3.143 1.247V8.862c-.006-.256-.162-.486-.398-.586zm-12.68-3.73l10.79 4.316-2.667 1.09L2.304 5.61l2.667-1.064zM1.247 6.531L12.47 11v13.618L1.247 20.155V6.53zm12.47 18.112V11l3.107-1.241v3.86c0 .206.103.398.274.514.171.115.388.138.58.062l4.368-1.744c.235-.096.389-.327.387-.581V7.537l2.509-1.006V20.15l-11.224 4.494z" transform="translate(-1362 -415) translate(1362 415) translate(14 6)"/>
                </g>
            </g>
        </g>
    </g>
</svg>
