<svg xmlns="http://www.w3.org/2000/svg" width="42" height="42" viewBox="0 0 42 42">
    <g fill="none" fill-rule="evenodd">
        <g>
            <g>
                <path d="M0 0H42V42H0z" transform="translate(-1118 -415) translate(1118 415)"/>
                <g>
                    <path stroke="#8D8682" stroke-width="1.4" d="M.055.938C.055.45.45.055.938.055h31.77c.487 0 .882.395.882.883v4.034H.055V.938zm0 7.312H33.59v13.868c0 .487-.395.882-.883.882H.937c-.487 0-.882-.395-.882-.882V8.25z" transform="translate(-1118 -415) translate(1118 415) translate(4 10)"/>
                    <path fill="#8D8682" d="M5.13 12.347c-.488 0-.883.395-.883.883v4.79c0 .488.395.883.882.883h4.942c.488 0 .883-.395.883-.883v-4.79c0-.488-.395-.883-.883-.883H5.13z" transform="translate(-1118 -415) translate(1118 415) translate(4 10)"/>
                </g>
            </g>
        </g>
    </g>
</svg>
