<svg xmlns="http://www.w3.org/2000/svg" width="110" height="110" viewBox="0 0 110 110">
    <g fill="none" fill-rule="evenodd">
        <g>
            <g>
                <path d="M0 0H110V110H0z" transform="translate(-905 -424) translate(905 424)"/>
                <path fill="#EDD2ED" fill-rule="nonzero" d="M101.916 40.207l.105.004c.077.004.154.013.231.027.62.072 1.16.471 1.431.979 2.475 4.858 1.393 10.659-2.668 14.43-1.772 1.678-3.95 2.811-6.27 3.36l-.333.074c-.667.141-1.345.234-2.028.279l-.341.018c-.114.004-.229.008-.343.01l-.342.001c-1.03-.007-2.062-.125-3.077-.357l-.338-.081c-.337-.086-.672-.184-1.005-.295L65.274 78.944c1.74 4.532.54 9.717-3.133 13.233-.137.128-.277.252-.42.372-2.477 2.104-5.626 3.239-8.832 3.321l-.377.005c-1.48 0-2.983-.224-4.425-.69-.479-.153-.951-.334-1.415-.542-1.199-.544-1.469-2.03-.502-2.9l4.988-4.678c.813-.76.774-1.849 0-2.538l-.132-.114c-.773-.608-1.883-.572-2.613.078l-4.989 4.677c-.928.87-2.514.653-3.094-.471-2.475-4.822-1.43-10.659 2.591-14.466 3.751-3.48 9.282-4.568 14.154-2.973l21.626-20.325c-1.74-4.568-.541-9.717 3.21-13.197 3.983-3.807 10.21-4.822 15.391-2.502.58.254.967.726 1.083 1.306.116.58-.077 1.196-.541 1.595l-5.027 4.713c-.735.725-.735 1.85 0 2.574h.038c.562.5 1.44.617 2.151.353l.161-.068c.158-.075.304-.17.434-.285l4.988-4.677c.349-.356.826-.542 1.327-.538z" transform="translate(-905 -424) translate(905 424)"/>
                <g fill-rule="nonzero">
                    <path fill="#000" stroke="#000" d="M69.375 0H4.151C1.859.003.003 1.86 0 4.15v53.366c.003 2.291 1.86 4.148 4.15 4.15h65.225c2.291-.002 4.148-1.859 4.15-4.15V4.151C73.524 1.859 71.667.003 69.376 0zM4.151 2.372h65.224c.982 0 1.778.797 1.779 1.779v2.964H2.372V4.151c0-.982.797-1.778 1.779-1.78h0zm65.224 56.923H4.151c-.982-.001-1.778-.797-1.78-1.779V9.487h68.783v48.029c-.001.982-.797 1.778-1.779 1.779z" transform="translate(-905 -424) translate(905 424) translate(9 16)"/>
                    <path fill="#DF9CDF" stroke="#DF9CDF" stroke-width=".4" d="M18.974 22.532c-6.55 0-11.859 5.31-11.859 11.859 0 6.55 5.31 11.859 11.86 11.859 6.549 0 11.858-5.31 11.858-11.859-.007-6.546-5.312-11.852-11.859-11.859h0z" transform="translate(-905 -424) translate(905 424) translate(9 16)"/>
                    <path fill="#FFF" stroke="#FFF" stroke-width=".4" d="M23.37 29.995c-.222-.223-.523-.348-.838-.348-.314 0-.616.125-.839.348l-2.719 2.719-2.719-2.72c-.463-.462-1.214-.462-1.677 0-.463.464-.463 1.215 0 1.678l2.72 2.719-2.72 2.72c-.463.462-.463 1.213 0 1.676.463.463 1.214.463 1.677 0l2.72-2.719 2.718 2.72c.3.299.737.416 1.146.306.41-.11.729-.43.839-.838.11-.41-.008-.846-.307-1.146l-2.72-2.719 2.72-2.72c.222-.221.347-.523.347-.838 0-.314-.125-.616-.347-.838h0z" transform="translate(-905 -424) translate(905 424) translate(9 16)"/>
                    <path fill="#000" stroke="#000" d="M65.224 26.722H36.763c-.655 0-1.186.46-1.186 1.028 0 .568.53 1.028 1.186 1.028h28.461c.655 0 1.186-.46 1.186-1.028 0-.568-.53-1.028-1.186-1.028zM65.224 32.889H36.763c-.655 0-1.186.46-1.186 1.028 0 .567.53 1.027 1.186 1.027h28.461c.655 0 1.186-.46 1.186-1.027 0-.568-.53-1.028-1.186-1.028zM50.994 39.056H36.763c-.655 0-1.186.46-1.186 1.027 0 .568.53 1.028 1.186 1.028h14.23c.656 0 1.186-.46 1.186-1.028 0-.567-.53-1.027-1.185-1.027z" transform="translate(-905 -424) translate(905 424) translate(9 16)"/>
                </g>
            </g>
        </g>
    </g>
</svg>
