<svg xmlns="http://www.w3.org/2000/svg" width="54" height="54" viewBox="0 0 54 54">
    <g fill="none" fill-rule="evenodd">
        <g>
            <g>
                <g>
                    <path d="M0 0H54V54H0z" transform="translate(-1460 -938) translate(370 880) translate(1090 58)"/>
                    <g>
                        <path fill="#E7E0DA" d="M37.6.8v22.4H24.7c-.356-1.38-1.609-2.4-3.1-2.4s-2.744 1.02-3.1 2.4H9.6V.8h28z" transform="translate(-1460 -938) translate(370 880) translate(1090 58) translate(1 13)"/>
                        <g fill="#524E4B" fill-rule="nonzero">
                            <path d="M44.403 28c-1.78.001-3.385-1.07-4.067-2.714-.682-1.644-.306-3.537.952-4.796 1.258-1.26 3.15-1.636 4.795-.955 1.645.68 2.717 2.285 2.717 4.065-.001 2.428-1.968 4.397-4.397 4.4zm0-7.195c-1.13-.001-2.15.679-2.584 1.723-.434 1.045-.195 2.247.604 3.047.799.8 2.001 1.04 3.046.608 1.045-.433 1.726-1.452 1.726-2.583 0-1.542-1.25-2.792-2.792-2.795zM21.204 28c-1.78.002-3.385-1.07-4.068-2.713-.682-1.644-.307-3.537.951-4.797 1.258-1.259 3.151-1.636 4.796-.955 1.645.68 2.717 2.285 2.717 4.065-.002 2.428-1.968 4.396-4.396 4.4zm0-7.195c-1.13-.002-2.15.678-2.585 1.723-.434 1.044-.196 2.247.603 3.047.8.8 2.002 1.04 3.047.608 1.045-.433 1.726-1.452 1.726-2.583-.001-1.541-1.25-2.791-2.79-2.795z" transform="translate(-1460 -938) translate(370 880) translate(1090 58) translate(1 13)"/>
                            <path d="M48.397 24.797c-.447 0-.81-.37-.81-.825 0-.456.363-.825.81-.825h1.985v-4.375c0-.591-.15-1.173-.432-1.69l-4.382-8.006c-.076-.14-.22-.226-.377-.226H39.22v14.3h1.128c.447 0 .81.37.81.825 0 .456-.363.825-.81.825H38.41c-.448 0-.81-.37-.81-.825V8.025c0-.456.362-.825.81-.825h6.781c.744 0 1.43.41 1.792 1.071l4.381 8.008c.417.763.636 1.62.636 2.493v4.609c-.001.781-.622 1.414-1.39 1.416h-2.213zM17.572 24.8H9.628c-.457 0-.828-.37-.828-.826v-6.348c0-.456.37-.826.828-.826.458 0 .829.37.829.826v5.523h7.115c.457 0 .828.37.828.825 0 .456-.37.826-.828.826zM9.6 14.4c-.442 0-.8-.37-.8-.826V8.026c0-.456.358-.826.8-.826.442 0 .8.37.8.826v5.551c-.002.455-.36.823-.8.823z" transform="translate(-1460 -938) translate(370 880) translate(1090 58) translate(1 13)"/>
                            <path d="M38.38 24H24.815c-.452 0-.819-.356-.819-.796 0-.44.367-.795.82-.795H37.56V1.59H10.44V4.87c0 .44-.367.795-.82.795-.452 0-.819-.356-.819-.795V1.445C8.801.647 9.467.001 10.29 0h27.422c.821.001 1.487.647 1.488 1.445v21.76c0 .439-.367.795-.82.795zM12.783 18.4H2.417c-.451 0-.817-.358-.817-.8 0-.442.366-.8.817-.8h10.366c.451 0 .817.358.817.8 0 .442-.366.8-.817.8z" transform="translate(-1460 -938) translate(370 880) translate(1090 58) translate(1 13)"/>
                            <path d="M21.588 14.4H7.212c-.449 0-.812-.358-.812-.8 0-.442.363-.8.812-.8h14.376c.449 0 .812.358.812.8 0 .442-.363.8-.812.8zM6.392 10.4H.808C.362 10.4 0 10.042 0 9.6c0-.442.362-.8.808-.8h5.584c.446 0 .808.358.808.8 0 .442-.362.8-.808.8zM15.212 5.6H5.588c-.435 0-.788-.358-.788-.8 0-.442.353-.8.788-.8h9.624c.435 0 .788.358.788.8 0 .442-.353.8-.788.8z" transform="translate(-1460 -938) translate(370 880) translate(1090 58) translate(1 13)"/>
                        </g>
                    </g>
                </g>
            </g>
        </g>
    </g>
</svg>
