<svg xmlns="http://www.w3.org/2000/svg" width="27" height="27" viewBox="0 0 27 27">
    <g fill="none" fill-rule="evenodd">
        <g>
            <g>
                <g>
                    <path d="M0 0H27V27H0z" transform="translate(-1068 -718) translate(1064 718) translate(4)"/>
                    <g fill="#FFF" fill-rule="nonzero">
                        <path d="M7.5 1.837c-.338 0-.612-.275-.612-.613V.612C6.888.274 7.162 0 7.5 0c.338 0 .612.274.612.612v.612c0 .338-.274.613-.612.613z" transform="translate(-1068 -718) translate(1064 718) translate(4) translate(6 6)"/>
                        <path d="M12.843 7.18c-.338 0-.612-.274-.612-.612 0-2.488-2.02-4.609-4.504-4.726-2.486-.115-4.703 1.8-4.937 4.274-.014.148-.021.3-.021.452 0 .338-.274.612-.612.612-.338 0-.613-.274-.613-.612 0-.191.01-.382.027-.568C1.866 2.885 4.657.472 7.785.62c3.127.148 5.67 2.817 5.67 5.949 0 .338-.274.612-.612.612zM13.99 11.356c-.15 0-.302-.056-.42-.168-.851-.805-1.34-1.94-1.34-3.112 0-.338.275-.612.613-.612.338 0 .612.274.612.612 0 .837.349 1.648.957 2.223.245.233.256.62.024.866-.12.127-.283.19-.445.19zM1.009 11.356c-.163 0-.325-.064-.445-.191-.232-.246-.222-.633.024-.866.608-.575.956-1.385.956-2.223 0-.338.275-.612.613-.612.338 0 .612.274.612.612 0 1.173-.488 2.307-1.34 3.112-.118.112-.27.168-.42.168zM7.5 15.918c-1.66 0-3.061-1.402-3.061-3.06 0-.339.274-.613.612-.613.338 0 .612.274.612.612 0 .996.841 1.837 1.837 1.837s1.837-.841 1.837-1.837c0-.338.274-.612.612-.612.338 0 .612.274.612.612 0 1.66-1.402 3.061-3.061 3.061z" transform="translate(-1068 -718) translate(1064 718) translate(4) translate(6 6)"/>
                        <path d="M1.85 13.47c-.746 0-1.41-.457-1.69-1.163-.282-.706-.114-1.495.427-2.008.246-.232.633-.222.866.024.233.245.222.633-.023.865-.269.255-.17.574-.133.666.036.092.184.39.553.39.338 0 .612.275.612.613 0 .338-.274.612-.612.612zM13.15 13.47c-.339 0-.613-.275-.613-.613 0-.338.274-.612.612-.612.37 0 .518-.3.555-.393.036-.091.134-.41-.134-.664-.245-.232-.256-.62-.024-.866.233-.245.62-.256.866-.023.542.513.71 1.3.43 2.006-.283.707-.947 1.164-1.693 1.164zM2.156 8.688c-.338 0-.612-.274-.612-.612V6.568c0-.338.274-.612.612-.612.338 0 .613.274.613.612v1.508c0 .338-.274.612-.613.612zM12.843 8.688c-.338 0-.612-.274-.612-.612V6.568c0-.338.274-.612.612-.612.338 0 .612.274.612.612v1.508c0 .338-.274.612-.612.612z" transform="translate(-1068 -718) translate(1064 718) translate(4) translate(6 6)"/>
                        <path d="M12.652 13.444H1.825c-.324 0-.587-.263-.587-.587 0-.324.263-.587.587-.587H12.65c.324 0 .587.263.587.587 0 .324-.263.587-.586.587z" transform="translate(-1068 -718) translate(1064 718) translate(4) translate(6 6)"/>
                    </g>
                </g>
            </g>
        </g>
    </g>
</svg>
