<svg xmlns="http://www.w3.org/2000/svg" width="34" height="34" viewBox="0 0 34 34">
    <g fill="none" fill-rule="evenodd">
        <g>
            <g transform="translate(-380 -1072) translate(380 1072)">
                <circle cx="17" cy="17" r="17" fill="#DF9CDF"/>
                <path fill="#FFF" fill-rule="nonzero" d="M11.992 22.973c.208 0 .384-.058.528-.175.144-.116.24-.245.29-.386l.992-2.71h5.504l.993 2.71c.061.16.16.293.299.4.137.107.314.161.528.161h1.911l-5.22-13.288h-2.526l-5.22 13.288h1.92zm6.68-5.017h-4.236l1.618-4.402c.08-.202.16-.438.243-.708.083-.27.167-.56.253-.872.085.312.173.601.262.868.088.266.17.498.243.694l1.617 4.42z"/>
            </g>
        </g>
    </g>
</svg>
