<svg xmlns="http://www.w3.org/2000/svg" xmlns:xlink="http://www.w3.org/1999/xlink" width="34" height="34" viewBox="0 0 34 34">
    <defs>
        <path id="g7pa4uhaga" d="M0 0.042L32.258 0.042 32.258 29.677 0 29.677z"/>
    </defs>
    <g fill="none" fill-rule="evenodd">
        <g>
            <g>
                <g>
                    <path d="M0 0H34V34H0z" transform="translate(-899 -221) translate(880 202) translate(19 19)"/>
                    <g>
                        <g transform="translate(-899 -221) translate(880 202) translate(19 19) translate(1 2) translate(0 .28)">
                            <mask id="hh6vti6j6b" fill="#fff">
                                <use xlink:href="#g7pa4uhaga"/>
                            </mask>
                            <path fill="#282828" d="M16.129.042c-8.908 0-16.13 5.709-16.13 12.75 0 4.584 3.06 8.602 7.653 10.85-.338 1.259-1.222 4.562-1.398 5.269-.22.877.32.866.675.63.277-.185 4.419-3.002 6.206-4.217.97.144 1.971.22 2.994.22 8.908 0 16.129-5.709 16.129-12.751S25.037.043 16.129.043" mask="url(#hh6vti6j6b)"/>
                        </g>
                        <path fill="#FFF" d="M10.076 9.974H4.963c-.986.002-.983 1.647.003 1.646h1.681s.01 4.584.002 5.66c.002.784 1.748.779 1.745-.006l.008-5.652h1.673c1.046 0 1.047-1.648.001-1.648M11.997 14.782l1.014-2.93.936 2.93h-1.95zm2.018-4.303c-.252-.539-1.69-.797-2.051 0-.414.91-1.908 5.213-2.405 6.354-.358.825 1.188 1.497 1.547.673l.336-1.177h3.077s-.106.049.302 1.126c.331.873 1.928.268 1.597-.605-.472-1.247-2.106-5.735-2.403-6.371zM21.054 16.17c-.79 0-2.231-.01-2.231-.01s.006-4.358.004-5.417c-.003-1.026-1.822-1.022-1.82.005.003 1.462.008 6.174.008 6.174s-.134.937.669.937 2.584-.008 3.375-.008c.79 0 .786-1.682-.005-1.682M27.898 16.651l-2.354-3.099s1.598-1.728 2.228-2.353c.368-.366-.77-1.511-1.138-1.146-.356.354-2.858 2.858-2.858 2.858s.023-1.573 0-2.442c-.019-.683-1.735-.637-1.716.046.017.641-.021 6.439-.02 6.869 0 .678 1.726.676 1.725-.001v-2.281l.507-.407 2.217 3.024c.448.59 1.857-.476 1.409-1.068" transform="translate(-899 -221) translate(880 202) translate(19 19) translate(1 2)"/>
                    </g>
                </g>
            </g>
        </g>
    </g>
</svg>
