<svg xmlns="http://www.w3.org/2000/svg" width="68" height="68" viewBox="0 0 68 68">
    <g fill="none" fill-rule="evenodd">
        <g>
            <g>
                <path d="M0 0H68V68H0z" transform="translate(-1141 -476) translate(1141 476)"/>
                <g>
                    <g fill-rule="nonzero">
                        <path fill="#DF9CDF" stroke="#FFF" stroke-width=".6" d="M25.276 15.507c-2.812 0-5.092 2.28-5.092 5.09 0 2.813 2.28 5.092 5.092 5.092 2.811 0 5.09-2.28 5.09-5.091 0-2.812-2.279-5.091-5.09-5.091z" transform="translate(-1141 -476) translate(1141 476) translate(9 12)"/>
                        <path fill="#282828" stroke="#FFF" stroke-width=".6" d="M45.58 3.87L12.487.112c-1.284-.183-2.585.192-3.576 1.03-.99.768-1.625 1.906-1.757 3.152l-.606 4.97h-1.88c-2.666 0-4.666 2.364-4.666 5.03v24.79c-.068 2.543 1.94 4.659 4.483 4.726l.184.001h33.274c2.667 0 5.091-2.06 5.091-4.727v-.97c.827-.16 1.611-.49 2.303-.97.982-.827 1.61-1.998 1.758-3.273l2.788-24.607c.284-2.673-1.634-5.077-4.303-5.394zm-4.97 35.214c0 1.333-1.334 2.303-2.667 2.303H4.669c-1.205.035-2.21-.913-2.245-2.117-.002-.062-.001-.124.002-.186v-4.486l9.394-6.909c1.129-.866 2.719-.79 3.758.182l6.607 5.818c1.003.843 2.266 1.314 3.576 1.334 1.024.012 2.031-.26 2.909-.788l11.94-6.91v11.759h0zm0-14.607l-13.213 7.697c-1.135.672-2.57.55-3.576-.303l-6.667-5.879c-1.91-1.642-4.704-1.743-6.728-.242l-8 5.818V14.295c0-1.334.91-2.607 2.243-2.607h33.274c1.424.06 2.575 1.184 2.667 2.607v10.182h0z" transform="translate(-1141 -476) translate(1141 476) translate(9 12)"/>
                        <path fill="#F2D8F2" d="M47.46 8.937c0 .008 0 .016-.002.024L44.61 33.568c.005.638-.286 1.242-.788 1.637-.243.242-.788.363-.788.484V14.295c-.096-2.762-2.33-4.968-5.091-5.031H8.972l.545-4.727c.119-.613.439-1.167.91-1.576.531-.368 1.174-.54 1.818-.485l33.032 3.818c1.332.127 2.31 1.31 2.184 2.643z" transform="translate(-1141 -476) translate(1141 476) translate(9 12)"/>
                    </g>
                    <path fill="#F2D8F2" d="M8.972 9.264L6.812 9.57 7.556 2.106 10.887 -3.307 49.911 2.466 54.441 32.606 47.223 37.932 42.751 37.863 43.034 35.689 44.145 22.911 43.034 8.108 14.538 5.944z" transform="translate(-1141 -476) translate(1141 476) translate(9 12)"/>
                </g>
            </g>
        </g>
    </g>
</svg>
