<svg xmlns="http://www.w3.org/2000/svg" width="29" height="29" viewBox="0 0 29 29">
    <g fill="none" fill-rule="evenodd">
        <g>
            <g>
                <path d="M0 0H29V29H0z" transform="translate(-65 -152) translate(65 152)"/>
                <g transform="translate(-65 -152) translate(65 152) translate(5 5)">
                    <circle cx="9.5" cy="9.5" r="9.5" fill="#282828"/>
                    <path fill="#FFF" fill-rule="nonzero" d="M10.129 11.43c.07-.457.126-.89.168-1.298.042-.409.063-.825.063-1.25V4.878H8.729v4.004c0 .425.021.841.063 1.25.042.408.098.84.168 1.298h1.169zm-.602 3.668c.145 0 .282-.027.413-.08.13-.054.243-.128.336-.221.093-.093.168-.204.224-.333.056-.128.084-.267.084-.416 0-.145-.028-.282-.084-.413-.056-.13-.13-.243-.224-.336-.093-.093-.205-.168-.336-.224-.13-.056-.268-.084-.413-.084-.15 0-.29.028-.42.084-.13.056-.244.13-.34.224-.095.093-.17.205-.223.336-.054.13-.081.268-.081.413 0 .15.027.288.08.416.054.129.129.24.225.333.095.093.208.167.339.22.13.054.27.081.42.081z"/>
                </g>
            </g>
        </g>
    </g>
</svg>
