<svg xmlns="http://www.w3.org/2000/svg" width="54" height="54" viewBox="0 0 54 54">
    <g fill="none" fill-rule="evenodd">
        <g>
            <g>
                <g>
                    <path fill="#E7E0DA" d="M5.416 15.168L5.416 8.776 10.655 2.851 37.384 2.851 41.16 3.517 45.553 8.776 45.553 29.332 51.773 29.332 50.438 34.908 47.262 35.942 31.905 35.942 31.905 15.168z" transform="translate(-674 -938) translate(370 880) translate(304 58)"/>
                    <path d="M0 0H54V54H0z" transform="translate(-674 -938) translate(370 880) translate(304 58)"/>
                    <g fill="#524E4B" fill-rule="nonzero" stroke="#524E4B" stroke-width=".2">
                        <path d="M29.84 12.166H.782c-.431 0-.781.35-.781.78V49.22c0 .431.35.781.781.781h29.063c.431 0 .781-.35.781-.781V12.947c0-.208-.083-.407-.23-.554-.147-.146-.347-.228-.554-.227zm-.777 36.272h-27.5v-34.71h27.5v34.71z" transform="translate(-674 -938) translate(370 880) translate(304 58) translate(2 2)"/>
                        <path d="M4.98 28.07h20.663c.431 0 .781-.35.781-.781v-9.813c0-.431-.35-.781-.781-.781-.432 0-.782.35-.782.781v9.031h-19.1v-8.25h16.68c.432 0 .782-.35.782-.781 0-.431-.35-.781-.781-.781H4.979c-.431 0-.781.35-.781.781v9.816c.002.43.35.778.781.778h0z" transform="translate(-674 -938) translate(370 880) translate(304 58) translate(2 2)"/>
                        <path d="M49.219 26.507h-4.896V8.847C44.198 3.93 40.178.006 35.257 0h-23.77c-4.891 0-8.86 3.957-8.871 8.848v1.174c0 .431.35.781.78.781.432 0 .782-.35.782-.781V8.848c.011-4.028 3.28-7.287 7.308-7.286h18.75c-2.406 1.645-3.847 4.37-3.85 7.286v1.174c0 .431.35.781.78.781.432 0 .782-.35.782-.781V8.848c.011-4.028 3.281-7.287 7.31-7.286 4.06-.004 7.386 3.226 7.5 7.286v22.108c.002.02.007.041.012.062.02.69.24 1.359.633 1.927H33.116c-.432 0-.782.35-.782.781 0 .432.35.781.782.781h13.262c1.997 0 3.617-1.616 3.622-3.612v-3.603c0-.208-.081-.408-.228-.555-.146-.147-.346-.23-.553-.23zm-.782 4.388c-.025 1.119-.939 2.013-2.058 2.013-1.12 0-2.034-.894-2.06-2.013V28.07h4.118v2.825zM4.98 32.708h4.867c.431 0 .781-.35.781-.78 0-.432-.35-.782-.781-.782H4.979c-.431 0-.781.35-.781.781 0 .432.35.781.781.781h0zM4.98 37.083h4.867c.431 0 .781-.35.781-.78 0-.432-.35-.782-.781-.782H4.979c-.431 0-.781.35-.781.781 0 .432.35.781.781.781zM4.98 41.465h4.867c.431 0 .781-.35.781-.782 0-.431-.35-.78-.781-.78H4.979c-.431 0-.781.349-.781.78 0 .432.35.782.781.782zM4.98 45.843h4.867c.431 0 .781-.35.781-.782 0-.431-.35-.78-.781-.78H4.979c-.431 0-.781.349-.781.78 0 .432.35.782.781.782zM25.643 31.146h-4.868c-.431 0-.781.35-.781.781 0 .432.35.781.781.781h4.868c.431 0 .781-.35.781-.78 0-.432-.35-.782-.781-.782h0zM25.643 35.52h-4.868c-.431 0-.781.35-.781.782 0 .432.35.781.781.781h4.868c.431 0 .781-.35.781-.78 0-.432-.35-.782-.781-.782h0zM25.643 39.902h-4.868c-.431 0-.781.35-.781.781 0 .432.35.782.781.782h4.868c.431 0 .781-.35.781-.782 0-.431-.35-.78-.781-.78h0zM25.643 44.28h-4.868c-.431 0-.781.35-.781.781 0 .432.35.782.781.782h4.868c.431 0 .781-.35.781-.782 0-.431-.35-.78-.781-.78h0zM17.745 31.146h-4.868c-.431 0-.781.35-.781.781 0 .432.35.781.781.781h4.868c.431 0 .781-.35.781-.78 0-.432-.35-.782-.781-.782h0zM17.745 35.52h-4.868c-.431 0-.781.35-.781.782 0 .432.35.781.781.781h4.868c.431 0 .781-.35.781-.78 0-.432-.35-.782-.781-.782h0zM17.745 39.902h-4.868c-.431 0-.781.35-.781.781 0 .432.35.782.781.782h4.868c.431 0 .781-.35.781-.782 0-.431-.35-.78-.781-.78h0zM17.745 44.28h-4.868c-.431 0-.781.35-.781.781 0 .432.35.782.781.782h4.868c.431 0 .781-.35.781-.782 0-.431-.35-.78-.781-.78h0z" transform="translate(-674 -938) translate(370 880) translate(304 58) translate(2 2)"/>
                    </g>
                </g>
            </g>
        </g>
    </g>
</svg>
