<svg xmlns="http://www.w3.org/2000/svg" xmlns:xlink="http://www.w3.org/1999/xlink" width="100" height="40" viewBox="0 0 100 40">
    <defs>
        <path id="gcue9evvya" d="M0.106 0.239L11.097 0.239 11.097 9.687 0.106 9.687z"/>
    </defs>
    <g fill="none" fill-rule="evenodd">
        <g>
            <g>
                <path d="M0 0H100V40H0z" transform="translate(-734 -815) translate(734 815)"/>
                <g>
                    <g transform="translate(-734 -815) translate(734 815) translate(0 15) translate(7.977 .046)">
                        <mask id="i7fdo9gn8b" fill="#fff">
                            <use xlink:href="#gcue9evvya"/>
                        </mask>
                        <path fill="#EC1D24" d="M5.617 8.651c-1.67-.013-2.93-1.66-2.89-3.703-.024-2.065 1.223-3.704 2.884-3.711 1.655.008 2.876 1.659 2.907 3.709.047 2.055-1.26 3.709-2.9 3.705M5.647.24C2.186.241.069 2.341.108 4.966c-.027 2.592 2.072 4.707 5.53 4.72 3.447-.006 5.517-2.121 5.459-4.74.066-2.61-2.02-4.705-5.447-4.707" mask="url(#i7fdo9gn8b)"/>
                    </g>
                    <path fill="#EC1D24" d="M29.055.618L19.568.611 19.617 1.671 23.214 1.645 23.23 9.336 25.956 9.32 25.947 1.669 29.057 1.647zM39.439.629L29.953.62 29.964 1.687 33.073 1.664 33.084 9.315 35.796 9.294 35.828 1.676 39.467 1.647zM3.146 8.268c-.289.004-.51-.186-.511-.475L2.633.61H0l.005 7.668c-.028.567.484 1.043 1.064 1.038l6.68-.024-.005-1.01-4.598-.014zM43.66 1.658l5.043-.023.024-1-7.212-.01c-.565.011-1.015.459-1.015 1l-.026 6.663c-.008.575.508 1.033 1.07 1.024l7.149-.015.038-.995-5.088.004c-.262-.022-.486-.249-.512-.528l.028-2.55 5.446-.003.012-1.024-5.532-.011.049-2.02c.014-.283.262-.52.526-.512" transform="translate(-734 -815) translate(734 815) translate(0 15)"/>
                    <path fill="#B3938A" d="M84.963 6.084c1.433-.27 2.079-1.352 2.101-2.698-.01-.868-.239-1.53-.769-2.046-.48-.52-1.261-.804-2.314-.79L76.665.537l.002 8.913 1.726.014.037-7.289 5.173-.03c1.208.042 1.633.36 1.66 1.235-.022.857-.43 1.178-1.633 1.208l-5.442-.01-.006 1.6 4.746-.006 2.524 3.282 2.073-.001-.174-.264-2.388-3.105zM53.14 1.789c-.922.8-1.368 1.92-1.38 3.287.026 1.27.518 2.351 1.453 3.2.87.781 1.984 1.187 3.325 1.171l5.875.01.084-1.612-6.086-.031c-.824-.012-1.43-.232-1.994-.76-.49-.542-.748-1.176-.794-1.986.002-.901.29-1.59.845-2.126.552-.522 1.261-.789 2.185-.795l5.817.025-.02-1.628-5.656-.022C55.282.51 54.042.942 53.14 1.79zm43.987 5.26c-.495.524-1.098.79-1.956.768l-4.636.007-.029-5.675 4.378.007c.919.01 1.631.29 2.185.795.596.543.85 1.23.885 2.126-.06.81-.258 1.457-.827 1.973zm1.343-5.266C97.559.966 96.325.535 94.883.533h-6.098V9.46l6.273.01c1.302-.013 2.425-.416 3.303-1.196.968-.822 1.45-1.909 1.428-3.178l.012-.031c-.012-1.357-.454-2.474-1.33-3.282zM67.364 5.921l2.168-3.724 2.176 3.734-4.344-.01zM70.561.554l-2.02.005-5.15 8.892h1.986l1.14-1.891 6.052-.034 1.155 1.934 1.539-.016h.397l-.114-.185L70.561.554z" transform="translate(-734 -815) translate(734 815) translate(0 15)"/>
                </g>
            </g>
        </g>
    </g>
</svg>
