<svg xmlns="http://www.w3.org/2000/svg" width="42" height="42" viewBox="0 0 42 42">
    <g fill="none" fill-rule="evenodd">
        <g>
            <g>
                <g>
                    <path d="M0 0H42V42H0z" transform="translate(-585 -748) translate(370 633) translate(215 115)"/>
                    <g>
                        <path fill="#8D8682" d="M.058.993c0-.516.419-.935.935-.935H34.63c.516 0 .935.419.935.935v4.271H.058V.993zm0 7.742h35.508v14.684c0 .516-.419.934-.935.934H.993c-.516 0-.935-.418-.935-.934V8.735z" transform="translate(-585 -748) translate(370 633) translate(215 115) translate(3 9)"/>
                        <path fill="#FFF" d="M5.431 13.073c-.516 0-.934.419-.934.935v5.072c0 .516.418.935.934.935h5.233c.516 0 .934-.419.934-.935v-5.072c0-.516-.418-.935-.934-.935H5.43z" transform="translate(-585 -748) translate(370 633) translate(215 115) translate(3 9)"/>
                    </g>
                </g>
            </g>
        </g>
    </g>
</svg>
