<svg xmlns="http://www.w3.org/2000/svg" width="23" height="23" viewBox="0 0 23 23">
    <g fill="none" fill-rule="evenodd">
        <g>
            <g>
                <path d="M0 0H23V23H0z" transform="translate(-122 -664) translate(122 664)"/>
                <g>
                    <path stroke="#282828" stroke-linecap="round" stroke-linejoin="round" stroke-width="1.2" d="M0 6c2.178-4 5.34-6 9.484-6C13.63 0 16.801 2 19 6" transform="translate(-122 -664) translate(122 664) translate(2 7)"/>
                    <g fill="#282828" fill-rule="nonzero">
                        <path d="M4.51.025C2.034.025.024 2.035.024 4.51c0 2.475 2.01 4.485 4.484 4.485 2.475 0 4.485-2.01 4.485-4.485 0-2.474-2.01-4.484-4.485-4.484zM4.17 3.18c-.557 0-1.021.463-1.021 1.02H1.664c.031-1.392 1.144-2.505 2.505-2.505V3.18z" transform="translate(-122 -664) translate(122 664) translate(2 7) translate(5)"/>
                    </g>
                </g>
            </g>
        </g>
    </g>
</svg>
