<svg xmlns="http://www.w3.org/2000/svg" width="58" height="58" viewBox="0 0 58 58">
    <g fill="none" fill-rule="evenodd">
        <g>
            <g>
                <g>
                    <path d="M0 0H58V58H0z" transform="translate(-1274 -705) translate(0 675) translate(1274 30)"/>
                    <g fill="#000" fill-rule="nonzero" stroke="#000" stroke-width=".2" opacity=".77">
                        <path d="M47.103 29.613c-1.894.001-3.602-1.139-4.328-2.888-.726-1.75-.326-3.764 1.013-5.104 1.339-1.34 3.353-1.74 5.103-1.016 1.75.724 2.891 2.432 2.891 4.326-.001 2.584-2.095 4.679-4.679 4.682h0zm0-7.656c-1.203-.002-2.288.722-2.75 1.833-.461 1.111-.208 2.391.643 3.243.85.85 2.13 1.106 3.241.646 1.112-.46 1.837-1.545 1.837-2.748 0-1.641-1.33-2.972-2.97-2.974h0zM22.43 29.613c-1.895.002-3.603-1.138-4.33-2.887-.725-1.75-.326-3.764 1.013-5.104 1.338-1.34 3.353-1.742 5.103-1.017 1.75.724 2.891 2.432 2.891 4.326-.002 2.583-2.094 4.678-4.677 4.682h0zm0-7.656c-1.204-.002-2.29.721-2.751 1.832-.462 1.112-.209 2.392.641 3.243.85.852 2.13 1.107 3.242.647 1.112-.46 1.837-1.545 1.837-2.748 0-1.64-1.329-2.97-2.97-2.974h0z" transform="translate(-1274 -705) translate(0 675) translate(1274 30) translate(2 14)"/>
                        <path d="M53.264 25.785h-2.336c-.472 0-.854-.383-.854-.854 0-.472.382-.854.854-.854h2.094v-4.529c0-.612-.157-1.214-.455-1.749l-4.623-8.288c-.08-.144-.233-.233-.398-.233h-6.3V24.08h2.034c.471 0 .854.383.854.854 0 .472-.383.854-.854.854h-2.888c-.472 0-.854-.382-.854-.854V8.424c0-.472.382-.854.854-.854h7.154c.785 0 1.508.424 1.89 1.109l4.622 8.29c.44.788.67 1.676.671 2.58v4.77c-.001.81-.657 1.464-1.465 1.466h0zM18.605 25.785h-8.188c-.472 0-.854-.383-.854-.854v-6.568c0-.472.382-.854.854-.854.471 0 .854.382.854.854v5.714h7.334c.472 0 .854.382.854.854 0 .471-.382.854-.854.854h0zM10.417 15.333c-.472 0-.854-.382-.854-.854V8.745c0-.472.382-.854.854-.854.471 0 .854.382.854.854v5.737c-.002.47-.384.851-.854.851h0z" transform="translate(-1274 -705) translate(0 675) translate(1274 30) translate(2 14)"/>
                        <path d="M40.392 25.785H26.253c-.471 0-.854-.383-.854-.854 0-.472.383-.854.854-.854h13.285V1.735H11.271v3.517c0 .472-.383.854-.854.854-.472 0-.854-.382-.854-.854V1.578c.001-.857.695-1.55 1.552-1.551h28.58c.856.001 1.55.695 1.551 1.55v23.354c0 .471-.382.854-.854.854h0zM13.793 19.217H2.954c-.472 0-.854-.382-.854-.854s.382-.854.854-.854h10.839c.472 0 .854.382.854.854s-.382.854-.854.854h0z" transform="translate(-1274 -705) translate(0 675) translate(1274 30) translate(2 14)"/>
                        <path d="M22.43 15.333H7.305c-.472 0-.854-.382-.854-.854s.382-.854.854-.854H22.43c.471 0 .854.382.854.854s-.383.854-.854.854h0zM6.835 10.824H.928c-.471 0-.854-.382-.854-.854s.383-.854.854-.854h5.907c.471 0 .854.382.854.854s-.383.854-.854.854zM16.305 6.106H5.879c-.471 0-.854-.382-.854-.854 0-.471.383-.854.854-.854h10.426c.471 0 .854.383.854.854 0 .472-.383.854-.854.854z" transform="translate(-1274 -705) translate(0 675) translate(1274 30) translate(2 14)"/>
                    </g>
                </g>
            </g>
        </g>
    </g>
</svg>
