<svg xmlns="http://www.w3.org/2000/svg" width="50" height="50" viewBox="0 0 50 50">
    <g fill="none" fill-rule="evenodd">
        <g>
            <g>
                <g>
                    <g>
                        <path d="M0 0H50V50H0z" transform="translate(-475 -1054) translate(370 987) translate(104 40) translate(1 27)"/>
                        <g transform="translate(-475 -1054) translate(370 987) translate(104 40) translate(1 27) translate(6 6)">
                            <circle cx="19" cy="19" r="18.05" fill="#282828"/>
                            <path fill="#FFF" fill-rule="nonzero" d="M18.954 0C8.503 0 0 8.503 0 18.954c0 10.45 8.503 18.953 18.954 18.953 10.45 0 18.953-8.503 18.953-18.953C37.907 8.503 29.404 0 18.954 0zm0 36.6c-9.731 0-17.647-7.916-17.647-17.646 0-9.731 7.916-17.647 17.647-17.647 9.73 0 17.646 7.916 17.646 17.647 0 9.73-7.916 17.646-17.646 17.646z"/>
                            <path fill="#FFF" fill-rule="nonzero" d="M37.844 17.625c-.196-2.83-1.002-5.514-2.394-7.977l-.184-.326H13.982C11.235 9.322 9 11.556 9 14.303v4.008h28.891l-.048-.686zm-27.559-.598v-2.724c0-2.039 1.658-3.697 3.697-3.697h20.53c1.079 2.003 1.747 4.159 1.99 6.421H10.286z"/>
                            <path fill="#FFF" fill-rule="nonzero" d="M13.817 11.89c-1.24 0-2.248 1.009-2.248 2.248 0 1.239 1.008 2.247 2.248 2.247 1.239 0 2.247-1.008 2.247-2.247 0-1.24-1.008-2.248-2.247-2.248zm0 3.21c-.531 0-.964-.431-.964-.962 0-.531.433-.963.964-.963.53 0 .963.432.963.963 0 .53-.432.963-.963.963zM18.954 11.89c-1.24 0-2.248 1.009-2.248 2.248 0 1.239 1.008 2.247 2.248 2.247 1.239 0 2.247-1.008 2.247-2.247 0-1.24-1.008-2.248-2.247-2.248zm0 3.21c-.532 0-.964-.431-.964-.962 0-.531.432-.963.964-.963.53 0 .963.432.963.963 0 .53-.432.963-.963.963zM24.09 11.88c-1.245 0-2.258 1.012-2.258 2.258 0 1.245 1.013 2.258 2.258 2.258 1.246 0 2.259-1.013 2.259-2.258 0-1.246-1.013-2.259-2.259-2.259zm0 3.21c-.524 0-.952-.427-.952-.952 0-.526.428-.953.952-.953.525 0 .953.427.953.953 0 .525-.428.952-.953.952zM37.844 17.625l-.041-.598H9.001v18.046l.315.187c2.911 1.724 6.244 2.636 9.637 2.636 10.445 0 18.943-8.498 18.943-18.942 0-.402-.017-.824-.052-1.33zm-18.89 18.987c-3.042 0-6.031-.786-8.669-2.275V18.311h26.313c.009.228.014.439.014.643 0 9.736-7.922 17.658-17.658 17.658z"/>
                            <path fill="#FFF" fill-rule="nonzero" d="M18.632 20.88c-2.478 0-4.494 2.016-4.494 4.495 0 2.478 2.016 4.494 4.494 4.494 2.479 0 4.495-2.016 4.495-4.494 0-2.479-2.016-4.495-4.495-4.495zm0 7.705c-1.77 0-3.21-1.44-3.21-3.21s1.44-3.211 3.21-3.211 3.211 1.44 3.211 3.21c0 1.771-1.44 3.211-3.21 3.211z"/>
                            <path fill="#FFF" fill-rule="nonzero" d="M26.15 31.984l-4.174-4.174c-.25-.25-.658-.25-.908 0s-.25.657 0 .908l4.174 4.174c.125.125.29.188.454.188.164 0 .329-.063.454-.188.25-.25.25-.657 0-.908z"/>
                        </g>
                    </g>
                </g>
            </g>
        </g>
    </g>
</svg>
