<svg xmlns="http://www.w3.org/2000/svg" width="92" height="92" viewBox="0 0 92 92">
    <g fill="none" fill-rule="evenodd">
        <g>
            <g transform="translate(-575 -672) translate(575 672)">
                <circle cx="46" cy="46" r="46"/>
                <g>
                    <path fill="#FAC0FA" d="M31.44 5.986l20.802 18.656v32.797H10.679V24.642l.01-.008c.284-.257 7.202-6.473 20.75-18.648z" transform="translate(18 11) rotate(-20 31.46 31.713)"/>
                    <path fill="#D184D1" d="M22.654 6.957l22.7 20.357v35.79H0v-35.79L22.654 6.957z" transform="translate(18 11)"/>
                    <path fill="#00357B" fill-rule="nonzero" d="M23.174 17.913l.102.036c.614.205 1.11.737 1.11 1.597 0 .698-.327 1.18-.778 1.446-.254.162-.566.26-.93.26v-.014c-.856 0-1.71-.564-1.71-1.692 0-1.171.92-1.735 1.806-1.69.077-.05.202-.002.4.057z" transform="translate(18 11)"/>
                    <path fill="#FFD074" fill-rule="nonzero" stroke="#D184D1" stroke-width=".8" d="M28.44 32.048l-8.306 19.8c-.275.655-.908 1.047-1.575 1.047-1.21 0-2.047-1.236-1.573-2.366l8.308-19.8c.365-.87 1.365-1.28 2.235-.914.868.364 1.277 1.365.912 2.233h0zM19.53 34.732c0-3.293-2.412-5.973-5.378-5.973-2.965 0-5.377 2.68-5.377 5.973 0 3.294 2.412 5.974 5.377 5.974 2.966 0 5.378-2.68 5.378-5.974h0zm-5.378 2.56c-1.064 0-1.964-1.172-1.964-2.56 0-1.387.9-2.56 1.964-2.56 1.065 0 1.965 1.173 1.965 2.56 0 1.388-.9 2.56-1.965 2.56zM31.373 42.297c-2.966 0-5.378 2.68-5.378 5.973 0 3.294 2.412 5.973 5.378 5.973 2.965 0 5.377-2.68 5.377-5.973 0-3.294-2.412-5.973-5.377-5.973zm0 8.533c-1.065 0-1.965-1.172-1.965-2.56 0-1.388.9-2.56 1.965-2.56 1.064 0 1.964 1.172 1.964 2.56 0 1.388-.9 2.56-1.964 2.56z" transform="translate(18 11)"/>
                </g>
            </g>
        </g>
    </g>
</svg>
