<svg xmlns="http://www.w3.org/2000/svg" xmlns:xlink="http://www.w3.org/1999/xlink" width="176" height="90" viewBox="0 0 176 90">
    <defs>
        <path id="nh49qb3bja" d="M0 0.653L59.381 0.653 59.381 47.38 0 47.38z"/>
    </defs>
    <g fill="none" fill-rule="evenodd">
        <g>
            <g>
                <path d="M0 0H176V90H0z" transform="translate(-1069 -2459) translate(1069 2459)"/>
                <g>
                    <g transform="translate(-1069 -2459) translate(1069 2459) translate(58 17) translate(0 .487)">
                        <mask id="jwcvlrc2rb" fill="#fff">
                            <use xlink:href="#nh49qb3bja"/>
                        </mask>
                        <path fill="#231916" d="M52.53 16.4l-31.737 2.046c-.063.003-4.446.23-8.658 4.878C7.72 28.198 3.263 35.926 1.77 41.3c-.67 2.41-.328 3.55.076 4.081.44.58 1.103.606 1.11.606h52.913c.873 0 1.48-.222 1.8-.663.61-.835.172-2.283.168-2.298l-.02-.075c-.043-.215-3.146-15.732-5.287-26.55m3.339 30.979H2.956c-.498 0-1.527-.244-2.22-1.156-.864-1.138-.968-2.92-.307-5.297 1.567-5.646 6.057-13.442 10.676-18.538 4.63-5.11 9.418-5.327 9.62-5.334l31.532-2.032c-.714-3.615-1.291-6.555-1.559-7.973-.93-4.916-2.837-5.003-2.856-5.003H20.13c-.384 0-.696-.312-.696-.696 0-.384.312-.697.696-.697h27.695C48.1.638 50.902.64 52.066 6.79c.28 1.475.893 4.603 1.65 8.426.09.11.148.247.158.4.006.088-.006.172-.03.251 2.097 10.602 5.166 25.949 5.332 26.777.091.314.582 2.181-.382 3.501-.598.819-1.582 1.234-2.925 1.234" mask="url(#jwcvlrc2rb)"/>
                    </g>
                    <path fill="#231916" d="M3.63 56.347c-.177 0-.355-.068-.49-.203-.273-.27-.274-.712-.003-.984L55.332 2.7c.27-.274.712-.274.984-.004.273.272.275.712.003.986L4.124 56.142c-.135.136-.314.205-.493.205" transform="translate(-1069 -2459) translate(1069 2459) translate(58 17)"/>
                    <path fill="#231916" d="M55.788 56.347c-.178 0-.357-.069-.494-.206L3.101 3.682c-.272-.274-.272-.714.002-.986.271-.27.713-.27.984.003l52.195 52.46c.27.273.27.714-.003.985-.135.135-.313.203-.491.203" transform="translate(-1069 -2459) translate(1069 2459) translate(58 17)"/>
                </g>
            </g>
        </g>
    </g>
</svg>
