<svg xmlns="http://www.w3.org/2000/svg" width="54" height="33" viewBox="0 0 54 33">
    <g fill="none" fill-rule="evenodd">
        <g fill="#A49992">
            <g>
                <g>
                    <path d="M136.426 3c-.596 1.82-2.326 3.135-4.367 3.135-2.042 0-3.772-1.316-4.367-3.135h-10.28c-.78 0-1.412.624-1.412 1.394v24.212c0 .77.632 1.394 1.412 1.394h10.28c.595-1.82 2.325-3.135 4.367-3.135 2.041 0 3.771 1.315 4.367 3.135h26.162c.78 0 1.412-.624 1.412-1.394V4.394c0-.77-.632-1.394-1.412-1.394h-26.162zm-2.643-1.58c.003-.772.631-1.42 1.435-1.42h27.519C165.09 0 167 1.896 167 4.235v24.53c0 2.339-1.909 4.235-4.263 4.235h-27.519c-.804 0-1.432-.649-1.435-1.42-.004-.97-.798-1.756-1.776-1.756-.979 0-1.772.785-1.777 1.756-.003.772-.631 1.42-1.435 1.42h-11.532C114.91 33 113 31.104 113 28.765V4.235C113 1.896 114.909 0 117.263 0h11.532c.804 0 1.432.648 1.435 1.42.005.97.798 1.756 1.777 1.756.978 0 1.772-.785 1.776-1.756zM144.51 15c-.633 0-1.218-.152-1.755-.457-.537-.318-.964-.748-1.28-1.288-.317-.54-.475-1.128-.475-1.765s.158-1.219.475-1.745c.316-.54.743-.963 1.28-1.267.537-.319 1.122-.478 1.755-.478.634 0 1.212.16 1.735.478.537.304.963.727 1.28 1.267.317.526.475 1.108.475 1.745s-.158 1.225-.475 1.765c-.303.54-.723.97-1.26 1.288-.536.305-1.121.457-1.755.457zm-1.177 10c-.222 0-.333-.081-.333-.243 0-.08.017-.146.051-.194l9.59-16.32c.085-.162.24-.243.461-.243h2.582l.022.001c.019.001.036.004.052.007.016.002.03.006.044.01.016.005.03.011.044.018.02.01.036.023.051.037.018.008.034.018.047.028.013.011.024.023.032.035.016.024.024.051.024.083 0 .064-.026.137-.077.218l-9.564 16.32c-.085.162-.24.243-.461.243h-2.565zm1.18-12c.413 0 .76-.146 1.04-.44.298-.292.447-.65.447-1.072 0-.407-.149-.756-.446-1.05-.281-.292-.628-.438-1.042-.438-.413 0-.768.146-1.066.439-.297.276-.446.626-.446 1.049 0 .423.14.78.421 1.073.298.293.662.439 1.091.439zm9.997 11c-.633 0-1.218-.152-1.755-.457-.537-.318-.963-.748-1.28-1.288-.317-.54-.475-1.128-.475-1.765s.158-1.219.475-1.745c.317-.54.743-.963 1.28-1.267.537-.319 1.122-.478 1.755-.478.634 0 1.212.16 1.735.478.537.304.963.727 1.28 1.267.317.526.475 1.108.475 1.745s-.158 1.225-.475 1.765c-.303.54-.723.97-1.26 1.288-.536.305-1.121.457-1.755.457zm.002-2c.414 0 .76-.146 1.042-.439.297-.293.446-.65.446-1.073 0-.407-.149-.756-.446-1.049-.281-.293-.628-.439-1.042-.439-.413 0-.768.146-1.066.44-.297.275-.446.625-.446 1.048 0 .423.14.78.422 1.073.297.293.66.439 1.09.439zm-22.07-14c-.796 0-1.442.574-1.442 1.282v1.436c0 .708.646 1.282 1.442 1.282h.116c.796 0 1.442-.574 1.442-1.282V9.282c0-.708-.646-1.282-1.442-1.282h-.116zM131 16.282c0-.708.646-1.282 1.442-1.282h.116c.796 0 1.442.574 1.442 1.282v1.436c0 .708-.646 1.282-1.442 1.282h-.116c-.796 0-1.442-.574-1.442-1.282v-1.436zM132.442 22c-.796 0-1.442.574-1.442 1.282v1.436c0 .708.646 1.282 1.442 1.282h.116c.796 0 1.442-.574 1.442-1.282v-1.436c0-.708-.646-1.282-1.442-1.282h-.116z" transform="translate(-783 -12750) translate(0 12723) translate(670 27)"/>
                </g>
            </g>
        </g>
    </g>
</svg>
