<svg xmlns="http://www.w3.org/2000/svg" width="68" height="68" viewBox="0 0 68 68">
    <g fill="none" fill-rule="evenodd">
        <g>
            <g>
                <path d="M0 0H68V68H0z" transform="translate(-1057 -476) translate(1057 476)"/>
                <g fill-rule="nonzero">
                    <path fill="#282828" stroke="#FFF" d="M45.398 6.264h-4.975c-.447 0-.867-.174-1.183-.49l-4.368-4.368c-.87-.87-2.025-1.348-3.254-1.348H18.392c-1.23 0-2.385.479-3.254 1.348L10.77 5.774c-.316.316-.736.49-1.183.49H4.611c-2.537 0-4.601 2.064-4.602 4.6L0 35.964c0 2.542 2.056 4.603 4.602 4.603h40.796c2.537 0 4.602-2.064 4.602-4.602v-25.1c0-2.54-2.056-4.601-4.602-4.601zm1.672 29.7c0 .923-.75 1.673-1.672 1.673H4.602c-.924 0-1.672-.748-1.672-1.673l.008-25.099c0-.922.751-1.672 1.673-1.672h4.976c1.23 0 2.385-.478 3.255-1.348l4.368-4.368c.315-.315.735-.49 1.182-.49h13.226c.447 0 .867.174 1.182.49l4.368 4.368c.87.87 2.025 1.348 3.255 1.348h4.975c.924 0 1.672.748 1.672 1.673v25.099z" transform="translate(-1057 -476) translate(1057 476) translate(9 13)"/>
                    <path fill="#282828" stroke="#FFF" d="M4.612 3.988h4.137c.81 0 1.465-.656 1.465-1.465 0-.81-.656-1.465-1.465-1.465H4.612c-.809 0-1.465.656-1.465 1.465s.656 1.465 1.465 1.465z" transform="translate(-1057 -476) translate(1057 476) translate(9 13)"/>
                    <path fill="#DF9CDF" stroke="#FFF" d="M25.005 10.97c-5.998 0-10.877 4.88-10.877 10.877 0 5.997 4.88 10.877 10.877 10.877 5.997 0 10.877-4.88 10.877-10.877 0-5.998-4.88-10.877-10.877-10.877z" transform="translate(-1057 -476) translate(1057 476) translate(9 13)"/>
                    <path fill="#FFF" d="M25.222 15.616c-3.615 0-6.555 2.94-6.555 6.555 0 .453.367.82.82.82.452 0 .819-.367.819-.82 0-2.71 2.206-4.916 4.916-4.916.453 0 .82-.367.82-.82 0-.452-.367-.82-.82-.82z" transform="translate(-1057 -476) translate(1057 476) translate(9 13)"/>
                </g>
            </g>
        </g>
    </g>
</svg>
