<svg xmlns="http://www.w3.org/2000/svg" xmlns:xlink="http://www.w3.org/1999/xlink" width="76" height="76" viewBox="0 0 76 76">
    <defs>
        <circle id="ra98lkeiga" cx="37.5" cy="37.5" r="37.5"/>
    </defs>
    <g fill="none" fill-rule="evenodd">
        <g>
            <g>
                <g transform="translate(-1168 -365) translate(370 315) translate(798 50)">
                    <g>
                        <g transform="translate(0 1)">
                            <use fill="#FFF" xlink:href="#ra98lkeiga"/>
                        </g>
                        <path fill="#E0E0E0" d="M33.082 56.909L52.979 78.432 74.975 51.532 49.171 22.662 49.369 24.104 51.402 27.38 53.813 29.615 54.334 34.235 56.125 38 54.334 41.921 54.334 45.737 50.879 49.604 48.567 53.016 44.324 54.184 41.074 56.275 37.114 55.46z" transform="translate(0 1)"/>
                    </g>
                    <circle cx="38" cy="38" r="37.5" stroke="#E0E0E0"/>
                    <g fill-rule="nonzero">
                        <path fill="#E5AFE5" stroke="#FFF" d="M18.515 26.2c-.691 0-1.354-.28-1.834-.78l-4.925-5.122c-.974-1.013-.943-2.624.07-3.598 1.013-.974 2.624-.942 3.598.07l2.965 3.084 5.477-6.504c.905-1.075 2.51-1.212 3.586-.307 1.075.905 1.212 2.51.307 3.585l-7.298 8.667c-.465.552-1.141.88-1.862.904l-.084.002h0z" transform="translate(18 20)"/>
                        <g fill="#282828">
                            <path d="M19.398 4.023c-8.269 0-14.996 6.728-14.996 14.997 0 8.268 6.727 14.996 14.996 14.996 8.27 0 14.997-6.728 14.997-14.996 0-8.27-6.728-14.997-14.997-14.997zm0 28.477c-7.433 0-13.48-6.047-13.48-13.48 0-7.434 6.047-13.481 13.48-13.481 7.434 0 13.481 6.047 13.481 13.48 0 7.434-6.047 13.481-13.48 13.481z" transform="translate(18 20)"/>
                            <path d="M37.761 21.624c.486-.754 1.036-1.609 1.036-2.604 0-.996-.55-1.851-1.036-2.605-.324-.505-.631-.982-.73-1.415-.105-.461-.034-1.04.04-1.655.111-.918.226-1.868-.192-2.733-.425-.88-1.286-1.408-2.045-1.874-.52-.319-1.012-.62-1.298-.978-.288-.36-.475-.909-.673-1.489-.285-.84-.61-1.79-1.37-2.397-.755-.603-1.754-.707-2.634-.8-.613-.064-1.192-.124-1.613-.327-.408-.196-.808-.605-1.232-1.037-.627-.638-1.336-1.362-2.3-1.58-.927-.21-1.822.11-2.687.421-.589.212-1.145.411-1.629.411-.483 0-1.04-.2-1.628-.41-.866-.311-1.76-.633-2.688-.422-.963.219-1.672.942-2.299 1.58-.424.432-.824.84-1.231 1.037-.422.203-1 .263-1.614.327-.88.093-1.879.197-2.635.8-.76.606-1.084 1.558-1.37 2.397-.197.58-.383 1.128-.672 1.49-.286.357-.778.658-1.298.977-.76.466-1.62.993-2.045 1.874-.418.865-.303 1.815-.192 2.733.074.614.145 1.194.04 1.655-.099.433-.406.91-.73 1.415C.55 17.169 0 18.025 0 19.02c0 .995.55 1.85 1.035 2.604.325.505.632.982.73 1.415.105.461.035 1.04-.04 1.655-.11.918-.225 1.868.193 2.733.425.88 1.286 1.408 2.045 1.874.52.319 1.012.62 1.298.978.288.36.475.909.672 1.489.286.84.61 1.79 1.37 2.397.756.603 1.754.707 2.635.8.613.064 1.192.124 1.613.327.407.197.808.605 1.232 1.037.627.638 1.336 1.362 2.3 1.58.926.21 1.821-.11 2.687-.421.589-.212 1.145-.411 1.628-.411.484 0 1.04.2 1.629.41.672.242 1.362.49 2.071.49.204 0 .41-.021.617-.068.962-.219 1.672-.942 2.299-1.58.424-.432.824-.84 1.231-1.037.422-.203 1-.263 1.614-.328.88-.092 1.879-.196 2.635-.8.76-.605 1.084-1.557 1.37-2.396.197-.58.383-1.128.672-1.49.286-.357.778-.658 1.298-.977.759-.466 1.62-.993 2.045-1.874.418-.865.303-1.815.192-2.733-.074-.614-.145-1.194-.04-1.655.099-.433.406-.91.73-1.415zm-1.274-.82c-.381.593-.776 1.207-.933 1.899-.164.718-.074 1.458.012 2.173.09.734.173 1.427-.052 1.892-.232.48-.834.85-1.472 1.24-.609.374-1.238.76-1.69 1.324-.454.569-.692 1.27-.923 1.948-.24.705-.467 1.37-.88 1.7-.41.327-1.108.4-1.848.477-.715.075-1.454.153-2.113.47-.646.311-1.16.834-1.656 1.34-.527.537-1.024 1.044-1.553 1.164-.496.113-1.149-.122-1.84-.37-.685-.246-1.393-.5-2.14-.5-.748 0-1.456.254-2.14.5-.692.248-1.345.483-1.841.37-.529-.12-1.026-.627-1.553-1.163-.497-.507-1.01-1.03-1.656-1.34-.659-.318-1.398-.396-2.113-.47-.74-.078-1.438-.151-1.848-.478-.413-.33-.64-.996-.88-1.7-.23-.678-.47-1.38-.924-1.948-.451-.564-1.08-.95-1.689-1.323-.638-.391-1.24-.76-1.473-1.241-.224-.465-.14-1.158-.052-1.892.087-.715.177-1.455.013-2.173-.157-.692-.552-1.306-.933-1.898-.409-.635-.794-1.235-.794-1.785 0-.55.385-1.15.794-1.786.381-.592.776-1.205.933-1.897.164-.719.074-1.459-.013-2.174-.089-.734-.172-1.427.052-1.892.232-.48.835-.85 1.473-1.24.609-.374 1.238-.76 1.69-1.324.454-.568.692-1.27.923-1.948.24-.705.467-1.37.88-1.7.41-.327 1.108-.4 1.848-.477.715-.075 1.454-.153 2.113-.47.646-.311 1.16-.834 1.656-1.34.526-.537 1.024-1.044 1.553-1.164.496-.113 1.149.122 1.84.37.685.246 1.393.5 2.14.5.747 0 1.456-.254 2.14-.5.692-.248 1.345-.483 1.841-.37.529.12 1.026.627 1.553 1.164.497.506 1.01 1.029 1.656 1.34.659.317 1.398.395 2.113.47.74.077 1.438.15 1.848.477.413.33.64.996.88 1.7.23.678.47 1.38.924 1.948.451.564 1.08.95 1.689 1.323.638.391 1.24.76 1.472 1.241.225.465.141 1.158.052 1.892-.086.715-.176 1.455-.012 2.174.157.692.551 1.305.933 1.897.408.636.794 1.235.794 1.786 0 .55-.386 1.15-.794 1.785z" transform="translate(18 20)"/>
                        </g>
                    </g>
                </g>
            </g>
        </g>
    </g>
</svg>
