<svg xmlns="http://www.w3.org/2000/svg" width="68" height="68" viewBox="0 0 68 68">
    <g fill="none" fill-rule="evenodd">
        <g>
            <g>
                <path d="M0 0H68V68H0z" transform="translate(-1225 -476) translate(1225 476)"/>
                <g>
                    <path fill="#282828" fill-rule="nonzero" stroke="#282828" stroke-width=".4" d="M29.347 1.062c-.405 0-.733.328-.733.733 0 .405.329.734.733.734 6.829 0 12.748 3.122 16.115 7.673l.008.01c2.003 2.711 3.062 5.858 3.063 9.1-.002 6.213-3.85 11.542-9.383 14.425 1.538-2.765 2.249-5.83 2.076-8.937C40.688 14.85 31.286 7.47 20.61 7.47c-1.89 0-3.776.235-5.607.698 2.88-2.834 6.802-4.75 11.044-5.393.4-.06.676-.435.616-.835-.06-.4-.437-.677-.836-.615-4.109.624-7.976 2.35-11.044 5.046-.927.814-1.768 1.711-2.506 2.666-2.281.892-4.381 2.156-6.202 3.757C2.158 16.24 0 20.828 0 25.715c0 3.352 1.039 6.63 3.004 9.477.23.333.686.417 1.02.187.333-.23.417-.687.187-1.02-1.795-2.601-2.744-5.59-2.744-8.644 0-9.241 8.595-16.76 19.159-16.76 10.017 0 18.492 6.844 19.12 15.713.587 8.42-6.084 15.647-14.866 17.39-.066.013.532-.18-10.749 3.502l.978-2.997c.129-.394-.095-.817-.494-.933-3.014-.87-5.764-2.407-7.951-4.443-.297-.276-.761-.26-1.037.037-.276.297-.26.761.037 1.037 2.178 2.027 4.868 3.593 7.819 4.556l-.963 2.95c-.284.872.544 1.685 1.404 1.404l11.285-3.683c4.808-.964 9.376-3.534 12.422-7.458C44.924 33.203 50 26.783 50 19.311c0-3.564-1.16-7.015-3.359-9.98-3.733-5.04-10.128-8.27-17.294-8.27z" transform="translate(-1225 -476) translate(1225 476) translate(9 10)"/>
                    <path fill="#DF9CDF" fill-rule="nonzero" stroke="#DF9CDF" stroke-width=".4" d="M20.626 29.023c-1.761 0-3.193-1.433-3.193-3.194 0-1.76 1.432-3.193 3.193-3.193 1.76 0 3.193 1.433 3.193 3.193 0 1.761-1.432 3.194-3.193 3.194zM10.625 29.023c-1.761 0-3.193-1.433-3.193-3.194 0-1.76 1.432-3.193 3.193-3.193 1.76 0 3.193 1.433 3.193 3.193 0 1.761-1.433 3.194-3.193 3.194zM30.627 29.023c-1.76 0-3.193-1.433-3.193-3.194 0-1.76 1.432-3.193 3.193-3.193 1.76 0 3.193 1.433 3.193 3.193 0 1.761-1.432 3.194-3.193 3.194z" transform="translate(-1225 -476) translate(1225 476) translate(9 10)"/>
                    <path fill="#282828" d="M25.324 3.093c1.707-.25 3.057-.374 4.052-.374.995 0 1.08-.618.256-1.854-1.328-.057-2.8.065-4.415.368-1.615.302-1.58.922.107 1.86zM2.84 35.304c.978 1.318 1.844 2.324 2.598 3.016.753.692 1.268.323 1.546-1.107-1.33-1.37-2.27-2.463-2.82-3.281-.55-.818-.99-.36-1.323 1.372z" transform="translate(-1225 -476) translate(1225 476) translate(9 10)"/>
                </g>
            </g>
        </g>
    </g>
</svg>
