<svg xmlns="http://www.w3.org/2000/svg" width="42" height="42" viewBox="0 0 42 42">
    <g fill="none" fill-rule="evenodd">
        <g>
            <g>
                <path d="M0 0H42V42H0z" transform="translate(-1240 -415) translate(1240 415)"/>
                <g>
                    <path stroke="#8D8682" stroke-width="1.4" d="M2.408 0H21.94c.55 0 .997.446.997.997v1.995h5.683c.623 0 1.171.413 1.343 1.012l1.709 5.984c.2.035.387.131.533.277l1.41 1.41c.187.187.292.44.292.705v6.568c0 .55-.446.997-.997.997h-2.992c0 2.204-1.786 3.99-3.989 3.99s-3.989-1.786-3.989-3.99h-9.973c0 2.204-1.786 3.99-3.989 3.99s-3.989-1.786-3.989-3.99H.997c-.55 0-.997-.446-.997-.997V2.408c0-.265.105-.519.292-.706l1.41-1.41C1.89.105 2.143 0 2.408 0h0zm23.521 17.95c1.102 0 1.995.894 1.995 1.995 0 1.102-.893 1.995-1.995 1.995-1.101 0-1.995-.893-1.995-1.995 0-1.101.894-1.994 1.995-1.994zM5.984 19.946c0 1.102.893 1.995 1.994 1.995 1.102 0 1.995-.893 1.995-1.995 0-1.101-.893-1.994-1.995-1.994-1.101 0-1.994.893-1.994 1.994z" transform="translate(-1240 -415) translate(1240 415) translate(4 9)"/>
                    <path fill="#8D8682" d="M29.593 9.973L28.17 4.986h-5.232v3.99c0 .55.447.997.997.997h5.66z" transform="translate(-1240 -415) translate(1240 415) translate(4 9)"/>
                </g>
            </g>
        </g>
    </g>
</svg>
