<svg xmlns="http://www.w3.org/2000/svg" width="110" height="110" viewBox="0 0 110 110">
    <g fill="none" fill-rule="evenodd">
        <g fill-rule="nonzero">
            <g>
                <g>
                    <g fill="#8D8682">
                        <path d="M68.192 20.47c.002-.116.004-.231.004-.347 0-11.065-8.97-20.035-20.034-20.035-9.535 0-17.514 6.662-19.538 15.585-1.887-1.057-4.06-1.662-6.378-1.662-7.228 0-13.088 5.86-13.088 13.088 0 .296.013.588.033.878C3.824 29.97 0 35.135 0 41.194 0 48.98 6.31 55.29 14.095 55.29h50.269c9.73 0 17.619-7.888 17.619-17.618 0-8.416-5.901-15.453-13.791-17.201z" transform="translate(-905 -359) translate(905 359) translate(14 16)"/>
                    </g>
                    <g>
                        <path fill="#000" d="M55.879 42.729L31.145 1.71C30.52.674 29.398.04 28.187.04c-1.21 0-2.333.633-2.958 1.67L.496 42.729c-.643 1.067-.662 2.397-.05 3.482.613 1.085 1.762 1.756 3.008 1.756h49.467c1.246 0 2.395-.671 3.007-1.756.613-1.085.594-2.415-.05-3.482z" transform="translate(-905 -359) translate(905 359) translate(14 16) translate(14.35 28.7)"/>
                        <path fill="#FFF" d="M28.206 14.229c1.42 0 2.622.801 2.622 2.222 0 4.334-.51 10.562-.51 14.896 0 1.13-1.238 1.603-2.112 1.603-1.165 0-2.149-.474-2.149-1.603 0-4.334-.51-10.562-.51-14.896 0-1.42 1.166-2.222 2.659-2.222zM28.242 41.072c-1.602 0-2.804-1.311-2.804-2.804 0-1.53 1.202-2.805 2.804-2.805 1.494 0 2.768 1.275 2.768 2.805 0 1.493-1.274 2.804-2.768 2.804z" transform="translate(-905 -359) translate(905 359) translate(14 16) translate(14.35 28.7)"/>
                    </g>
                </g>
            </g>
        </g>
    </g>
</svg>
