<svg xmlns="http://www.w3.org/2000/svg" xmlns:xlink="http://www.w3.org/1999/xlink" width="176" height="90" viewBox="0 0 176 90">
    <defs>
        <path id="gn4l7hnqua" d="M0 0L76.547 0 76.547 50.934 0 50.934z"/>
    </defs>
    <g fill="none" fill-rule="evenodd">
        <g>
            <g>
                <path d="M0 0H176V90H0z" transform="translate(-1266 -2459) translate(1266 2459)"/>
                <g transform="translate(-1266 -2459) translate(1266 2459) translate(49 19)">
                    <mask id="75nqferxnb" fill="#fff">
                        <use xlink:href="#gn4l7hnqua"/>
                    </mask>
                    <path fill="#231916" d="M42.912 7.495c-2.51 0-4.964.354-7.291 1.05-2.78.83-5.435 2.17-7.894 3.983l-.245.182 11.806 11.774L54.193 9.618l-.394-.138c-3.767-1.317-7.43-1.985-10.887-1.985zm-2.64 17.971l10.897 10.868.185-.178c3.075-2.972 5.106-6.148 5.562-6.964l.082.507-.082-.507c-.178-1.1-.27-2.204-.27-3.284 0-4.699 1.616-9.227 4.55-12.75l.204-.247-.28-.151c-1.782-.97-3.58-1.824-5.34-2.537l-.16-.064-15.348 15.307zm-14.069-11.73c-3.907 3.309-6.102 6.905-6.682 7.93l-.049.084.019.096c.272 1.34.41 2.707.41 4.062 0 4.587-1.551 9.035-4.366 12.523l-.2.248.282.148c2.102 1.11 4.214 2.051 6.278 2.792l.156.056 16.252-16.209-11.916-11.885-.184.155zM1.39 8.088v35.643l.501.006c9.164 0 16.618-7.999 16.618-17.83 0-9.83-7.454-17.828-16.618-17.828l-.501.009zm73.266-.01c-9.164 0-16.618 7.998-16.618 17.83 0 9.83 7.454 17.829 16.618 17.829l.492-.006.008-.258V8.088l-.5-.01zM23.52 42.177l.42.126c3.162.953 6.258 1.436 9.2 1.436 2.52 0 4.98-.354 7.32-1.054 3.389-1.013 6.571-2.772 9.46-5.228l.218-.183-10.851-10.826L23.52 42.176zm40.6 8.758c-.184 0-.358-.073-.49-.205l-12.49-12.457-.184.159c-3.048 2.609-6.436 4.487-10.075 5.58-2.48.743-5.089 1.12-7.754 1.12-3.365 0-6.918-.606-10.56-1.803l-.153-.05-7.472 7.452c-.131.13-.306.204-.49.204-.187 0-.361-.074-.493-.206-.132-.13-.203-.305-.202-.49 0-.186.071-.36.203-.492l6.996-6.978-.378-.145c-1.976-.758-4.006-1.695-6.033-2.787l-.172-.094-.138.139c-3.36 3.384-7.744 5.247-12.345 5.247-.376 0-.773-.016-1.246-.052L0 45.03V6.786l.645-.048c.473-.036.87-.05 1.246-.05 7.533 0 14.335 5.082 16.922 12.645l.174.505.294-.445c1.119-1.689 3.048-4.209 5.886-6.63l.215-.186-11.42-11.389c-.272-.27-.272-.712-.003-.984.133-.132.307-.204.493-.204.185 0 .36.07.491.201l11.532 11.504.182-.137C29.3 9.59 32.173 8.128 35.2 7.22c2.474-.743 5.075-1.119 7.732-1.119 3.872 0 7.974.798 12.192 2.374l.157.058 8.352-8.33c.13-.13.304-.202.49-.202.187 0 .361.072.493.204.27.272.27.714-.002.984l-7.924 7.904.357.153c1.714.727 3.45 1.576 5.157 2.523l.173.095.138-.136c3.33-3.25 7.64-5.04 12.142-5.04.377 0 .774.015 1.248.051l.643.048v38.243l-.643.047c-.474.036-.87.052-1.248.052-7.925 0-14.835-5.429-17.197-13.508l-.162-.552-.31.482c-.888 1.377-2.411 3.465-4.62 5.604l-.192.186 12.438 12.406c.133.131.204.306.204.492.001.185-.07.36-.202.49-.132.132-.306.206-.493.206z" mask="url(#75nqferxnb)"/>
                </g>
            </g>
        </g>
    </g>
</svg>
