<svg xmlns="http://www.w3.org/2000/svg" width="34" height="34" viewBox="0 0 34 34">
    <g fill="none" fill-rule="evenodd">
        <g>
            <g>
                <path d="M0 0H34V34H0z" transform="translate(-1057 -353) translate(1057 353)"/>
                <g fill-rule="nonzero" stroke-width=".3">
                    <path fill="#524E4B" stroke="#524E4B" d="M30.24 6.71c.084-.084.131-.199.131-.318V.493c0-.12-.047-.234-.132-.318-.084-.085-.199-.132-.318-.132H.45C.2.043 0 .245 0 .493v5.899c0 .249.202.45.45.45 1.233 0 2.231 1 2.231 2.231 0 1.232-.998 2.231-2.23 2.231-.25 0-.451.202-.451.45v5.899c0 .249.202.45.45.45h29.47c.12 0 .235-.047.32-.131.084-.085.131-.2.131-.32v-5.898c0-.119-.047-.234-.132-.318-.084-.085-.199-.132-.318-.132-1.232 0-2.231-.999-2.231-2.23 0-1.233.999-2.232 2.23-2.232.12 0 .235-.047.32-.132zm-.77 5.463v5.03H.9v-5.03c1.54-.225 2.682-1.544 2.682-3.1 0-1.555-1.142-2.875-2.681-3.1V.944h28.57v5.03c-1.54.226-2.68 1.545-2.682 3.1.002 1.555 1.143 2.874 2.681 3.1z" transform="translate(-1057 -353) translate(1057 353) translate(2 8)"/>
                    <path fill="#BBB3AB" stroke="#BBB3AB" d="M18.55 5.73c-.084-.084-.198-.132-.318-.132s-.234.048-.318.132l-6.05 6.05c-.113.113-.157.279-.116.434.042.155.163.277.319.319.155.041.32-.003.435-.117l6.048-6.049c.085-.084.132-.199.132-.318 0-.12-.047-.234-.132-.319h0zM14.253 6.515c0-.885-.718-1.603-1.603-1.603-.886 0-1.603.718-1.603 1.603 0 .886.717 1.604 1.603 1.604.885-.001 1.602-.719 1.603-1.604zm-2.306 0c0-.388.315-.702.703-.702.388 0 .702.314.702.702 0 .388-.314.703-.702.703-.388 0-.702-.315-.703-.703h0zM17.766 10.028c-.649 0-1.234.39-1.482.99-.248.599-.111 1.288.347 1.747.459.459 1.149.596 1.748.348.6-.248.99-.833.99-1.482-.001-.885-.718-1.602-1.603-1.603zm0 2.306c-.285 0-.54-.171-.65-.434-.109-.263-.048-.565.153-.766.2-.201.503-.261.765-.152.263.109.434.365.434.65 0 .387-.315.701-.702.702z" transform="translate(-1057 -353) translate(1057 353) translate(2 8)"/>
                </g>
            </g>
        </g>
    </g>
</svg>
