<svg xmlns="http://www.w3.org/2000/svg" width="110" height="110" viewBox="0 0 110 110">
    <g fill="none" fill-rule="evenodd">
        <g>
            <g>
                <path d="M0 0H110V110H0z" transform="translate(-905 -446) translate(905 446)"/>
                <g fill-rule="nonzero">
                    <path fill="#DF9CDF" d="M96.348 0H87.84c-2.138 0-3.87 1.72-3.87 3.843 0 3.452-2.82 6.25-6.296 6.25-3.477 0-6.295-2.798-6.295-6.25 0-2.122-1.733-3.843-3.87-3.843h-8.51c-5.003 0-9.06 4.028-9.06 8.996v14.537h8.277v20.22c0 1.798 1.468 3.256 3.28 3.256h32.357c1.811 0 3.28-1.458 3.28-3.256v-20.22h8.276V8.996c0-4.968-4.057-8.996-9.06-8.996z" opacity=".409" transform="translate(-905 -446) translate(905 446) translate(1.88 9.402)"/>
                    <g>
                        <g fill="#DF9CDF">
                            <path d="M19.267.034L22.555 22.984 28.97 22.984 32.258.034zM41.038.034L37.75 22.984 46.242 22.984 51.403.034zM10.488.034L.122.034 4.758 22.984 13.775 22.984z" transform="translate(-905 -446) translate(905 446) translate(1.88 9.402) translate(0 15.578) translate(26.956 22.62)"/>
                        </g>
                        <g fill="#282828">
                            <path d="M88.875 13.787c-.358-.422-.884-.666-1.438-.666H18.399L16.065 1.565c-.178-.88-.95-1.512-1.848-1.512H1.915C.874.053.03.897.03 1.938s.844 1.885 1.885 1.885h10.76l11.457 56.725c-1.767 1.533-2.886 3.794-2.886 6.313 0 4.606 3.742 8.353 8.342 8.353 4.6 0 8.343-3.747 8.343-8.353 0-1.69-.504-3.266-1.37-4.583h26.138c-.866 1.317-1.37 2.892-1.37 4.583 0 4.606 3.742 8.353 8.343 8.353 4.6 0 8.342-3.747 8.342-8.353 0-1.717-.52-3.314-1.41-4.643.811-.21 1.41-.947 1.41-1.825 0-1.04-.843-1.885-1.885-1.885H27.566l-.681-3.37h47.804c4.638 0 8.555-3.321 9.314-7.897l5.293-31.927c.091-.546-.063-1.104-.421-1.527zM34.16 66.861c0 2.527-2.051 4.583-4.572 4.583-2.522 0-4.573-2.056-4.573-4.583s2.051-4.583 4.573-4.583c2.521 0 4.572 2.056 4.572 4.583zm35.51 4.583c-2.52 0-4.572-2.056-4.572-4.583s2.051-4.583 4.573-4.583c2.521 0 4.573 2.056 4.573 4.583s-2.052 4.583-4.573 4.583zm10.613-24.82c-.456 2.749-2.808 4.744-5.595 4.744H26.124L19.16 16.89h66.054l-4.93 29.733z" transform="translate(-905 -446) translate(905 446) translate(1.88 9.402) translate(0 15.578)"/>
                        </g>
                    </g>
                </g>
            </g>
        </g>
    </g>
</svg>
