<svg xmlns="http://www.w3.org/2000/svg" width="40" height="43" viewBox="0 0 40 43">
    <g fill="none" fill-rule="evenodd">
        <g fill="#A49992">
            <g>
                <g>
                    <path d="M134.862 3.022c-1.074-1.363-3.262-1.363-4.337 0-1.302 1.65-.034 3.978 2.169 3.978H138l-3.138-3.978zm-6.277-.972c-1.267 1.733-1.226 3.837-.312 5.45h-5.747c-1.433 0-2.58 1.195-2.524 2.63l.262 6.823c.029.758.498 1.399 1.156 1.678l1.153 21.97c.07 1.344 1.18 2.399 2.522 2.399h29.81c1.343 0 2.451-1.055 2.522-2.4l1.153-21.97c.658-.278 1.127-.919 1.156-1.677l.262-6.822c.055-1.436-1.09-2.63-2.524-2.63h-5.747c.914-1.614.955-3.718-.312-5.451-2-2.733-6.07-2.733-8.069 0L140 6.625l-3.346-4.575c-1.999-2.733-6.07-2.733-8.069 0zM142 7H147.306c2.203 0 3.471-2.327 2.169-3.978-1.075-1.363-3.263-1.363-4.337 0L142 7zm4 3v6h11.752l.248-6h-10.517H146zm-23 0h12v6h-11.752L123 10zm14 0v6h7v-6h-7zm-13 8l1.164 22H135V18h-11zm19 0v22h-6V18h6zm2 22h9.836L156 18h-11v22z" transform="translate(-490 -12745) translate(0 12723) translate(370 22)"/>
                </g>
            </g>
        </g>
    </g>
</svg>
