<svg xmlns="http://www.w3.org/2000/svg" width="50" height="50" viewBox="0 0 50 50">
    <g fill="none" fill-rule="evenodd">
        <g>
            <g>
                <g>
                    <g>
                        <path d="M0 0H50V50H0z" transform="translate(-843 -1054) translate(370 987) translate(104 40) translate(369 27)"/>
                        <g fill="#000" fill-rule="nonzero">
                            <path d="M8.821 11.568h1.358c1.124 0 2.035-.912 2.035-2.036V6.818c0-1.125-.911-2.036-2.035-2.036H8.82c-1.124 0-2.035.911-2.035 2.036v2.714c0 1.124.911 2.036 2.035 2.036z" transform="translate(-843 -1054) translate(370 987) translate(104 40) translate(369 27) translate(6 13)"/>
                            <path d="M37.321.032H.68C.304.032 0 .336 0 .71v23.072c0 .374.304.678.679.678H18.32V2.746c0-.375.304-.678.679-.678.375 0 .679.303.679.678V24.46H37.32c.375 0 .679-.303.679-.678V.71c0-.374-.304-.678-.679-.678zM5.43 6.818c.002-1.873 1.52-3.391 3.392-3.393h1.358c1.872.002 3.39 1.52 3.392 3.393v2.714c-.002 1.873-1.52 3.39-3.392 3.393H8.82c-1.872-.003-3.39-1.52-3.392-3.393V6.818zm10.178 14.25c0 .374-.304.678-.678.678h-3.194c-.374 0-.678-.304-.678-.678 0-.375.303-.68.678-.68h2.515v-2.713c.041-1.08-.797-1.989-1.876-2.036H6.626c-1.079.047-1.917.957-1.876 2.036v3.393c0 .374-.304.678-.679.678-.374 0-.678-.304-.678-.678v-3.393c-.041-1.829 1.405-3.346 3.233-3.393h5.748c1.828.047 3.274 1.564 3.233 3.393v3.393zm19-3.393H28.5c-.375 0-.679-.304-.679-.679 0-.375.304-.678.679-.678h6.107c.375 0 .679.303.679.678 0 .375-.304.679-.679.679zm0-4.072H22.393c-.375 0-.679-.304-.679-.678 0-.375.304-.679.679-.679h12.214c.375 0 .679.304.679.679 0 .374-.304.678-.679.678zm0-4.071H22.393c-.375 0-.679-.304-.679-.679 0-.375.304-.678.679-.678h12.214c.375 0 .679.303.679.678 0 .375-.304.679-.679.679zm0-4.072H22.393c-.375 0-.679-.303-.679-.678 0-.375.304-.679.679-.679h12.214c.375 0 .679.304.679.679 0 .375-.304.678-.679.678z" transform="translate(-843 -1054) translate(370 987) translate(104 40) translate(369 27) translate(6 13)"/>
                        </g>
                    </g>
                </g>
            </g>
        </g>
    </g>
</svg>
