<svg xmlns="http://www.w3.org/2000/svg" width="68" height="68" viewBox="0 0 68 68">
    <g fill="none" fill-rule="evenodd">
        <g>
            <g>
                <g>
                    <path d="M0 0H68V68H0z" transform="translate(-388 -833) translate(370 815) translate(18 18)"/>
                    <g fill-rule="nonzero">
                        <path fill="#000" d="M43.582 6.013h-4.776c-.43 0-.832-.167-1.136-.47L33.477 1.35C32.643.515 31.533.056 30.353.056H17.656c-1.18 0-2.29.46-3.124 1.294L10.34 5.543c-.303.303-.706.47-1.135.47H4.426C1.991 6.013.01 7.994.008 10.43L0 34.525c0 2.44 1.974 4.42 4.418 4.42h39.164c2.436 0 4.418-1.983 4.418-4.419V10.431c0-2.44-1.974-4.418-4.418-4.418z" transform="translate(-388 -833) translate(370 815) translate(18 18) translate(10 14)"/>
                        <path fill="#8D8682" d="M4.428 3.828h3.971c.777 0 1.407-.63 1.407-1.406 0-.777-.63-1.406-1.407-1.406H4.428c-.777 0-1.407.63-1.407 1.406 0 .777.63 1.406 1.407 1.406z" transform="translate(-388 -833) translate(370 815) translate(18 18) translate(10 14)"/>
                        <path fill="#FFF" d="M24.005 10.53c-5.758 0-10.442 4.685-10.442 10.443 0 5.757 4.684 10.442 10.442 10.442 5.757 0 10.442-4.685 10.442-10.442 0-5.758-4.685-10.442-10.442-10.442z" transform="translate(-388 -833) translate(370 815) translate(18 18) translate(10 14)"/>
                        <path fill="#8D8682" stroke="#8D8682" stroke-width=".5" d="M24.213 14.991c-3.47 0-6.293 2.823-6.293 6.294 0 .434.352.786.787.786.434 0 .786-.352.786-.786 0-2.603 2.118-4.72 4.72-4.72.435 0 .787-.353.787-.787 0-.434-.352-.787-.787-.787z" transform="translate(-388 -833) translate(370 815) translate(18 18) translate(10 14)"/>
                    </g>
                </g>
            </g>
        </g>
    </g>
</svg>
