<svg xmlns="http://www.w3.org/2000/svg" width="47" height="41" viewBox="0 0 47 41">
    <g fill="none" fill-rule="evenodd">
        <g fill="#A49992">
            <g>
                <g>
                    <path d="M126.857 0h27.286L164 10.62 140.5 41 117 10.62 126.857 0zm.57 3L121 10h9.165L133 3h-5.574zm9.336 0L134 10h14l-2.763-7h-8.474zM148 3l2.835 7H160l-6.426-7H148zm12 8h-9.412L144 32l16-21zm-19 24l7-22h-14l7 22zm-10.588-24L137 32l-16-21h9.412z" transform="translate(-1087 -12746) translate(0 12723) translate(970 23)"/>
                </g>
            </g>
        </g>
    </g>
</svg>
