<svg xmlns="http://www.w3.org/2000/svg" width="42" height="42" viewBox="0 0 42 42">
    <g fill="none" fill-rule="evenodd">
        <g>
            <g>
                <g>
                    <path d="M0 0H42V42H0z" transform="translate(-762 -748) translate(370 633) translate(392 115)"/>
                    <g>
                        <path fill="#8D8682" d="M9.63 0c-.184 0-.333.149-.333.333v13.97c0 .184.15.333.333.333H23.6c.185 0 .334-.149.334-.332V.333c0-.184-.15-.333-.333-.333H9.63zM17.696 17.364c-.183 0-.332.149-.332.332v13.971c0 .184.149.333.332.333h13.971c.184 0 .333-.149.333-.333v-13.97c0-.184-.149-.333-.333-.333h-13.97zM.333 17.364c-.184 0-.333.149-.333.332v13.971c0 .184.149.333.333.333h13.97c.184 0 .333-.149.333-.333v-13.97c0-.184-.149-.333-.332-.333H.333z" transform="translate(-762 -748) translate(370 633) translate(392 115) translate(5 5)"/>
                        <path fill="#FFF" d="M27.094 28.341c.183 0 .332-.149.332-.333v-1.164c0-.184-.149-.333-.332-.333H22.27c-.184 0-.332.15-.332.333v1.164c0 .184.148.333.332.333h4.824zM9.73 28.341c.183 0 .332-.149.332-.333v-1.164c0-.184-.149-.333-.332-.333H4.906c-.183 0-.332.15-.332.333v1.164c0 .184.149.333.332.333H9.73zM19.027 10.977c.184 0 .333-.149.333-.333V9.48c0-.183-.15-.332-.333-.332h-4.823c-.184 0-.333.149-.333.332v1.164c0 .184.149.333.333.333h4.823z" transform="translate(-762 -748) translate(370 633) translate(392 115) translate(5 5)"/>
                    </g>
                </g>
            </g>
        </g>
    </g>
</svg>
