<svg xmlns="http://www.w3.org/2000/svg" width="50" height="50" viewBox="0 0 50 50">
    <g fill="none" fill-rule="evenodd">
        <g>
            <g>
                <g>
                    <g>
                        <path d="M0 0H50V50H0z" transform="translate(-1027 -1054) translate(370 987) translate(104 40) translate(553 27)"/>
                        <g fill="#000" fill-rule="nonzero">
                            <path d="M23.2 25.6v-2.4c0-.442-.358-.8-.8-.8H.8c-.442 0-.8.358-.8.8v2.4c0 1.767 1.433 3.2 3.2 3.2h24c.442 0 .8-.358.8-.8v-.8h-3.2c-.884 0-1.6-.716-1.6-1.6z" transform="translate(-1027 -1054) translate(370 987) translate(104 40) translate(553 27) translate(7 11)"/>
                            <path d="M27.2 0H4.8c-.442 0-.8.358-.8.8v20h18.4c.144 0 .28.04.4.112v-.072c1.133.192 2 1.174 2 2.36v2.4H28V.8c0-.442-.358-.8-.8-.8zm-4.8 17.6H9.6c-.442 0-.8-.358-.8-.8 0-.442.358-.8.8-.8h12.8c.442 0 .8.358.8.8 0 .442-.358.8-.8.8zm0-4H9.6c-.442 0-.8-.358-.8-.8 0-.442.358-.8.8-.8h12.8c.442 0 .8.358.8.8 0 .442-.358.8-.8.8zm0-4H9.6c-.442 0-.8-.358-.8-.8 0-.442.358-.8.8-.8h12.8c.442 0 .8.358.8.8 0 .442-.358.8-.8.8zm0-4H9.6c-.442 0-.8-.358-.8-.8 0-.442.358-.8.8-.8h12.8c.442 0 .8.358.8.8 0 .442-.358.8-.8.8zM31.2 28c0 .442.358.8.8.8h3.2c.442 0 .8-.358.8-.8v-7.2h-4.8V28zM35.916 3.642l-1.6-3.2C34.18.172 33.903 0 33.6 0s-.58.171-.716.442l-1.6 3.2c-.055.111-.084.234-.084.358v15.2H36V4c0-.124-.029-.247-.084-.358z" transform="translate(-1027 -1054) translate(370 987) translate(104 40) translate(553 27) translate(7 11)"/>
                        </g>
                    </g>
                </g>
            </g>
        </g>
    </g>
</svg>
