<svg xmlns="http://www.w3.org/2000/svg" width="45" height="45" viewBox="0 0 45 45">
    <g fill="none" fill-rule="evenodd">
        <g>
            <g>
                <path d="M0 0H45V45H0z" transform="translate(-86 -474) translate(86 474)"/>
                <g fill="#FFF" fill-rule="nonzero">
                    <path d="M11.5 3.286c-3.623 0-6.571 2.948-6.571 6.571 0 3.624 2.948 6.572 6.571 6.572 3.623 0 6.571-2.948 6.571-6.572 0-3.623-2.948-6.571-6.571-6.571z" transform="translate(-86 -474) translate(86 474) translate(11 13)"/>
                    <path d="M20.785 6.597C19.445 2.82 15.864.067 11.656 0c-4.42-.063-8.098 2.735-9.45 6.597C.97 6.729 0 7.766 0 9.036v1.643c0 1.359 1.105 2.464 2.464 2.464h1.518c-.442-1.008-.696-2.116-.696-3.286 0-1.065.213-2.185.696-3.285C5.247 3.676 8.13 1.599 11.63 1.644c4.48.07 8.083 3.797 8.083 8.213 0 4.45-3.634 8.215-8.214 8.215-.454 0-.821.367-.821.821 0 .454.367.821.821.821 4.292 0 7.942-2.761 9.292-6.597C22.029 12.987 23 11.95 23 10.68V9.036c0-1.274-.975-2.312-2.215-2.44z" transform="translate(-86 -474) translate(86 474) translate(11 13)"/>
                </g>
            </g>
        </g>
    </g>
</svg>
