<svg xmlns="http://www.w3.org/2000/svg" xmlns:xlink="http://www.w3.org/1999/xlink" width="130" height="35" viewBox="0 0 130 35">
    <defs>
        <path id="ogh9fjllga" d="M0.047 0.049L7.554 0.049 7.554 13.884 0.047 13.884z"/>
    </defs>
    <g fill="none" fill-rule="evenodd">
        <g>
            <g>
                <path d="M0 0H130V35H0z" transform="translate(-1048 -245) translate(1048 245)"/>
                <g>
                    <path fill="#C74C4C" d="M1.577.079L0 .422v13.25h1.577V.08zm.566 8.76l4.148 5.074 1.218-.943-3.515-4.217L7.03 4.948l-1.234-.891-3.652 4.782z" transform="translate(-1048 -245) translate(1048 245) translate(29 8)"/>
                    <g>
                        <path fill="#C74C4C" d="M3.023 12.53c.216 0 .44-.029.674-.086.233-.057.466-.132.7-.223.233-.092.453-.203.657-.334.205-.132.387-.272.547-.42V9.272H3.96c-.83 0-1.436.143-1.818.429-.38.286-.571.737-.571 1.354 0 .983.483 1.475 1.45 1.475m-2.96-1.406c0-.949.318-1.672.953-2.169.634-.497 1.557-.746 2.768-.746H5.6v-.6c0-1.451-.641-2.176-1.921-2.176-.41 0-.843.057-1.294.171-.452.114-.866.257-1.243.429L.68 4.918c.469-.263.974-.465 1.518-.609.542-.142 1.071-.214 1.585-.214 2.217 0 3.325 1.183 3.325 3.549v6H5.943l-.188-1.029c-.47.377-.97.668-1.5.874-.532.206-1.037.309-1.518.309-.834 0-1.488-.237-1.962-.712-.474-.474-.712-1.128-.712-1.962" transform="translate(-1048 -245) translate(1048 245) translate(29 8) translate(8.842 .03)"/>
                        <g transform="translate(-1048 -245) translate(1048 245) translate(29 8) translate(8.842 .03) translate(9.868)">
                            <mask id="lfklvuj0zb" fill="#fff">
                                <use xlink:href="#ogh9fjllga"/>
                            </mask>
                            <path fill="#C74C4C" d="M5.84 4.027l1.235.891L4.04 8.724l3.513 4.217-1.216.943L2.19 8.809l3.65-4.782zm-4.216 9.616H.047V.393L1.624.049v13.594z" mask="url(#lfklvuj0zb)"/>
                        </g>
                        <path fill="#C74C4C" d="M21.78 12.53c.215 0 .44-.029.674-.086.233-.057.466-.132.7-.223.233-.092.452-.203.657-.334.204-.132.386-.272.546-.42V9.272h-1.638c-.832 0-1.438.143-1.819.429-.381.286-.57.737-.57 1.354 0 .983.482 1.475 1.45 1.475m-2.96-1.406c0-.949.317-1.672.951-2.169.635-.497 1.557-.746 2.769-.746h1.817v-.6c0-1.451-.64-2.176-1.92-2.176-.412 0-.842.057-1.294.171-.452.114-.866.257-1.243.429l-.463-1.115c.47-.263.975-.465 1.517-.609.542-.142 1.071-.214 1.586-.214 2.216 0 3.326 1.183 3.326 3.549v6h-1.167l-.188-1.029c-.469.377-.968.668-1.5.874-.531.206-1.037.309-1.517.309-.835 0-1.489-.237-1.963-.712-.474-.474-.71-1.128-.71-1.962M32.21 5.38c-.822 0-1.454.31-1.893.927-.441.617-.661 1.52-.661 2.708 0 1.178.22 2.066.66 2.666.44.6 1.072.9 1.895.9.833 0 1.47-.3 1.911-.9.44-.6.66-1.488.66-2.666 0-1.188-.22-2.091-.66-2.708-.44-.618-1.078-.926-1.911-.926m0-1.269c1.302 0 2.325.423 3.067 1.269.744.846 1.115 2.057 1.115 3.634 0 1.554-.368 2.749-1.106 3.583-.736.834-1.763 1.251-3.076 1.251-1.303 0-2.326-.417-3.068-1.25-.744-.835-1.115-2.03-1.115-3.584 0-1.577.373-2.788 1.122-3.634.75-.846 1.77-1.269 3.06-1.269M41.26 12.003c.325.019.6.053.874.047 1.11-.023 1.867-.538 2.189-1.543.35-1.094.354-2.214.056-3.32-.196-.727-.675-1.21-1.459-1.227-.446-.01-.895.107-1.341.177-.243.037-.327.178-.325.437.013 1.694.007 3.388.007 5.082v.347zm-.46-7.097c.495-.46 1.002-.802 1.605-.949 1.916-.464 3.887.119 4.53 2.505.463 1.715.469 3.433-.296 5.08-.805 1.733-2.537 2.67-4.44 2.448-.3-.035-.6-.077-.938-.122v.347c0 .972-.008 1.943.004 2.915.004.25-.072.33-.324.325-.667-.016-1.334-.013-2-.001-.228.004-.318-.055-.317-.301.006-4.258.006-8.516 0-12.774 0-.225.071-.302.293-.297.438.012.876.013 1.314 0 .196-.006.296.068.351.25.055.18.133.351.219.574zM57.646 4.448l2.286-.616c.09-.024.181-.04.307-.067l2.134 7.361.07.005 2.12-7.414 2.56.714c-.222.614-.43 1.194-.642 1.772-.875 2.392-1.737 4.79-2.634 7.174-.448 1.189-1.035 2.316-1.894 3.267-.41.454-.894.842-1.362 1.277l-1.66-1.53c.203-.192.402-.344.556-.533.484-.597.95-1.209 1.425-1.813.14-.177.126-.353.05-.56-1.073-2.906-2.139-5.816-3.206-8.725-.033-.088-.063-.177-.11-.312M54.109 9.484c-.666.034-1.298.018-1.914.11-.894.132-1.278.664-1.207 1.531.039.468.328.775.797.825.805.085 1.523-.16 2.183-.6.067-.045.133-.147.135-.224.011-.522.006-1.045.006-1.642m-.03-1.648c.153-1.122-.424-1.817-1.503-1.806-.462.005-.93.066-1.383.162-.453.096-.89.267-1.377.418l-.462-1.122c-.26-.633-.264-.641.342-.94 1.356-.665 2.777-.924 4.269-.602 1.414.305 2.328 1.321 2.508 2.762.04.32.06.644.061.967.006 1.896.003 3.792.003 5.687v.379c-.594 0-1.162.005-1.73-.009-.06-.001-.142-.106-.174-.18-.077-.182-.13-.374-.201-.585-.196.122-.37.235-.548.34-.849.495-1.743.798-2.746.676-1.526-.187-2.447-1.153-2.5-2.692-.016-.45.016-.923.138-1.353.322-1.132 1.193-1.695 2.278-1.916.638-.13 1.302-.139 1.956-.182.35-.023.702-.004 1.068-.004" transform="translate(-1048 -245) translate(1048 245) translate(29 8) translate(8.842 .03)"/>
                    </g>
                </g>
            </g>
        </g>
    </g>
</svg>
