<svg xmlns="http://www.w3.org/2000/svg" width="50" height="50" viewBox="0 0 50 50">
    <g fill="none" fill-rule="evenodd">
        <g>
            <g>
                <g>
                    <g>
                        <path d="M0 0H50V50H0z" transform="translate(-1395 -1054) translate(370 987) translate(104 40) translate(921 27)"/>
                        <path fill="#000" fill-rule="nonzero" d="M16.951 9.721c1.54 0 2.787 1.248 2.787 2.787v2.788h-2.787c-1.54 0-2.787-1.248-2.787-2.788 0-1.539 1.248-2.787 2.787-2.787zM9.861 21.77h10.327v19.794H9.861V21.77zm19.282 0h10.328v19.794H29.143V21.77zm-8.994-.983H9v-4.18h11.15v4.18zm8.994-8.279c0-1.539 1.248-2.787 2.787-2.787 1.54 0 2.787 1.248 2.787 2.787 0 1.54-1.247 2.788-2.787 2.788h-2.787v-2.788zm-1.66 28.773H21.91V21.77h5.575v19.51zm0-20.494H21.91v-4.18h5.575v4.18zm.534-8.606v2.787H21.05v-3.484C21.049 9.56 22.609 8 24.533 8s3.484 1.56 3.484 3.484v.697zm11.578 8.606H29.143v-4.18h11.15v4.18h-.698z" transform="translate(-1395 -1054) translate(370 987) translate(104 40) translate(921 27)"/>
                    </g>
                </g>
            </g>
        </g>
    </g>
</svg>
