<svg xmlns="http://www.w3.org/2000/svg" width="42" height="42" viewBox="0 0 42 42">
    <g fill="none" fill-rule="evenodd">
        <g>
            <g>
                <path d="M0 0H42V42H0z" transform="translate(-1179 -415) translate(1179 415)"/>
                <g>
                    <path stroke="#8D8682" stroke-width="1.4" d="M9.028 0c-.172 0-.312.14-.312.312V13.41c0 .172.14.311.312.311h13.098c.172 0 .312-.14.312-.311V.312c0-.172-.14-.312-.312-.312H9.028zM16.59 16.279c-.172 0-.311.14-.311.311v13.098c0 .172.14.312.311.312h13.098c.172 0 .312-.14.312-.312V16.59c0-.172-.14-.311-.312-.311H16.59zM.312 16.279c-.172 0-.312.14-.312.311v13.098c0 .172.14.312.312.312H13.41c.172 0 .311-.14.311-.312V16.59c0-.172-.14-.311-.311-.311H.312z" transform="translate(-1179 -415) translate(1179 415) translate(6 6)"/>
                    <path fill="#8D8682" d="M25.4 26.57c.172 0 .312-.14.312-.312v-1.092c0-.172-.14-.312-.312-.312h-4.522c-.172 0-.311.14-.311.312v1.092c0 .172.14.312.311.312H25.4zM9.122 26.57c.172 0 .311-.14.311-.312v-1.092c0-.172-.14-.312-.311-.312H4.6c-.172 0-.312.14-.312.312v1.092c0 .172.14.312.312.312h4.522zM17.838 10.291c.172 0 .312-.14.312-.312V8.888c0-.173-.14-.312-.312-.312h-4.522c-.172 0-.312.14-.312.312v1.091c0 .172.14.312.312.312h4.522z" transform="translate(-1179 -415) translate(1179 415) translate(6 6)"/>
                </g>
            </g>
        </g>
    </g>
</svg>
