<svg xmlns="http://www.w3.org/2000/svg" xmlns:xlink="http://www.w3.org/1999/xlink" width="92" height="92" viewBox="0 0 92 92">
    <defs>
        <path id="hf74rwlssa" d="M2.933 1.297C2.821.87 2.722.44 2.63 0L.034 10.646l.2 2.434c.435 5.189 2.664 10.064 6.304 13.788L21.2 21.326c-.08-.025-.163-.043-.242-.07C12.067 17.922 5.347 10.48 2.933 1.297z"/>
    </defs>
    <g fill="none" fill-rule="evenodd">
        <g>
            <g transform="translate(-797 -672) translate(797 672)">
                <circle cx="46" cy="46" r="46"/>
                <g transform="translate(16 16)">
                    <path fill="#E576E5" fill-rule="nonzero" d="M29.865 24.883c-7.734-7.734-16.216-11.792-18.944-9.065-.3.314-.52.694-.643 1.11l-.044-.044L7.63 27.562 5.034 38.207 1.96 50.813.012 58.797l11.527-4.362L26.2 48.887l11.697-4.426-.014-.014c.391-.124.75-.336 1.048-.62 2.728-2.728-1.33-11.209-9.066-18.944z"/>
                    <ellipse cx="24.926" cy="29.819" fill="#F8E4F8" fill-rule="nonzero" rx="19.806" ry="6.985" transform="rotate(-135 24.926 29.82)"/>
                    <g fill="#FFD074" fill-rule="nonzero">
                        <path d="M30.698 31.06c-.12 0-.238-.021-.35-.063-5.067-1.897-10.543-2.43-15.88-1.542l-3.564.593c-.546.078-1.051-.301-1.129-.847-.075-.527.277-1.02.8-1.12l3.565-.6c5.683-.943 11.513-.377 16.908 1.642.519.187.788.758.602 1.277-.144.4-.527.666-.952.66zM12.735 25.073c-.551-.003-.995-.453-.992-1.004.002-.38.22-.727.563-.892l20.956-9.98c.498-.237 1.094-.025 1.33.473.238.497.026 1.093-.471 1.33l-20.957 9.979c-.134.063-.28.095-.429.094zM1.065 23.077c-.131 0-.262-.026-.383-.077-.508-.212-.749-.796-.537-1.305l1.451-3.482C3.83 12.88 4.35 6.983 3.086 1.34c-.13-.536.2-1.075.736-1.204.536-.13 1.075.2 1.204.735l.008.036c1.353 6.045.795 12.361-1.597 18.075l-1.452 3.482c-.154.372-.517.614-.92.614z" transform="translate(18.212 5.863)"/>
                    </g>
                    <circle cx="29.949" cy="10.977" r="1.996" fill="#DF9CDF" fill-rule="nonzero"/>
                    <path fill="#7FCCCB" fill-rule="nonzero" d="M20.968 3.992c-1.102 0-1.996-.894-1.996-1.996C18.972.894 19.866 0 20.968 0c1.102 0 1.996.894 1.996 1.996 0 1.102-.894 1.996-1.996 1.996z"/>
                    <circle cx="53.899" cy="38.919" r="1.996" fill="#972697" fill-rule="nonzero"/>
                    <g fill="#972697" fill-rule="nonzero">
                        <path d="M4.003 7.983c-.55 0-.998-.446-.998-.998v-.997c0-.552.447-.998.998-.998.551 0 .998.446.998.998v.997c0 .552-.446.998-.998.998zM4.003 2.994c-.55 0-.998-.447-.998-.998V.998c0-.551.447-.998.998-.998.551 0 .998.447.998.998v.998c0 .55-.446.998-.998.998zM6.997 4.99h-.998c-.551 0-.998-.447-.998-.998 0-.551.447-.998.998-.998h.998c.551 0 .998.447.998.998 0 .55-.447.998-.998.998zM2.007 4.99H1.01c-.552 0-.998-.447-.998-.998 0-.551.446-.998.998-.998h.997c.552 0 .998.447.998.998 0 .55-.446.998-.998.998z" transform="translate(36.906 5)"/>
                    </g>
                    <g transform="translate(5 27.642)">
                        <mask id="eu0hemj7rb" fill="#fff">
                            <use xlink:href="#hf74rwlssa"/>
                        </mask>
                        <use fill="#ED9FED" fill-rule="nonzero" xlink:href="#hf74rwlssa"/>
                        <g fill="#70594D" mask="url(#eu0hemj7rb)">
                            <g transform="translate(0 3.358)">
                                <circle cx="2.3" cy="3.3" r="1"/>
                                <circle cx="3.3" cy="18.3" r="1"/>
                                <circle cx="10.3" cy="15.3" r="1"/>
                                <circle cx="3.3" cy=".3" r="1"/>
                                <circle cx="4.3" cy="15.3" r="1"/>
                                <circle cx="11.3" cy="12.3" r="1"/>
                                <circle cx="4.3" cy="4.3" r="1"/>
                                <circle cx="5.3" cy="19.3" r="1"/>
                                <circle cx="12.3" cy="16.3" r="1"/>
                                <circle cx="2.3" cy="5.3" r="1"/>
                                <circle cx="10.3" cy="17.3" r="1"/>
                                <circle cx=".3" cy="7.3" r="1"/>
                                <circle cx="8.3" cy="19.3" r="1"/>
                                <circle cx="2.3" cy="8.3" r="1"/>
                                <circle cx="1.3" cy="14.3" r="1"/>
                                <circle cx="10.3" cy="20.3" r="1"/>
                                <circle cx="2.3" cy="12.3" r="1"/>
                                <circle cx="5.3" cy="19.3" r="1"/>
                                <circle cx="5.3" cy="17.3" r="1"/>
                                <circle cx="2.3" cy="10.3" r="1"/>
                                <circle cx="18.3" cy="18.3" r="1"/>
                                <circle cx="8.3" cy="14.3" r="1"/>
                                <circle cx="5.3" cy="7.3" r="1"/>
                                <circle cx="6.3" cy="22.3" r="1"/>
                                <circle cx="4.3" cy="13.3" r="1"/>
                                <circle cx="13.3" cy="19.3" r="1"/>
                                <circle cx="5.3" cy="11.3" r="1"/>
                                <circle cx="16.3" cy="19.3" r="1"/>
                                <circle cx="8.3" cy="11.3" r="1"/>
                                <circle cx="4.3" cy="10.3" r="1"/>
                                <circle cx="3.3" cy="16.3" r="1"/>
                                <circle cx="7.3" cy="16.3" r="1"/>
                                <circle cx="6.3" cy="22.3" r="1"/>
                                <circle cx="14.3" cy="16.3" r="1"/>
                            </g>
                        </g>
                    </g>
                    <path fill="#FFD074" fill-rule="nonzero" d="M23.962 29.938c-.551 0-.998-.447-.998-.999 0-.282.12-.552.33-.74l9.98-8.982c.416-.36 1.046-.315 1.407.102.35.405.319 1.015-.072 1.38l-9.98 8.982c-.183.165-.42.257-.667.257z"/>
                    <g fill="#6BAE7E" fill-rule="nonzero">
                        <path d="M52.901 24.948c-.55 0-.998-.447-.998-.998v-.998c0-.55.447-.998.998-.998.552 0 .998.447.998.998v.998c0 .551-.446.998-.998.998zM56.43 23.486c-.265 0-.519-.104-.705-.292l-.706-.706c-.383-.396-.372-1.028.024-1.41.387-.374 1-.374 1.387 0l.706.705c.39.39.39 1.021 0 1.41-.188.188-.441.293-.706.293zM57.891 19.958h-.998c-.551 0-.998-.446-.998-.998 0-.55.447-.997.998-.997h.998c.551 0 .998.446.998.997 0 .552-.447.998-.998.998zM55.725 17.136c-.552 0-.998-.447-.998-.998 0-.264.105-.518.292-.705l.706-.706c.396-.383 1.028-.372 1.41.025.374.386.374 1 0 1.386l-.705.706c-.187.187-.44.292-.705.292zM52.901 15.967c-.55 0-.998-.447-.998-.998v-.998c0-.551.447-.998.998-.998.552 0 .998.447.998.998v.998c0 .55-.446.998-.998.998zM50.078 17.136c-.264 0-.518-.105-.705-.292l-.706-.706c-.383-.396-.372-1.028.025-1.41.386-.374 1-.374 1.386 0l.706.705c.39.39.39 1.021 0 1.411-.187.187-.441.292-.706.292zM5.001 0L6.543 3.124 9.991 3.625 7.496 6.057 8.085 9.491 5.001 7.87 1.918 9.491 2.506 6.057.012 3.625 3.459 3.124z" transform="translate(0 .998)"/>
                    </g>
                    <path fill="#7FCCCB" fill-rule="nonzero" d="M58.574 54.053c-.475-1.682-1.568-3.122-3.06-4.032l-.411-.617c-2.305-3.447-5.93-5.791-10.02-6.48-.546-.077-1.051.302-1.13.848-.074.527.277 1.02.8 1.12 2.95.501 5.639 2 7.616 4.246-1.663.299-3.116 1.297-3.992 2.74-1.075 1.926-.386 4.357 1.54 5.432 1.924 1.075 4.356.386 5.43-1.54.41-.792.633-1.668.648-2.56 1.062 1.541 1.147 3.555.219 5.181-.282.474-.125 1.087.349 1.368.474.28 1.086.125 1.367-.35l.026-.046c.906-1.616 1.129-3.528.618-5.31zm-4.967.744c-.533.965-1.747 1.315-2.712.783-.965-.533-1.315-1.747-.783-2.712l.01-.016c.588-.964 1.581-1.61 2.702-1.758.173-.005.345.035.499.115.842.47.887 2.508.284 3.588z"/>
                </g>
            </g>
        </g>
    </g>
</svg>
