<svg xmlns="http://www.w3.org/2000/svg" width="34" height="34" viewBox="0 0 34 34">
    <g fill="none" fill-rule="evenodd">
        <g>
            <g transform="translate(-380 -1749) translate(380 1749)">
                <circle cx="17" cy="17" r="17" fill="#282828"/>
                <path fill="#FFF" fill-rule="nonzero" d="M23.97 25.574l-3.372-3.676c.422-.3.799-.648 1.13-1.043.33-.395.61-.829.84-1.3.23-.472.407-.98.529-1.521.123-.542.184-1.11.184-1.705 0-.974-.163-1.876-.487-2.706-.325-.83-.781-1.547-1.37-2.15-.588-.604-1.295-1.077-2.122-1.42-.827-.343-1.743-.515-2.748-.515-1.004 0-1.922.17-2.752.51-.83.34-1.54.814-2.132 1.42-.59.607-1.049 1.325-1.374 2.155-.324.83-.487 1.732-.487 2.706s.163 1.876.487 2.706c.325.83.783 1.549 1.374 2.155.591.607 1.302 1.08 2.132 1.42.83.34 1.748.51 2.752.51.356 0 .697-.021 1.025-.064.328-.043.648-.108.96-.193l1.948 2.15c.196.214.412.361.648.441.236.08.5.12.795.12h2.04zm-7.416-4.568c-.649 0-1.234-.107-1.755-.321-.52-.215-.963-.522-1.328-.924-.364-.4-.644-.891-.84-1.47-.196-.579-.295-1.233-.295-1.962 0-.729.099-1.383.295-1.962.196-.579.476-1.07.84-1.475.365-.404.807-.713 1.328-.928.52-.214 1.106-.321 1.755-.321.65 0 1.233.107 1.75.321.519.215.958.524 1.32.928.361.405.638.896.831 1.475.193.58.29 1.233.29 1.962 0 .73-.097 1.383-.29 1.962-.193.579-.47 1.07-.831 1.47-.362.402-.801.71-1.32.924-.517.214-1.1.321-1.75.321z"/>
            </g>
        </g>
    </g>
</svg>
