<svg xmlns="http://www.w3.org/2000/svg" width="34" height="34" viewBox="0 0 34 34">
    <g fill="none" fill-rule="evenodd">
        <g>
            <g>
                <g>
                    <path d="M0 0H34V34H0z" transform="translate(-801 -221) translate(782 202) translate(19 19)"/>
                    <g fill="#282828">
                        <path d="M3.682 20.58h-.126c-.935 0-1.832-.371-2.493-1.032C.402 18.886.03 17.99.03 17.054v-2.74c0-.935.372-1.831 1.033-2.493.661-.66 1.558-1.032 2.493-1.032h1.232v-.03C4.788 4.816 9.605 0 15.547 0c5.941 0 10.758 4.817 10.758 10.758v.03h1.232c.935 0 1.832.372 2.493 1.033.661.662 1.033 1.558 1.033 2.494v2.74c0 .935-.372 1.831-1.033 2.493-.661.66-1.558 1.032-2.493 1.032h-1.708c-.163 0-.32-.064-.435-.18-.115-.115-.18-.271-.18-.434v-9.208c0-5.339-4.328-9.667-9.667-9.667-5.34 0-9.668 4.328-9.668 9.667v9.208c0 .163-.065.319-.18.434-.115.116-.271.18-.435.18h-.49c.027 3.451 2.833 6.24 6.29 6.24h1.056c.104-.48.344-.923.696-1.276.483-.483 1.138-.754 1.821-.754h1.819c1.422 0 2.576 1.153 2.576 2.576 0 1.422-1.154 2.576-2.576 2.576h-1.819c-1.235 0-2.267-.87-2.518-2.03h-1.055c-4.06 0-7.354-3.278-7.382-7.332z" transform="translate(-801 -221) translate(782 202) translate(19 19) translate(1 2)"/>
                    </g>
                </g>
            </g>
        </g>
    </g>
</svg>
