<svg xmlns="http://www.w3.org/2000/svg" width="42" height="42" viewBox="0 0 42 42">
    <g fill="none" fill-rule="evenodd">
        <g>
            <g>
                <path d="M0 0H42V42H0z" transform="translate(-1057 -415) translate(1057 415)"/>
                <g>
                    <path stroke="#8D8682" stroke-width="1.4" d="M0 27.685V1.157C0 .575.594.184 1.129.413l4.22 1.808c.204.088.435.088.638 0l5.03-2.156c.205-.087.435-.087.639 0l5.03 2.156c.204.088.435.088.638 0l4.22-1.808c.535-.23 1.13.162 1.13.744v26.528c0 .622-.672 1.012-1.212.703l-4.055-2.317c-.249-.142-.555-.142-.804 0l-4.864 2.78c-.25.142-.555.142-.804 0l-4.865-2.78c-.249-.142-.554-.142-.803 0l-4.055 2.317C.672 28.697 0 28.307 0 27.685h0z" transform="translate(-1057 -415) translate(1057 415) translate(10 7)"/>
                    <path fill="#8D8682" d="M12.956 6.407c0 .447-.362.81-.81.81H4.86c-.448 0-.81-.363-.81-.81 0-.447.362-.81.81-.81h7.288c.447 0 .81.363.81.81zM17.005 12.075c.447 0 .81-.362.81-.81 0-.447-.363-.81-.81-.81H4.86c-.448 0-.81.363-.81.81 0 .448.362.81.81.81h12.146zM10.527 16.124c0 .448-.363.81-.81.81H4.86c-.448 0-.81-.362-.81-.81 0-.447.362-.81.81-.81h4.858c.447 0 .81.363.81.81zM18.049 21.793c1.104 0 2-.363 2-.81 0-.447-.896-.81-2-.81h-12c-1.105 0-2 .363-2 .81 0 .447.895.81 2 .81h12z" transform="translate(-1057 -415) translate(1057 415) translate(10 7)"/>
                </g>
            </g>
        </g>
    </g>
</svg>
