<svg xmlns="http://www.w3.org/2000/svg" width="56" height="56" viewBox="0 0 56 56">
    <g fill="none" fill-rule="evenodd">
        <g fill="#282828" fill-rule="nonzero">
            <g>
                <g>
                    <path d="M12.35 21.977c-.35 0-.69-.128-.954-.36-.998-.872-1.96-1.692-2.809-2.415l-.004-.004c-2.489-2.12-4.638-3.952-6.133-5.756C.779 11.425 0 9.512 0 7.424 0 5.394.696 3.52 1.96 2.15 3.238.764 4.993 0 6.9 0c1.427 0 2.732.45 3.882 1.34.58.448 1.106.998 1.569 1.638.463-.64.989-1.19 1.57-1.638C15.07.45 16.374 0 17.8 0c1.908 0 3.663.764 4.941 2.15 1.264 1.371 1.96 3.244 1.96 5.274 0 2.089-.779 4.001-2.45 6.018-1.495 1.804-3.644 3.635-6.132 5.756-.85.724-1.814 1.546-2.814 2.42-.264.231-.604.359-.955.359zM6.9 1.447c-1.498 0-2.875.598-3.877 1.684-1.016 1.103-1.576 2.627-1.576 4.293 0 1.757.653 3.328 2.117 5.095 1.415 1.707 3.52 3.501 5.957 5.578l.005.004c.852.726 1.818 1.55 2.823 2.428 1.011-.88 1.978-1.705 2.832-2.432 2.437-2.077 4.542-3.87 5.957-5.578 1.464-1.767 2.117-3.338 2.117-5.095 0-1.666-.56-3.19-1.577-4.293-1.001-1.086-2.378-1.684-3.877-1.684-1.098 0-2.106.349-2.996 1.037-.793.614-1.346 1.39-1.67 1.932-.166.28-.46.446-.784.446-.325 0-.618-.167-.785-.446-.323-.542-.876-1.318-1.67-1.932-.89-.688-1.898-1.037-2.995-1.037z" transform="translate(-970 -1039) translate(970 1039) translate(16 17)"/>
                </g>
            </g>
        </g>
    </g>
</svg>
