<svg xmlns="http://www.w3.org/2000/svg" xmlns:xlink="http://www.w3.org/1999/xlink" width="42" height="42" viewBox="0 0 42 42">
    <defs>
        <path id="de070sqhga" d="M0.036 0.038L27.359 0.038 27.359 16.671 0.036 16.671z"/>
    </defs>
    <g fill="none" fill-rule="evenodd">
        <g>
            <g>
                <g>
                    <g>
                        <path fill="#8D8682" d="M6.69 6.612h2.932c1.546 0 3.092.003 4.639.002.785 0 1.19-.292 1.182-.843-.01-.547-.406-.816-1.21-.817H6.702V3.287h3.428c.318 0 .635.004.952-.002.64-.012 1.018-.318 1.027-.823.01-.506-.37-.83-1.007-.834-1.269-.006-2.538-.002-3.806-.002h-.609V0h20.655v14.91H6.701V9.943h10.744c.159 0 .318.008.476-.004.505-.036.817-.296.848-.813.028-.47-.342-.81-.88-.841-.138-.008-.277-.001-.416-.001l-10.23.001H6.69V6.612z" transform="translate(-939 -748) translate(370 633) translate(569 115) translate(0 9)"/>
                        <g transform="translate(-939 -748) translate(370 633) translate(569 115) translate(0 9) translate(13.344 3.242)">
                            <mask id="g5u5q8rbib" fill="#fff">
                                <use xlink:href="#de070sqhga"/>
                            </mask>
                            <path fill="#8D8682" d="M22.363 8.363c.83 0 1.6-.003 2.368 0 1.546.007 2.618 1.067 2.624 2.612.008 1.88.002 3.758.002 5.677H25.62c-.63-1.971-1.915-3.185-4.034-3.275-1.897-.082-3.24 1.027-4.17 3.294H3.234c-.48-1.663-1.536-2.766-3.198-3.316h3.728l10.725.002c.94 0 1.206-.262 1.206-1.19V.07c1.545 0 3.05-.084 4.542.026 1.252.091 2.116 1.2 2.123 2.47.011 1.901.003 3.802.003 5.798" mask="url(#g5u5q8rbib)"/>
                        </g>
                        <path fill="#8D8682" d="M34.855 18.265c1.354-.007 2.506 1.13 2.513 2.483.009 1.36-1.12 2.502-2.48 2.51-1.351.007-2.508-1.133-2.516-2.481-.007-1.352 1.132-2.505 2.483-2.512M14.985 20.78c-.01 1.35-1.165 2.487-2.518 2.478-1.353-.01-2.487-1.162-2.478-2.516.01-1.35 1.165-2.487 2.518-2.477 1.358.01 2.489 1.158 2.478 2.515M6.68 19.91v-3.277h5.11c-1.84.523-2.923 1.594-3.388 3.277H6.68zM4.983 1.623V3.29H3.934c-.991 0-1.982.007-2.973-.003C.38 3.28 0 2.939 0 2.457c-.002-.483.377-.827.957-.831 1.324-.01 2.647-.003 4.025-.003M4.97 4.954v1.657c-.584 0-1.155.038-1.717-.011-.47-.04-.763-.36-.746-.842.018-.479.322-.769.798-.797.532-.03 1.066-.007 1.666-.007" transform="translate(-939 -748) translate(370 633) translate(569 115) translate(0 9)"/>
                    </g>
                </g>
            </g>
        </g>
    </g>
</svg>
