<svg xmlns="http://www.w3.org/2000/svg" xmlns:xlink="http://www.w3.org/1999/xlink" width="176" height="90" viewBox="0 0 176 90">
    <defs>
        <path id="dm69br11ra" d="M0 65.991L67.601 65.991 67.601 0 0 0z"/>
    </defs>
    <g fill="none" fill-rule="evenodd">
        <g>
            <g>
                <path d="M0 0H176V90H0z" transform="translate(-675 -2459) translate(675 2459)"/>
                <g transform="translate(-675 -2459) translate(675 2459) translate(54 12)">
                    <path fill="#231916" d="M2.236 56.494h63.128L33.804 2.432 2.236 56.494zm64.55 1.63H.816c-.292 0-.561-.156-.708-.409-.145-.253-.144-.565.004-.817L33.099.405c.146-.252.414-.405.705-.405.288 0 .557.153.702.405L67.49 56.898c.145.252.147.564.001.817-.144.253-.415.409-.705.409z"/>
                    <path fill="#231916" d="M17.658 40.952h1.568v-1.227h-1.53c.028.16.042.326.042.499 0 .244-.026.487-.08.728zm-1.79 5.295h3.378v-1.434h-3.379v1.434zm-1.164 1.109h5.704v-3.654h-5.704v3.654zm.592-8.72c-.382 0-.69.142-.924.425-.234.284-.353.671-.353 1.163 0 .489.119.874.353 1.156.235.28.542.422.924.422.384 0 .693-.141.927-.422.236-.282.352-.667.352-1.156 0-.496-.116-.885-.352-1.166-.234-.281-.543-.422-.927-.422zm1.871 3.393c-.479.589-1.103.883-1.871.883-.697 0-1.279-.248-1.747-.744-.468-.496-.702-1.145-.702-1.944 0-.79.232-1.435.695-1.935.464-.502 1.048-.752 1.754-.752.875 0 1.548.37 2.022 1.11h1.908V37.33H20.4v5.949h-1.173v-1.249h-2.059zM28.99 42.922c-.649-.216-1.278-.55-1.884-1.004-.609-.453-1.07-.931-1.386-1.434-.311.52-.767 1.01-1.368 1.465-.6.458-1.234.785-1.9.983l-.692-1.035c1.084-.266 1.917-.712 2.498-1.336.581-.624.871-1.227.871-1.808v-.76h1.2v.76c0 .567.291 1.167.872 1.803.582.635 1.408 1.083 2.479 1.34l-.69 1.026zm-7.49 3.24v-1.1h3.63v-2.337h1.19v2.338h3.64v1.098H21.5z"/>
                    <mask id="z1cz43lmqb" fill="#fff">
                        <use xlink:href="#dm69br11ra"/>
                    </mask>
                    <path fill="#231916" d="M41.677 45.072h1.843v-1.805h-1.843v1.805zm-2.466-5.752h6.776v-1.098H39.21v1.098zm-.841 6.863v-1.11h2.132v-1.806h-1.357v-1.1h1.295l-.105-2.389h1.183l.074 2.39h2.004l.085-2.39h1.181l-.132 2.39h1.322v1.099h-1.355v1.805h2.132v1.111h-8.46zM53.233 43.235v-2.177h-.714v2.177h-1.164v-5.698h1.164v2.406h.714V37.33h1.172v5.905h-1.172zm-.01 4.34v-2.773h-4.867v-1.13h6.049v3.902h-1.183zm-5.203-6.177h1.314v-1.152H48.02v1.152zm-1.171 1.11v-4.764h1.17v1.392h1.315v-1.392h1.163v4.764h-3.648zM51.96 65.99c-.232 0-.465-.099-.626-.29L10.566 16.987c-.289-.345-.243-.86.1-1.149.347-.288.86-.243 1.15.102l40.77 48.71c.287.347.242.86-.102 1.15-.153.127-.339.19-.524.19" mask="url(#z1cz43lmqb)"/>
                    <path fill="#231916" d="M14.864 65.99c-.185 0-.37-.062-.523-.19-.345-.288-.39-.802-.103-1.148l40.77-48.711c.289-.345.804-.39 1.149-.102.345.29.39.804.101 1.15L15.49 65.698c-.162.192-.393.292-.626.292" mask="url(#z1cz43lmqb)"/>
                </g>
            </g>
        </g>
    </g>
</svg>
