<svg xmlns="http://www.w3.org/2000/svg" xmlns:xlink="http://www.w3.org/1999/xlink" width="110" height="110" viewBox="0 0 110 110">
    <defs>
        <path id="dvixtv3wua" d="M0.032 0.021L19.766 0.021 19.766 16.12 0.032 16.12z"/>
        <path id="4zgyo2v2tc" d="M0.032 0.134L10.812 0.134 10.812 10.914 0.032 10.914z"/>
        <path id="2isll7q5ye" d="M0.074 0.134L10.854 0.134 10.854 10.914 0.074 10.914z"/>
    </defs>
    <g fill="none" fill-rule="evenodd">
        <g>
            <g>
                <g>
                    <path fill="#8D8682" d="M53.444 17.501L63.244 17.501 63.244 6.451 53.444 6.451z" transform="translate(-905 -436) translate(905 436) translate(16 17)"/>
                    <g>
                        <path fill="#8D8682" d="M19.884 21.302v-2.61h24.742v3.733l-24.742-1.123M48.436 22.604v-2.665h19.755v3.554l-19.755-.89" transform="translate(-905 -436) translate(905 436) translate(16 17) translate(0 .155)"/>
                        <g transform="translate(-905 -436) translate(905 436) translate(16 17) translate(0 .155) translate(22.357)">
                            <mask id="wf6prag05b" fill="#fff">
                                <use xlink:href="#dvixtv3wua"/>
                            </mask>
                            <path fill="#8D8682" d="M13.724 4.977c-.812.058-1.63.013-2.505.013.085-1.456 1.07-2.454 2.323-2.453.727 0 1.27.469 1.319 1.134.048.673-.407 1.254-1.137 1.306zm-7.66-.003c-.723-.055-1.152-.653-1.086-1.34.065-.674.602-1.11 1.344-1.091 1.215.032 2.097.908 2.33 2.446-.912 0-1.754.048-2.588-.015zm8.63 2.476c.16-.141.196-.192.246-.215 1.918-.866 2.813-2.629 2.276-4.485C16.662.837 14.905-.305 12.849.149c-1.068.236-2.046.876-3.135 1.365C7.578-.38 4.944-.507 3.372 1.33c-.866 1.012-1.098 2.187-.758 3.46.345 1.294 1.285 2.079 2.414 2.723H.032v8.607h8.657V7.562h2.503v8.541h8.574V7.45h-5.072z" mask="url(#wf6prag05b)"/>
                        </g>
                        <path fill="#000" stroke="#000" d="M67.065 63.097c.745-.066 1.21-.58 1.168-1.277-.043-.724-.459-1.117-1.171-1.181-.32-.03-.645-.012-.968-.012-16.427-.001-32.855 0-49.282-.004-1.832 0-3.014-.953-3.146-2.511-.13-1.55.914-2.705 2.707-2.956 2.612-.367 5.227-.715 7.841-1.072l31.979-4.371c3.515-.48 7.028-.974 10.546-1.425.963-.123 1.484-.573 1.596-1.542.081-.698.218-1.389.333-2.083 1.07-6.42 2.145-12.837 3.209-19.257.254-1.536-.126-1.979-1.68-2.05-2.55-.116-5.098-.237-7.647-.352-14.826-.667-29.652-1.338-44.48-1.98-.693-.03-.96-.255-1.07-.917-.322-1.908-.642-3.819-1.07-5.704-.57-2.52-2.8-4.501-5.37-4.603-3.104-.122-6.217-.058-9.326-.033-.906.008-1.463.87-1.142 1.655.255.625.765.816 1.416.812 2.728-.014 5.456-.012 8.184-.003 2.184.006 3.562 1.192 3.958 3.345 1.97 10.694 3.948 21.387 5.92 32.08.268 1.455.52 2.913.789 4.418-1.63.225-3.138.43-4.645.642-2.527.357-4.447 2.46-4.537 4.958-.093 2.559 1.574 4.847 4.118 5.266l51.77.157z" transform="translate(-905 -436) translate(905 436) translate(16 17) translate(0 .155)"/>
                        <g transform="translate(-905 -436) translate(905 436) translate(16 17) translate(0 .155) translate(22.357 62.963)">
                            <mask id="fikb7bf9hd" fill="#fff">
                                <use xlink:href="#4zgyo2v2tc"/>
                            </mask>
                            <path fill="#000" d="M10.812 5.524c0 2.977-2.413 5.39-5.39 5.39S.032 8.501.032 5.524 2.445.134 5.422.134s5.39 2.413 5.39 5.39" mask="url(#fikb7bf9hd)"/>
                        </g>
                        <g transform="translate(-905 -436) translate(905 436) translate(16 17) translate(0 .155) translate(49.643 62.963)">
                            <mask id="a0ttvltd1f" fill="#fff">
                                <use xlink:href="#2isll7q5ye"/>
                            </mask>
                            <path fill="#000" d="M10.854 5.524c0 2.977-2.413 5.39-5.39 5.39S.074 8.501.074 5.524 2.487.134 5.464.134s5.39 2.413 5.39 5.39" mask="url(#a0ttvltd1f)"/>
                        </g>
                    </g>
                </g>
            </g>
        </g>
    </g>
</svg>
