<svg xmlns="http://www.w3.org/2000/svg" width="50" height="50" viewBox="0 0 50 50">
    <g fill="none" fill-rule="evenodd">
        <g>
            <g>
                <g>
                    <g transform="translate(-843 -1054) translate(370 987) translate(104 40) translate(369 27)">
                        <path d="M0 0H50V50H0z"/>
                        <path fill="#000" fill-rule="nonzero" d="M14.821 24.568h1.358c1.124 0 2.035-.912 2.035-2.036v-2.714c0-1.125-.911-2.036-2.035-2.036H14.82c-1.124 0-2.035.911-2.035 2.036v2.714c0 1.124.911 2.036 2.035 2.036z"/>
                        <rect width="38" height="25" x="6" y="13" fill="#000" rx="1"/>
                        <rect width="16" height="10" x="25" y="16" fill="#8D8682" rx="1"/>
                        <rect width="16" height="1.4" x="25" y="29" fill="#FFF" rx=".7"/>
                        <rect width="8" height="1.4" x="25" y="32" fill="#FFF" rx=".7"/>
                        <path fill="#000" fill-rule="nonzero" stroke="#FFF" stroke-width="1.4" d="M16.178 17.125c.743 0 1.416.302 1.904.79.487.487.789 1.16.79 1.903h0v2.713c-.001.743-.303 1.416-.79 1.904-.488.487-1.16.789-1.903.79h0-1.357c-.743-.001-1.416-.303-1.904-.79-.487-.488-.789-1.16-.79-1.903h0v-2.714c.001-.743.303-1.416.79-1.903.488-.488 1.16-.79 1.903-.79h0zM18.364 27.982c.718.02 1.361.329 1.82.811.464.486.741 1.149.723 1.873h0v3.38H10.093v-3.38c-.018-.724.26-1.387.722-1.873.46-.482 1.103-.79 1.82-.811h0z"/>
                    </g>
                </g>
            </g>
        </g>
    </g>
</svg>
