<svg xmlns="http://www.w3.org/2000/svg" xmlns:xlink="http://www.w3.org/1999/xlink" width="76" height="76" viewBox="0 0 76 76">
    <defs>
        <circle id="3vd4qng11a" cx="37.5" cy="37.5" r="37.5"/>
    </defs>
    <g fill="none" fill-rule="evenodd">
        <g>
            <g>
                <g transform="translate(-478 -365) translate(370 315) translate(108 50)">
                    <g transform="translate(.5 .5)">
                        <mask id="ntxircbwjb" fill="#fff">
                            <use xlink:href="#3vd4qng11a"/>
                        </mask>
                        <use fill="#FFF" xlink:href="#3vd4qng11a"/>
                        <path fill="#E0E0E0" d="M54.834 28.042l22.464 26.036C60.696 70.3 51.763 78.073 50.5 77.401c-1.263-.673-8.816-8.91-22.656-24.71h3.32l1.86-1.714-.32-2.096-.546-1.682h12.66l-.863 3.41 1.534 1.797 2.157.284 1.42-.752.355-2.789-1.36-1.556-18.89-.394-.803-2.36H44.98l6.442-1.222 3.412-15.575z" mask="url(#ntxircbwjb)"/>
                    </g>
                    <g fill-rule="nonzero">
                        <g fill="#E5AFE5">
                            <path d="M7.985.014L9.348 9.525 12.007 9.525 13.369.014zM17.008.014L15.645 9.525 19.165 9.525 21.304.014zM4.346.014L.051.014 1.972 9.525 5.709 9.525z" transform="translate(18.5 22) translate(11.172 10.203)"/>
                        </g>
                        <g fill="#282828" stroke="#282828" stroke-width=".2">
                            <path d="M36.834 6.542c-.149-.175-.367-.276-.596-.276H7.625l-.967-4.79C6.584 1.113 6.264.85 5.892.85H.794c-.432 0-.782.35-.782.781 0 .432.35.782.782.782h4.459L10 25.922c-.732.635-1.196 1.572-1.196 2.616 0 1.91 1.551 3.462 3.458 3.462 1.906 0 3.457-1.553 3.457-3.462 0-.7-.209-1.353-.568-1.899h10.833c-.359.546-.568 1.198-.568 1.9 0 1.908 1.551 3.461 3.458 3.461 1.907 0 3.458-1.553 3.458-3.462 0-.711-.216-1.373-.585-1.924.336-.087.585-.393.585-.756 0-.432-.35-.781-.782-.781H11.425l-.283-1.397h19.813c1.922 0 3.545-1.377 3.86-3.273l2.193-13.232c.038-.226-.026-.458-.174-.633zM14.158 28.538c0 1.048-.85 1.9-1.895 1.9s-1.895-.852-1.895-1.9c0-1.047.85-1.899 1.895-1.899s1.895.852 1.895 1.9zm14.717 1.9c-1.045 0-1.895-.852-1.895-1.9 0-1.047.85-1.899 1.895-1.899s1.895.852 1.895 1.9c0 1.047-.85 1.898-1.895 1.898zm4.398-10.287c-.189 1.14-1.164 1.966-2.318 1.966H10.827L7.94 7.83h27.375L33.273 20.15z" transform="translate(18.5 22)"/>
                        </g>
                    </g>
                    <circle cx="38" cy="38" r="37.5" stroke="#E0E0E0"/>
                </g>
            </g>
        </g>
    </g>
</svg>
