<svg xmlns="http://www.w3.org/2000/svg" width="50" height="50" viewBox="0 0 50 50">
    <g fill="none" fill-rule="evenodd">
        <g>
            <g>
                <g>
                    <g>
                        <path d="M0 0H50V50H0z" transform="translate(-659 -1054) translate(370 987) translate(104 40) translate(185 27)"/>
                        <g>
                            <path fill="#000" fill-rule="nonzero" d="M16.701.487c-.092-.216-.275-.381-.5-.45-.224-.07-.468-.036-.665.09L9.46 3.993h8.782L16.702.487zm16.03.311H21.556c-.44 0-.798.358-.798.799v2.395H33.53V1.597c0-.441-.357-.799-.798-.799zm3.019 5.086c-.153-.188-.382-.296-.623-.296H5.5l-.711-3.36c-.08-.375-.415-.64-.798-.632H.798c-.44 0-.798.358-.798.799 0 .44.357.798.798.798h2.547l4.111 19.16c.358 1.652 1.717 2.899 3.393 3.114-.312.503-.475 1.084-.47 1.676 0 1.764 1.43 3.194 3.193 3.194 1.763 0 3.193-1.43 3.193-3.194-.002-.562-.157-1.114-.447-1.596H22.8c-.29.482-.444 1.034-.447 1.596 0 1.764 1.43 3.194 3.194 3.194 1.763 0 3.193-1.43 3.193-3.194-.002-.562-.157-1.114-.447-1.596h2.842c.441 0 .798-.358.798-.799 0-.44-.357-.798-.798-.798H11.368c-1.133.002-2.113-.791-2.347-1.9l-.104-.495h23.016c.381.01.715-.251.799-.623l3.193-14.37c.05-.24-.015-.491-.175-.678zm-3.817 8.486h-4.087l-.623 4.958c-.08.374-.415.639-.798.63-.409.003-.753-.304-.798-.71v-.072l.598-4.79h-5.468v4.79c0 .441-.358.798-.799.798-.44 0-.798-.357-.798-.798V14.37h-6.283l.599 4.79c.014.216-.065.427-.218.58-.153.153-.365.233-.58.218-.383.009-.718-.256-.799-.63l-.606-4.958h-3.29c-.44 0-.798-.357-.798-.798 0-.441.357-.799.798-.799h3.09l-.599-4.79c-.014-.215.065-.427.218-.58.153-.153.365-.232.58-.218.383-.008.719.256.799.63l.607 4.958h6.482v-4.79c0-.44.358-.798.798-.798.441 0 .799.357.799.798v4.79h5.684l.623-4.957c.08-.375.415-.64.798-.631.216-.014.427.065.58.218.153.153.233.365.218.58l-.598 4.79h3.871c.441 0 .799.358.799.799 0 .44-.358.798-.799.798z" transform="translate(-659 -1054) translate(370 987) translate(104 40) translate(185 27) translate(7 10)"/>
                            <path fill="#000" fill-rule="nonzero" d="M10.936 25.496h-.368c-1.415 0-2.638-.989-2.934-2.373l-.493-2.307 3.795 4.422" transform="translate(-659 -1054) translate(370 987) translate(104 40) translate(185 27) translate(7 10)"/>
                            <path fill="#F9F9F9" d="M8.917 21.555l.205.86c.215.901 1.02 1.537 1.946 1.537h.636v-1.53l-2.787-.867z" transform="translate(-659 -1054) translate(370 987) translate(104 40) translate(185 27) translate(7 10)"/>
                        </g>
                    </g>
                </g>
            </g>
        </g>
    </g>
</svg>
