<svg xmlns="http://www.w3.org/2000/svg" xmlns:xlink="http://www.w3.org/1999/xlink" width="100" height="40" viewBox="0 0 100 40">
    <defs>
        <path id="ckyw33elba" d="M0 0.095L85.012 0.095 85.012 22.904 0 22.904z"/>
    </defs>
    <g fill="none" fill-rule="evenodd">
        <g>
            <g>
                <path d="M0 0H100V40H0z" transform="translate(-734 -449) translate(734 449)"/>
                <g>
                    <path fill="#020303" d="M7.502 23.11L76.304 23.11 76.304 9.35 7.502 9.35z" transform="translate(-734 -449) translate(734 449) translate(7 8)"/>
                    <g>
                        <path fill="#FEFEFE" d="M14.971 12.432c.531.058.794.3.787.725l-.006 2.227H17.4l-.01-2.6c.02-.294.29-.41.805-.352.513.058.777.3.787.725l-.023 5.751c-.042.323-.32.458-.832.407-.512-.051-.763-.304-.751-.76l.006-2.224h-1.646l-.024 2.577c-.027.323-.292.471-.797.44-.502-.03-.754-.263-.754-.704l.03-5.86c-.011-.294.249-.41.78-.352M24.44 14.833c.49.1.735.34.736.716l-.013 6.405c-.002.319-.256.448-.76.392-.507-.06-.761-.348-.766-.87l-.024-2.215h-.38c-.399 0-1.83-.097-2.232-.292-.399-.197-.695-.52-.881-.967l-.01-2.67c-.13-.332.034-.511.498-.532.461-.02.75.113.867.402l-.038 2.67c.063.189.154.312.27.37.116.057 1.244.085 1.324.085h.62l-.008-3.212c.044-.29.308-.384.797-.282M26.428 18.946c-.396-.208-.595-.604-.599-1.182l.011-2.455c-.024-.42.222-.592.743-.519.518.071.781.31.784.716l-.004 2.409c-.005.116.036.214.12.294.085.08.224.12.414.12h1.075l-.027-3.084c.023-.376.286-.517.79-.425.504.095.753.33.747.707v3.734h-2.626c-.558 0-1.034-.105-1.428-.315M36.235 18.806c.022.362-.22.52-.72.478-.502-.043-.774-.254-.817-.63l-.044-2.606c-.005-.101-.032-.176-.084-.227-.05-.051-.114-.077-.194-.077h-1.195l-.051 3.126c-.027.32-.278.46-.753.423-.474-.034-.725-.285-.75-.748l.02-3.735h2.984c.366 0 .714.103 1.043.304.328.203.498.449.508.74l.053 2.952zM40.532 15.744h-.668c-.16 0-.63.026-.725.077-.093.052-.17.133-.224.249-.126.332-.238.66-.335.977-.1.319-.157.615-.002.88.074.126.105.202.251.282.147.08.3.118.46.118h1.241l.002-2.583zm1.463 3.517h-2.653c-.78 0-1.359-.194-1.74-.586-.38-.391-.48-.724-.517-1.139-.03-.34-.086-.627.04-1.075.126-.448.265-.819.423-1.108.073-.159.211-.29.416-.39.205-.102.458-.153.761-.153h1.777l-.062-1.715c-.056-.448.178-.647.705-.596.526.051.8.315.82.794l.03 5.968zM69.02 15.744h-.67c-.16 0-.63.026-.724.077-.095.052-.17.133-.226.249-.125.332-.236.66-.335.977-.099.319-.157.615 0 .88.074.126.104.202.25.282.146.08.3.118.46.118h1.24l.004-2.583zm1.46 3.517h-2.65c-.782 0-1.36-.194-1.741-.586-.38-.391-.481-.724-.519-1.139-.029-.34-.084-.627.041-1.075.126-.448.266-.819.423-1.108.074-.159.21-.29.416-.39.204-.102.456-.153.76-.153h1.776l-.059-1.715c-.057-.448.177-.647.704-.596.527.051.801.315.82.794l.028 5.968zM45.7 15.744h-.622c-.094 0-.34.026-.433.077-.093.052-.158.133-.195.249-.09.318-.172.645-.24.977-.07.333-.06.604-.008.868.028.143.019.25.09.315.072.065.187.097.346.097h1.052l.01-2.583zm1.52-.934l-.002 3.517h.238c.303 0 .51.156.626.467.114.311.02.467-.284.467h-2.963c-.78 0-1.327-.194-1.646-.586-.317-.391-.41-.788-.438-1.193-.016-.248-.064-.616.026-1.02.09-.405.18-.753.264-1.043.065-.174.225-.32.486-.435.261-.115.566-.174.917-.174h2.777zM50.017 13.031c.21.144.348.318.418.52s.05.379-.058.522c-.11.145-.276.218-.5.218-.22 0-.443-.073-.66-.218-.216-.143-.36-.32-.43-.522s-.044-.376.07-.52c.12-.146.288-.217.511-.217.223 0 .44.071.649.217m-.581 6.24c-.518-.05-.764-.284-.733-.703l.04-2.585c.005-.029-.02-.057-.077-.088-.06-.028-.13-.048-.214-.063-.2-.116-.324-.259-.374-.425-.048-.167.028-.277.232-.336.23-.071.407-.119.536-.14.128-.023.286-.085.474-.185.138-.059.328-.041.568.054.239.095.362.264.366.51l-.013 3.56c-.018.32-.285.453-.805.402M54.36 12.553c.304 0 .513.156.629.466.115.312.02.468-.282.468h-1.79c-.111 0-.2.04-.266.119-.067.08-.101.198-.106.357v3.932c0 .13.055.234.163.314.11.08.252.118.428.118h1.528c.303 0 .512.156.628.467.115.311.02.467-.283.467h-1.886c-.557 0-1.048-.156-1.474-.467-.427-.31-.648-.685-.665-1.117l.007-3.845c-.002-.476.125-.808.382-.998.256-.187.569-.281.935-.281h2.053zM58.836 15.744h-.62c-.095 0-.334.026-.425.077-.094.052-.16.133-.195.249-.09.318-.166.645-.234.977-.067.333-.036.673-.01.868.017.146.021.25.093.315s.187.097.347.097h1.052l-.008-2.583zm1.517-.934l.019 3.517h.238c.303 0 .511.156.627.467.117.311.023.467-.28.467h-2.962c-.78 0-1.331-.194-1.65-.586-.32-.391-.422-.788-.443-1.193-.012-.179-.063-.616.024-1.02.088-.405.174-.753.257-1.043.063-.174.224-.32.484-.435.258-.115.563-.174.915-.174h2.77zM62.021 15.135c.268-.216.6-.325 1-.325h1.336c.303 0 .513.156.631.469.118.31.027.465-.277.465h-1.097c-.16 0-.28.062-.361.185-.082.123-.113.25-.096.379l-.017 2.605c-.008.276-.264.4-.769.371-.503-.03-.75-.24-.739-.63l-.013-2.497c0-.464.134-.804.402-1.022" transform="translate(-734 -449) translate(734 449) translate(7 8) translate(0 .207)"/>
                        <g transform="translate(-734 -449) translate(734 449) translate(7 8) translate(0 .207)">
                            <mask id="q4yzc9nthb" fill="#fff">
                                <use xlink:href="#ckyw33elba"/>
                            </mask>
                            <path fill="#221E1F" d="M1.574 22.904v-10.88c0-5.728 4.576-10.347 10.196-10.358h61.472c5.622.011 10.196 4.63 10.196 10.359v10.879h1.574v-10.88C84.999 5.448 79.752.099 73.242.095H11.77C5.261.099.012 5.448 0 12.025v10.88h1.574z" mask="url(#q4yzc9nthb)"/>
                        </g>
                    </g>
                </g>
            </g>
        </g>
    </g>
</svg>
