<svg xmlns="http://www.w3.org/2000/svg" xmlns:xlink="http://www.w3.org/1999/xlink" width="140" height="47" viewBox="0 0 140 47">
    <defs>
        <path id="6f43i8isza" d="M0 28.385L118.397 28.385 118.397 0 0 0z"/>
    </defs>
    <g fill="none" fill-rule="evenodd">
        <g>
            <g>
                <g transform="translate(-1038 -566) translate(1038 417) translate(0 149)">
                    <rect width="139" height="45.667" x=".5" y=".5" stroke="#6BAE7E" rx="6"/>
                    <g transform="translate(10.889 9.333)">
                        <path fill="#6BAE7E" d="M34.32 3.675h-.883c0-.121-.084-.465-.251-1.032H31.91c-.173.558-.259.902-.259 1.032h-.83c0-.071.214-.66.643-1.766.43-1.105.644-1.714.644-1.826h1.043c0 .105.195.705.585 1.8.388 1.095.583 1.693.583 1.792zm-1.275-1.558c-.314-.95-.472-1.463-.472-1.54h-.044c0 .071-.163.584-.488 1.54h1.004zM37.878 3.675h-.682c0-.075-.252-.473-.76-1.194-.528-.76-.83-1.28-.904-1.56h-.044c.045.404.07.768.07 1.093 0 .454.011 1.008.037 1.661h-.678c.028-.57.042-1.197.042-1.879 0-.671-.014-1.243-.042-1.713h.82c0 .097.227.487.682 1.167.483.723.761 1.213.832 1.47h.042c-.045-.41-.066-.778-.066-1.103 0-.5-.014-1.01-.04-1.534h.69c-.025.456-.038 1.027-.038 1.713 0 .692.013 1.318.039 1.88M41.877 1.755c0 .522-.168.978-.503 1.369-.334.39-.803.585-1.407.585-.272 0-.647-.011-1.125-.034.023-.555.036-1.181.036-1.879 0-.67-.013-1.24-.036-1.713h.482c.08 0 .197-.003.354-.008.155-.006.258-.009.306-.009.664 0 1.145.166 1.444.497.3.33.449.728.449 1.192m-.754.118c0-.353-.103-.65-.309-.892-.206-.242-.52-.363-.943-.363-.08 0-.188.008-.326.025.019.367.028.752.028 1.153 0 .44.01.876.027 1.308.12.024.24.036.359.036.396 0 .689-.123.879-.369.19-.245.285-.545.285-.898M45.564 3.675h-.816c-.214-.65-.378-1.053-.493-1.205-.113-.154-.297-.23-.551-.23-.106 0-.209.001-.306.003 0 .473.009.95.025 1.432h-.767c.024-.555.036-1.182.036-1.879 0-.67-.012-1.24-.036-1.713h.478c.055 0 .17-.003.346-.008.176-.006.337-.009.487-.009.844 0 1.266.289 1.266.867 0 .457-.241.777-.723.957v.041c.186.052.349.196.488.434.14.24.329.676.566 1.31M44.53 1.137c0-.366-.236-.55-.707-.55-.173 0-.325.014-.458.04.02.285.03.656.03 1.114.102.004.187.005.257.005.585 0 .878-.203.878-.61M49.52 1.813c0 .565-.173 1.033-.52 1.405-.346.37-.773.556-1.282.556-.486 0-.893-.17-1.22-.511-.327-.342-.491-.775-.491-1.302 0-.564.172-1.032.519-1.403.346-.372.773-.558 1.283-.558.485 0 .892.17 1.22.51.326.34.49.775.49 1.303m-.761.08c0-.385-.099-.696-.296-.936C48.265.72 48.022.6 47.734.6c-.269 0-.498.12-.684.361-.188.24-.282.546-.282.914 0 .382.099.693.297.934.198.24.44.36.727.36.269 0 .497-.122.684-.363.187-.242.282-.546.282-.912M51.08 3.675h-.782c.025-.57.036-1.197.036-1.879 0-.671-.011-1.243-.036-1.713h.781c-.024.463-.035 1.034-.035 1.713 0 .694.011 1.32.035 1.88M55.078 1.755c0 .522-.168.978-.502 1.369-.334.39-.804.585-1.406.585-.273 0-.648-.011-1.127-.034.025-.555.037-1.181.037-1.879 0-.67-.012-1.24-.037-1.713h.483c.079 0 .197-.003.354-.008.155-.006.259-.009.305-.009.665 0 1.146.166 1.445.497.299.33.448.728.448 1.192m-.753.118c0-.353-.103-.65-.308-.892-.207-.242-.52-.363-.944-.363-.08 0-.188.008-.326.025.018.367.028.752.028 1.153 0 .44.009.876.027 1.308.12.024.24.036.358.036.396 0 .689-.123.88-.369.19-.245.285-.545.285-.898M60.384 3.675H59.5c0-.121-.084-.465-.251-1.032h-1.275c-.173.558-.26.902-.26 1.032h-.83c0-.071.215-.66.644-1.766.43-1.105.644-1.714.644-1.826h1.043c0 .105.195.705.584 1.8.39 1.095.584 1.693.584 1.792zm-1.275-1.558c-.314-.95-.472-1.463-.472-1.54h-.044c0 .071-.163.584-.488 1.54h1.004zM63.602 1.024c0 .44-.163.763-.49.973-.326.21-.726.315-1.202.315-.085 0-.147-.002-.183-.006 0 .346.01.803.03 1.37h-.775c.022-.532.035-1.159.035-1.88 0-.662-.013-1.233-.035-1.713h.479c.067 0 .2-.003.392-.008.193-.006.36-.009.501-.009.351 0 .646.08.886.237.242.158.362.399.362.72m-.71.152c0-.393-.263-.59-.786-.59-.13 0-.268.014-.413.041.02.348.03.741.03 1.18.047.005.1.007.16.007.671 0 1.008-.213 1.008-.638M66.912 1.024c0 .44-.163.763-.49.973-.327.21-.727.315-1.202.315-.086 0-.147-.002-.185-.006 0 .346.01.803.03 1.37h-.774c.023-.532.036-1.159.036-1.88 0-.662-.013-1.233-.036-1.713h.48c.068 0 .198-.003.392-.008.193-.006.36-.009.502-.009.349 0 .644.08.885.237.242.158.362.399.362.72m-.712.152c0-.393-.26-.59-.784-.59-.131 0-.27.014-.413.041.02.348.03.741.03 1.18.046.005.1.007.16.007.67 0 1.007-.213 1.007-.638M72.322 1.813c0 .565-.173 1.033-.518 1.405-.347.37-.774.556-1.284.556-.485 0-.893-.17-1.22-.511-.327-.342-.49-.775-.49-1.302 0-.564.172-1.032.518-1.403C69.675.186 70.102 0 70.61 0c.486 0 .892.17 1.219.51.327.34.492.775.492 1.303m-.761.08c0-.385-.099-.696-.296-.936C71.07.72 70.825.6 70.537.6c-.27 0-.497.12-.685.361-.187.24-.28.546-.28.914 0 .382.098.693.296.934.198.24.44.36.726.36.27 0 .498-.122.685-.363.187-.242.282-.546.282-.912M76.062 3.675h-.682c0-.075-.252-.473-.759-1.194-.53-.76-.831-1.28-.904-1.56h-.045c.046.404.07.768.07 1.093 0 .454.012 1.008.038 1.661h-.679c.028-.57.042-1.197.042-1.879 0-.671-.014-1.243-.042-1.713h.82c0 .097.227.487.681 1.167.484.723.762 1.213.834 1.47h.04c-.044-.41-.065-.778-.065-1.103 0-.5-.014-1.01-.04-1.534h.69c-.025.456-.038 1.027-.038 1.713 0 .692.013 1.318.039 1.88M43.513 15.185c0 1.782-.53 3.203-1.587 4.261-1.2 1.26-2.765 1.89-4.69 1.89-1.843 0-3.408-.638-4.698-1.917-1.29-1.277-1.935-2.862-1.935-4.752 0-1.89.644-3.473 1.935-4.751C33.828 8.638 35.393 8 37.236 8c.915 0 1.788.177 2.622.534.83.356 1.497.833 1.996 1.426l-1.123 1.124c-.844-1.01-2.009-1.516-3.495-1.516-1.344 0-2.504.472-3.486 1.418-.98.944-1.47 2.173-1.47 3.681 0 1.51.49 2.737 1.47 3.682.982.945 2.142 1.418 3.486 1.418 1.426 0 2.616-.476 3.566-1.426.618-.618.975-1.481 1.07-2.586h-4.636v-1.533h6.187c.06.333.09.654.09.963M45.456 13.357c.844-.886 1.92-1.328 3.227-1.328s2.383.442 3.228 1.328c.844.886 1.266 1.994 1.266 3.325 0 1.332-.422 2.44-1.266 3.326-.845.885-1.921 1.328-3.228 1.328-1.307 0-2.383-.443-3.227-1.328-.844-.886-1.267-1.994-1.267-3.326 0-1.331.423-2.439 1.267-3.325m1.22 5.617c.566.576 1.233.864 2.007.864.773 0 1.442-.288 2.006-.864.564-.578.846-1.34.846-2.292 0-.95-.282-1.714-.846-2.291-.564-.576-1.233-.864-2.006-.864-.774 0-1.44.288-2.006.864-.564.577-.847 1.34-.847 2.291 0 .951.283 1.714.847 2.292M54.995 13.357c.844-.886 1.92-1.328 3.227-1.328s2.383.442 3.228 1.328c.843.886 1.265 1.994 1.265 3.325 0 1.332-.422 2.44-1.265 3.326-.845.885-1.92 1.328-3.228 1.328-1.308 0-2.383-.443-3.227-1.328-.844-.886-1.266-1.994-1.266-3.326 0-1.331.422-2.439 1.266-3.325m1.222 5.617c.564.576 1.232.864 2.005.864.773 0 1.441-.288 2.006-.864.565-.578.847-1.34.847-2.292 0-.95-.282-1.714-.847-2.291-.565-.576-1.233-.864-2.006-.864-.773 0-1.441.288-2.005.864-.566.577-.848 1.34-.848 2.291 0 .951.282 1.714.848 2.292M67.566 25.187c-1.035 0-1.879-.258-2.532-.775-.655-.517-1.124-1.11-1.409-1.774l1.497-.624c.167.474.473.873.92 1.194.444.32.952.481 1.524.481.903 0 1.613-.27 2.13-.811.517-.54.775-1.274.775-2.202v-.838h-.07c-.287.428-.69.785-1.213 1.07-.523.285-1.112.428-1.766.428-1.128 0-2.104-.445-2.923-1.337-.821-.892-1.23-1.997-1.23-3.317 0-1.319.409-2.425 1.23-3.316.82-.892 1.795-1.337 2.923-1.337.654 0 1.243.143 1.766.428.522.285.926.641 1.212 1.07h.071v-1.214h1.57v8.292c0 1.497-.435 2.635-1.302 3.415-.868.777-1.925 1.167-3.173 1.167m.125-5.349c.771 0 1.43-.285 1.969-.856.541-.57.811-1.337.811-2.3 0-.963-.27-1.729-.811-2.3-.54-.57-1.198-.855-1.97-.855-.76 0-1.415.288-1.961.864-.547.577-.82 1.34-.82 2.291 0 .951.273 1.715.82 2.292.546.576 1.2.864 1.962.864"/>
                        <mask id="sgq4v2n7fb" fill="#fff">
                            <use xlink:href="#6f43i8isza"/>
                        </mask>
                        <path fill="#6BAE7E" d="M73.593 21.05L75.231 21.05 75.231 8.284 73.593 8.284zM80.652 21.336c-1.32 0-2.392-.44-3.219-1.32-.825-.878-1.239-1.99-1.239-3.333 0-1.273.4-2.365 1.203-3.282.803-.914 1.829-1.372 3.076-1.372 1.296 0 2.333.422 3.112 1.266.778.844 1.167 1.973 1.167 3.388l-.016.302h-6.9c.045.88.34 1.576.881 2.086.542.511 1.174.767 1.899.767 1.177 0 1.973-.499 2.39-1.498l1.46.607c-.283.677-.754 1.245-1.407 1.703-.654.457-1.456.686-2.407.686zm2.353-5.705c-.036-.5-.264-.975-.686-1.427-.422-.452-1.05-.677-1.881-.677-.607 0-1.132.19-1.578.57-.446.38-.752.892-.918 1.534h5.063zM91.207 21.05h-1.64V8.285h4.35c1.082 0 2.017.36 2.81 1.079.789.72 1.184 1.626 1.184 2.72 0 1.093-.395 2-1.185 2.718-.792.72-1.727 1.079-2.81 1.079h-2.709v5.17zm0-6.739h2.746c.689 0 1.242-.232 1.658-.696.416-.463.624-.974.624-1.533 0-.558-.208-1.07-.624-1.533-.416-.464-.97-.695-1.658-.695h-2.746v4.457zM98.982 21.05L100.622 21.05 100.622 8.284 98.982 8.284zM104.846 21.336c-.927 0-1.702-.268-2.326-.802-.625-.535-.937-1.242-.937-2.122 0-.95.368-1.696 1.107-2.238.736-.54 1.645-.811 2.727-.811.963 0 1.753.178 2.37.535v-.25c0-.642-.219-1.156-.657-1.542-.441-.386-.982-.58-1.623-.58-.476 0-.907.113-1.292.34-.388.225-.651.534-.795.926l-1.498-.642c.202-.522.6-1.007 1.194-1.452.595-.447 1.38-.67 2.355-.67 1.117 0 2.044.328 2.781.981.737.655 1.105 1.575 1.105 2.765v5.277h-1.57v-1.213h-.07c-.653.998-1.61 1.498-2.87 1.498m.267-1.498c.677 0 1.292-.252 1.845-.757.553-.506.829-1.102.829-1.792-.462-.38-1.158-.57-2.085-.57-.798 0-1.397.172-1.802.516-.403.345-.606.748-.606 1.213 0 .427.184.766.553 1.016.368.25.79.374 1.266.374M112.924 24.902L111.23 24.902 113.263 20.498 109.662 12.313 111.445 12.313 114.047 18.591 114.083 18.591 116.615 12.313 118.397 12.313zM.007 14.451c0-4.078.002-8.155-.002-12.233 0-.5.097-.957.452-1.335C.595.736.693.696.863.869c2.743 2.8 5.493 5.593 8.244 8.386 1.78 1.81 3.56 3.62 5.348 5.422.173.175.189.266.005.45-4.373 4.347-8.743 8.7-13.1 13.063-.267.266-.454.238-.709.042-.466-.359-.646-.84-.645-1.413 0-2.416-.004-4.83-.006-7.246v-5.122h.007zM1.574.417c.335-.002.569.094.796.221 5.584 3.13 11.169 6.26 16.756 9.382.257.144.252.224.054.42-1.25 1.229-2.488 2.468-3.726 3.707-.134.134-.216.211-.395.028C10.616 9.644 6.166 5.12 1.72.594 1.682.556 1.65.51 1.574.417M2.824 28.086c4.054-4.097 8.11-8.191 12.155-12.298.25-.255.368-.22.592.013 1.028 1.07 2.07 2.125 3.117 3.175.184.185.2.26-.05.398-5.204 2.848-10.403 5.706-15.603 8.56-.086.047-.166.124-.21.152M25.982 14.565c-.018.46-.235.781-.564 1.023-.241.18-.51.327-.775.473-1.573.87-3.15 1.731-4.72 2.608-.213.117-.339.113-.513-.07-1.118-1.154-2.245-2.298-3.38-3.436-.165-.167-.17-.258 0-.424 1.32-1.301 2.635-2.61 3.942-3.924.155-.156.265-.173.457-.064 1.554.881 3.116 1.75 4.674 2.623.482.27.858.62.879 1.19" mask="url(#sgq4v2n7fb)"/>
                    </g>
                </g>
            </g>
        </g>
    </g>
</svg>
