<svg xmlns="http://www.w3.org/2000/svg" width="42" height="42" viewBox="0 0 42 42">
    <g fill="none" fill-rule="evenodd">
        <g>
            <g>
                <path d="M0 0H42V42H0z" transform="translate(-1301 -415) translate(1301 415)"/>
                <g fill-rule="nonzero">
                    <g stroke="#8D8682" stroke-width="1.4">
                        <path d="M0 .33C0 .146.142 0 .317 0h27.859c.175 0 .317.147.317.33v5.103c0 .181-.142.329-.317.329H15.829v-4.18h-3.166v4.18H.317c-.175 0-.317-.148-.317-.33V.33zM12.663 7.408h-9.18c-.175 0-.317.147-.317.33v12.51c0 .183.142.33.316.33h9.181V7.408zM15.83 20.578h9.18c.175 0 .317-.147.317-.33V7.739c0-.183-.142-.33-.317-.33h-9.18v13.17z" transform="translate(-1301 -415) translate(1301 415) translate(7 7) translate(0 7.249)"/>
                    </g>
                    <path fill="#8D8682" d="M5.73 1.9c-1.106 1.106-1.515 2.427-.62 3.707.973 1.39 3.452 2.437 7.764 3.196.738.13 1.41-.461 1.365-1.2l-.017-.14c-.4-2.195-1.371-4.431-2.63-5.745C9.887-.059 7.745-.116 5.73 1.9zm4.82 1.2c.733.863 1.366 2.196 1.755 3.604l.072.277-.017-.002c-3.387-.665-5.265-1.5-5.856-2.347-.316-.45-.165-.937.429-1.53 1.332-1.333 2.379-1.305 3.431-.207l.186.205z" transform="translate(-1301 -415) translate(1301 415) translate(7 7)"/>
                    <path fill="#8D8682" d="M16.976 1.71c-1.295 1.319-2.301 3.567-2.704 5.75-.149.804.561 1.482 1.347 1.343 4.31-.758 6.811-1.804 7.818-3.182.933-1.277.553-2.621-.548-3.722-2.013-2.013-4.175-1.957-5.913-.188zm4.711 1.391c.578.578.714 1.057.377 1.517l-.077.099c-.464.547-1.458 1.085-3.037 1.573l-.62.18c-.54.148-1.137.291-1.794.428l-.418.082.073-.267c.43-1.517 1.161-2.96 1.997-3.81 1.088-1.107 2.166-1.135 3.5.198z" transform="translate(-1301 -415) translate(1301 415) translate(7 7)"/>
                </g>
            </g>
        </g>
    </g>
</svg>
