<svg xmlns="http://www.w3.org/2000/svg" width="34" height="34" viewBox="0 0 34 34">
    <g fill="none" fill-rule="evenodd">
        <g>
            <g>
                <path d="M0 0H34V34H0z" transform="translate(-1242 -661) translate(1242 661)"/>
                <g fill="#FFF" fill-rule="nonzero" stroke="#FFF" stroke-width=".2">
                    <path d="M.36 27.973h18.62c.193 0 .35-.157.35-.35V5.133c0-.047-.01-.092-.027-.134-.01-.025-.028-.044-.043-.065-.01-.015-.017-.033-.03-.046L14.538.105C14.472.038 14.382 0 14.288 0H.362C.168 0 .01.157.01.35v27.273c0 .193.157.35.35.35zM14.639 1.205l3.51 3.578h-3.51V1.205zM.711.7h13.228v4.434c0 .193.156.35.35.35h4.342v21.79H.71V.7zM23.601 27.201c.205.474.653.768 1.17.768.515 0 .963-.294 1.168-.768l1.838-4.252c.122-.283.184-.582.184-.891V3.528c0-.192-.155-.348-.346-.35v-1.39C27.615.802 26.813 0 25.827 0h-2.114c-.986 0-1.787.802-1.787 1.788v1.39c-.192.002-.347.158-.347.35v18.53c0 .308.062.608.184.891l1.838 4.252zm1.519-5.268V7.104h2.142v14.83H25.12zm-2.842 0V7.104h2.142v14.83h-2.142zm4.984-18.056v2.528h-4.984V3.877h4.984zm-1.965 23.046c-.094.217-.29.347-.527.347-.236 0-.433-.13-.527-.347l-.674-1.56h2.403l-.675 1.56zm.977-2.26h-3.008l-.86-1.991c-.006-.013-.008-.027-.013-.04h4.754c-.005.013-.006.027-.012.04l-.86 1.991zM23.714.7h2.113c.6 0 1.088.489 1.088 1.089v1.39h-4.29v-1.39c0-.6.488-1.089 1.088-1.089z" transform="translate(-1242 -661) translate(1242 661) translate(4 3)"/>
                </g>
            </g>
        </g>
    </g>
</svg>
