<svg xmlns="http://www.w3.org/2000/svg" width="92" height="92" viewBox="0 0 92 92">
    <g fill="none" fill-rule="evenodd">
        <g>
            <g transform="translate(-575 -774) translate(575 774)">
                <circle cx="46" cy="46" r="46"/>
                <g>
                    <path fill="#F8E4F8" d="M46.844 21C55.73 21 63 28.398 63 37.435v.713l-.001.096.001.06v.71c0 8.993-7.246 16.35-16.104 16.35H40.09c1.708 0 3.356-.274 4.904-.78h-8.4c-.149.004-.185.026-.415.146l-6.044 2.488c-.348.13-.514.03-.495-.326l-.046-6.132c.008-.055.022-.063-.014-.094-3.494-3.022-5.717-7.517-5.717-12.518v-.713c0-9.037 7.27-16.435 16.153-16.435h6.827z" transform="translate(14 17) matrix(-1 0 0 1 86.864 0)"/>
                    <path fill="#D184D1" d="M28.918 6.99c.126 0 .251.001.377.003l.143.003.218.007.196.008.175.009.165.01c.095.006.19.012.285.02l.048.003c.092.007.183.015.275.024l.159.015c.236.024.472.052.706.084l.128.018.217.032.203.033.179.03.109.02c.09.015.18.032.27.05l.112.022.247.05.126.028c.349.076.694.162 1.036.256l.158.045.202.059.127.038.2.061.17.055.145.047.208.071c.445.153.883.322 1.313.505l.118.05.207.091.099.045c.09.04.18.082.27.124l.066.032c.214.101.427.207.638.316l.013.007c.144.075.287.152.429.23.729.4 1.431.845 2.103 1.33l.078.057c.073.052.145.105.216.158l.068.052c.17.128.337.257.501.39l.08.065c2.762 2.244 4.929 5.195 6.22 8.57l.018.05.023.06c.106.282.206.568.3.856l.043.135c.089.279.171.56.248.844l.037.14c.073.276.14.556.2.838l.039.178c.058.281.11.565.157.85l.026.163c.074.48.131.965.171 1.455l.008.104c.023.306.04.613.049.922.006.206.01.412.01.618l-.006-.458.002.113.003.345v.883c0 11.186-9.148 20.337-20.33 20.337H16.043c-.207.003-.245.027-.545.181l-7.606 3.079c-.438.16-.646.037-.622-.404l-.059-7.587c.01-.069.028-.079-.017-.117C2.797 39.96 0 34.398 0 28.208v-.882C0 16.144 9.148 6.99 20.328 6.99h8.59z" transform="translate(14 17)"/>
                    <path fill="#FFD074" fill-rule="nonzero" d="M35.751 28.702H13.563c-.495 0-.896-.402-.896-.897s.401-.896.896-.896h22.188c.495 0 .896.401.896.896s-.4.897-.896.897zM30.129 22.616H13.563c-.495 0-.896-.401-.896-.896s.401-.897.896-.897H30.13c.495 0 .896.402.896.897s-.401.896-.896.896zM35.751 34.784H13.563c-.495 0-.896-.402-.896-.897s.401-.896.896-.896h22.188c.495 0 .896.401.896.896s-.4.897-.896.897z" transform="translate(14 17)"/>
                    <path fill="#282828" fill-rule="nonzero" d="M54.765 1.991C53.565.721 51.895 0 50.147 0c-1.749 0-3.42.72-4.62 1.991l-1.912 1.992-1.912-1.992C40.503.721 38.832 0 37.083 0c-1.747 0-3.418.72-4.618 1.991-2.55 2.7-2.55 6.92 0 9.62l11.15 11.61 11.15-11.61c2.55-2.7 2.55-6.92 0-9.62z" transform="translate(14 17)"/>
                </g>
            </g>
        </g>
    </g>
</svg>
