<svg xmlns="http://www.w3.org/2000/svg" width="35" height="35" viewBox="0 0 35 35">
    <g fill="none" fill-rule="evenodd" opacity=".512">
        <g>
            <g>
                <g>
                    <path d="M0 0H35V35H0z" transform="translate(-1158 -720) translate(380 712) translate(778 8)"/>
                    <g fill="#000" fill-rule="nonzero">
                        <path d="M17.656 1.563h-.937V0h-1.563v1.563H4.844V0H3.28v1.563h-.937C1.05 1.563 0 2.612 0 3.905v13.75C0 18.95 1.051 20 2.344 20h15.312C18.95 20 20 18.949 20 17.656V3.906c0-1.292-1.051-2.344-2.344-2.344zm.782 16.093c0 .431-.351.782-.782.782H2.344c-.431 0-.781-.351-.781-.782V7.344h16.875v10.312zm0-11.875H1.563V3.906c0-.43.35-.781.78-.781h.938v1.563h1.563V3.125h10.312v1.563h1.563V3.125h.937c.431 0 .782.35.782.781v1.875z" transform="translate(-1158 -720) translate(380 712) translate(778 8) translate(7 8)"/>
                    </g>
                </g>
            </g>
        </g>
    </g>
</svg>
