<svg xmlns="http://www.w3.org/2000/svg" xmlns:xlink="http://www.w3.org/1999/xlink" width="68" height="68" viewBox="0 0 68 68">
    <defs>
        <path id="f4ccw5qp5a" d="M30.941 6.955c-.294-.195-.526-.375-.78-.515-6.737-3.694-13.402-3.606-19.814.67-3.989 2.663-6.265 6.516-6.612 11.357-.249 3.46.75 6.61 2.815 9.393.56.755.707 1.462.395 2.353-.552 1.574-1.027 3.175-1.531 4.765-.128.404-.244.812-.404 1.348.308-.14.483-.211.652-.296 1.753-.885 3.525-1.736 5.248-2.675.861-.47 1.626-.53 2.497-.068.582.309 1.237.48 1.989.762-.174-.356-.267-.55-.362-.742-1.856-3.755-2.386-7.706-1.358-11.753 1.79-7.047 6.48-11.39 13.246-13.637 1.273-.422 2.616-.632 4.02-.962m18.1 35.56c-.093-.335-.151-.577-.226-.814-.566-1.778-1.106-3.564-1.715-5.327-.301-.872-.156-1.562.393-2.297 1.933-2.585 2.933-5.522 2.855-8.747-.116-4.76-2.187-8.602-5.906-11.505-6.418-5.01-15.5-5.09-21.997-.181-3.945 2.981-6.15 6.964-6.128 11.978.02 4.635 1.971 8.456 5.557 11.305 5.701 4.53 12.033 5.214 18.748 2.551.924-.367 1.685-.394 2.563.084 1.758.96 3.562 1.836 5.348 2.743.131.067.272.114.508.21M20.649.712c5.841.156 10.844 2.033 14.965 6.081.178.175.463.294.714.331 4.445.664 8.36 2.446 11.585 5.598 3.776 3.69 5.698 8.187 5.525 13.494-.106 3.275-1.13 6.286-2.952 9.013-.226.338-.29.614-.158 1.019.952 2.932 1.88 5.871 2.8 8.814.318 1.015-.146 1.925-1.114 2.088-.388.065-.864-.054-1.228-.235-2.778-1.383-5.544-2.79-8.299-4.22-.46-.24-.837-.248-1.32-.073-7.161 2.6-13.932 1.866-20.241-2.475-.853-.587-1.58-1.352-2.389-2.007-.245-.198-.55-.357-.854-.442-1.679-.467-3.363-.914-5.051-1.344-.24-.06-.553-.077-.761.027-2.775 1.39-5.538 2.803-8.304 4.21-.14.072-.278.148-.421.213-.62.283-1.231.298-1.772-.156-.56-.469-.668-1.081-.451-1.764.737-2.32 1.474-4.642 2.209-6.963.231-.73.68-1.48.623-2.188-.057-.686-.627-1.334-.984-1.991C-1.1 20.613.287 12.065 6.259 6.416 9.82 3.048 14.085 1.248 18.951.83c.606-.052 1.214-.085 1.698-.118"/>
    </defs>
    <g fill="none" fill-rule="evenodd">
        <g>
            <g>
                <g>
                    <g>
                        <g transform="translate(-1306 -833) translate(370 815) translate(936 18) translate(7 10) translate(.366 .49)">
                            <mask id="ndpkep2x8b" fill="#fff">
                                <use xlink:href="#f4ccw5qp5a"/>
                            </mask>
                            <use fill="#000" xlink:href="#f4ccw5qp5a"/>
                            <path fill="#8D8682" d="M15.317 33.89c.927 1.806 2.13 3.336 3.605 4.59 1.476 1.253-3.215 4.345-14.074 9.276l-6.925-5.24-.818-17.693L.6-1.33l32.625-5.423 9.06 11.776-5.568 2.163c-2.189-.346-4.343-.369-6.463-.069s-7.803 2.064-17.05 5.292l-4.51 13.11 6.624 8.371z" mask="url(#ndpkep2x8b)"/>
                        </g>
                        <path fill="#000" d="M41.32 25.984c-.015-.842-.713-1.527-1.55-1.52-.865.006-1.553.73-1.525 1.602.028.855.715 1.5 1.577 1.48.854-.02 1.513-.707 1.498-1.562m-13.934 1.562c.86.004 1.536-.657 1.548-1.514.01-.844-.667-1.552-1.504-1.571-.866-.02-1.578.682-1.575 1.555.002.856.672 1.526 1.53 1.53m6.184.004c.853.009 1.556-.659 1.581-1.502.026-.837-.717-1.588-1.569-1.584-.83.003-1.547.715-1.551 1.54-.004.833.697 1.537 1.539 1.546m15.839 15.454c-.235-.096-.377-.143-.508-.21-1.786-.907-3.59-1.783-5.348-2.742-.878-.48-1.639-.451-2.563-.085-6.715 2.664-13.047 1.98-18.748-2.55-3.586-2.85-5.536-6.671-5.556-11.305-.022-5.015 2.182-8.997 6.127-11.979 6.497-4.91 15.579-4.83 21.997.18 3.72 2.905 5.79 6.747 5.906 11.506.078 3.225-.922 6.162-2.855 8.748-.549.734-.694 1.425-.393 2.296.609 1.763 1.15 3.55 1.715 5.327.075.237.133.48.226.814" transform="translate(-1306 -833) translate(370 815) translate(936 18) translate(7 10)"/>
                        <path fill="#8D8682" d="M31.308 7.444c-1.404.33-2.747.54-4.02.962-6.765 2.247-11.456 6.59-13.246 13.638-1.028 4.046-.498 7.997 1.358 11.752l.362.742c-.752-.282-1.407-.453-1.989-.762-.871-.462-1.636-.4-2.497.068-1.723.94-3.495 1.79-5.248 2.675-.169.085-.344.157-.652.296.16-.536.276-.944.404-1.347.504-1.59.98-3.192 1.531-4.766.312-.89.165-1.598-.395-2.353-2.064-2.783-3.063-5.932-2.815-9.393.347-4.841 2.623-8.694 6.613-11.356 6.41-4.277 13.076-4.365 19.813-.67.254.14.487.32.78.514" transform="translate(-1306 -833) translate(370 815) translate(936 18) translate(7 10)"/>
                        <path fill="#FFF" stroke="#FFF" d="M33.569 27.55c-.842-.01-1.543-.713-1.539-1.545.004-.826.721-1.538 1.551-1.541.852-.004 1.595.747 1.57 1.584-.026.843-.73 1.511-1.582 1.502M27.386 27.546c-.86-.004-1.53-.674-1.531-1.53-.003-.873.71-1.576 1.575-1.555.837.019 1.515.727 1.504 1.57-.012.858-.688 1.52-1.548 1.515M41.32 25.984c.015.855-.644 1.543-1.498 1.562-.862.02-1.549-.625-1.577-1.48-.028-.872.66-1.596 1.524-1.603.838-.006 1.536.679 1.551 1.521" transform="translate(-1306 -833) translate(370 815) translate(936 18) translate(7 10)"/>
                    </g>
                </g>
            </g>
        </g>
    </g>
</svg>
