<svg xmlns="http://www.w3.org/2000/svg" width="58" height="58" viewBox="0 0 58 58">
    <g fill="none" fill-rule="evenodd">
        <g>
            <g>
                <path d="M0 0H58V58H0z" transform="translate(-650 -1285) translate(650 1285)"/>
                <g fill-rule="nonzero">
                    <path fill="#8D8682" d="M52.059 8.824c.487 0 .882-.396.882-.883V.882c0-.487-.395-.882-.882-.882H20.294c-.234 0-.458.093-.624.259l-2.023 2.023L15.624.259C15.458.093 15.234 0 15 0H.882C.395 0 0 .395 0 .882v7.06c0 .486.395.882.882.882 1.928-.007 3.747.893 4.912 2.43.825 1.074 1.27 2.392 1.265 3.746-.004 3.41-2.767 6.173-6.177 6.176-.487 0-.882.396-.882.883v7.059c0 .487.395.882.882.882H15c.234 0 .458-.093.624-.259l2.023-2.023 2.023 2.023c.166.166.39.259.624.259H52.06c.487 0 .882-.395.882-.882v-7.06c0-.486-.395-.882-.882-.882-3.411 0-6.177-2.765-6.177-6.176s2.766-6.176 6.177-6.176z" transform="translate(-650 -1285) translate(650 1285) translate(3 14)"/>
                    <path fill="#FFF" d="M16.765 13.235L18.529 13.235 18.529 16.765 16.765 16.765zM16.765 19.412L18.529 19.412 18.529 22.941 16.765 22.941zM16.765 7.059L18.529 7.059 18.529 10.588 16.765 10.588z" transform="translate(-650 -1285) translate(650 1285) translate(3 14)"/>
                    <path fill="#FFF" d="M25.337 13.677L39.061 13.677 39.061 15.442 25.337 15.442z" transform="translate(-650 -1285) translate(650 1285) translate(3 14) rotate(-45 32.199 14.56)"/>
                    <path fill="#FFF" d="M29 13c1.105 0 2-.895 2-2s-.895-2-2-2-2 .895-2 2c.001 1.104.896 1.999 2 2zM36 16c-1.105 0-2 .895-2 2s.895 2 2 2 2-.895 2-2c-.001-1.104-.896-1.999-2-2z" transform="translate(-650 -1285) translate(650 1285) translate(3 14)"/>
                </g>
            </g>
        </g>
    </g>
</svg>
