<?xml version="1.0" encoding="UTF-8"?>
<svg width="130px" height="35px" viewBox="0 0 130 35" version="1.1" xmlns="http://www.w3.org/2000/svg" xmlns:xlink="http://www.w3.org/1999/xlink">
    <title>0FC00B2C-9A1F-4D5C-BA60-62324473401A</title>
    <defs>
        <polygon id="path-1" points="0.2632 0.11865 12.119 0.11865 12.119 18.44865 0.2632 18.44865"></polygon>
        <polygon id="path-3" points="0 29.9183 76.119 29.9183 76.119 -0.0002 0 -0.0002"></polygon>
    </defs>
    <g id="Page-1" stroke="none" stroke-width="1" fill="none" fill-rule="evenodd">
        <g id="ICON-STYLE-GUIDE" transform="translate(-702.000000, -535.000000)">
            <g id="Group-6" transform="translate(702.000000, 535.000000)">
                <rect id="Rectangle" x="0" y="0" width="130" height="35"></rect>
                <g id="Group-11" transform="translate(27.000000, 3.000000)">
                    <path d="M40.8131,8.45025 L40.8131,14.80525 L44.1801,14.80525 C46.6461,14.80525 47.8791,13.78575 47.8791,11.74625 L47.8791,11.31975 C47.8791,10.33925 47.5831,9.61625 46.9901,9.14975 C46.3976,8.68375 45.5476,8.45025 44.4411,8.45025 L40.8131,8.45025 Z M38.4661,6.41075 L44.5711,6.41075 C45.5331,6.41075 46.3696,6.53375 47.0791,6.77875 C47.7891,7.02375 48.3771,7.36375 48.8426,7.79825 C49.3071,8.23325 49.6546,8.75075 49.8836,9.35125 C50.1126,9.95225 50.2266,10.60025 50.2266,11.29575 L50.2266,11.79375 C50.2266,12.48975 50.1046,13.14175 49.8601,13.75025 C49.6151,14.35875 49.2571,14.89225 48.7841,15.35075 C48.3106,15.80925 47.7236,16.17275 47.0221,16.44125 C46.3206,16.71075 45.5041,16.84475 44.5736,16.84475 L40.8131,16.84475 L40.8131,23.50775 L38.4661,23.50775 L38.4661,6.41075 Z" id="Fill-1" fill="#6B6B6B"></path>
                    <path d="M59.9952,17.60335 L56.7472,17.60335 C55.8457,17.60335 55.2017,17.77785 54.8147,18.12485 C54.4267,18.47285 54.2337,18.95485 54.2337,19.57135 L54.2337,19.90335 C54.2337,20.53585 54.4547,20.99435 54.8972,21.27885 C55.3397,21.56335 55.8697,21.70585 56.4857,21.70585 C57.0552,21.70585 57.5487,21.63885 57.9677,21.50435 C58.3867,21.36985 58.7702,21.16835 59.1182,20.89935 C59.4342,20.66235 59.6592,20.38985 59.7942,20.08135 C59.9277,19.77335 59.9952,19.37435 59.9952,18.88385 L59.9952,17.60335 Z M56.2492,23.69735 C54.9367,23.69735 53.8977,23.37335 53.1307,22.72535 C52.3637,22.07735 51.9812,21.18435 51.9812,20.04585 L51.9812,19.40535 C51.9812,18.29935 52.3522,17.39835 53.0952,16.70235 C53.8382,16.00685 55.0397,15.65885 56.6992,15.65885 L59.9952,15.65885 L59.9952,14.90035 C59.9952,14.03085 59.7857,13.38635 59.3667,12.96785 C58.9477,12.54885 58.2647,12.33935 57.3162,12.33935 C56.5572,12.33935 55.8972,12.45785 55.3362,12.69485 C54.7752,12.93185 54.1937,13.24835 53.5932,13.64335 L52.4552,11.93635 C53.0877,11.49385 53.7982,11.11035 54.5887,10.78585 C55.3797,10.46235 56.2967,10.29985 57.3392,10.29985 C58.0667,10.29985 58.7307,10.39085 59.3317,10.57235 C59.9317,10.75435 60.4492,11.02335 60.8842,11.37885 C61.3187,11.73435 61.6587,12.16935 61.9037,12.68285 C62.1492,13.19685 62.2717,13.77785 62.2717,14.42635 L62.2717,23.50785 L60.0667,23.50785 L60.0667,21.94285 L60.0427,21.94285 C59.9162,22.17985 59.7462,22.39735 59.5327,22.59485 C59.3192,22.79285 59.0862,22.96235 58.8337,23.10485 C58.4852,23.29435 58.1102,23.44035 57.7072,23.54335 C57.3037,23.64585 56.8182,23.69735 56.2492,23.69735 L56.2492,23.69735 Z" id="Fill-3" fill="#6B6B6B"></path>
                    <g id="Group-7" transform="translate(64.000000, 10.418300)">
                        <mask id="mask-2" fill="white">
                            <use xlink:href="#path-1"></use>
                        </mask>
                        <g id="Clip-6"></g>
                        <polygon id="Fill-5" fill="#6B6B6B" mask="url(#mask-2)" points="6.2862 10.48115 9.7007 0.11865 12.1192 0.11865 5.3847 18.44865 3.2982 17.71315 4.9822 13.27915 0.2632 0.11865 2.7532 0.11865 6.1912 10.48115"></polygon>
                    </g>
                    <mask id="mask-4" fill="white">
                        <use xlink:href="#path-3"></use>
                    </mask>
                    <g id="Clip-9"></g>
                    <polygon id="Fill-8" fill="#6B6B6B" mask="url(#mask-4)" points="0 29.9178 29.9175 29.9178 29.9175 -0.0002 0 -0.0002"></polygon>
                    <polygon id="Fill-10" fill="#FFFFFF" mask="url(#mask-4)" points="17.338 21.8072 12.512 14.7177 12.512 21.8072 7.4795 21.8072 7.4795 8.1112 12.582 8.1112 17.4085 15.1997 17.4085 8.1112 22.4385 8.1112 22.4385 21.8072"></polygon>
                </g>
            </g>
        </g>
    </g>
</svg>