<svg xmlns="http://www.w3.org/2000/svg" width="34" height="34" viewBox="0 0 34 34">
    <g fill="none" fill-rule="evenodd">
        <g>
            <g>
                <path d="M0 0H34V34H0z" transform="translate(-1183 -661) translate(1183 661)"/>
                <g fill="#000" fill-rule="nonzero" stroke="#000" stroke-width=".2">
                    <path d="M6.607 9.853h10.028c.207 0 .374-.168.374-.375s-.167-.375-.374-.375H6.607c-.207 0-.374.168-.374.375s.167.375.374.375zM6.607 13.94h10.028c.207 0 .374-.167.374-.374s-.167-.375-.374-.375H6.607c-.207 0-.374.168-.374.375s.167.374.374.374zM6.607 18.028h10.028c.207 0 .374-.168.374-.374 0-.207-.167-.375-.374-.375H6.607c-.207 0-.374.168-.374.375 0 .206.167.374.374.374zM6.607 22.116h10.028c.207 0 .374-.168.374-.375 0-.206-.167-.374-.374-.374H6.607c-.207 0-.374.168-.374.374 0 .207.167.375.374.375z" transform="translate(-1183 -661) translate(1183 661) translate(5 2)"/>
                    <path d="M21.894 0H1.333C.615 0 .031.584.031 1.302v27.367c0 .718.584 1.302 1.302 1.302h20.561c.718 0 1.302-.584 1.302-1.302V1.302C23.196.584 22.612 0 21.894 0h0zM7.218 5.37h8.791c.965 0 1.75-.775 1.75-1.726V3.25h1.824v22.685H3.644V3.25H5.47v.394c0 .951.785 1.726 1.749 1.726zm9.79-1.726c0 .538-.447.977-.999.977H7.218c-.551 0-1-.439-1-.977V3.25h10.79v.394zM6.219 2.5V.749h10.79v1.752H6.219zm16.229 26.168c0 .305-.248.552-.553.552H1.333c-.305 0-.552-.247-.552-.552V1.302c0-.305.247-.553.552-.553h4.136v1.752h-2.2c-.206 0-.374.167-.374.374V26.31c0 .207.168.374.375.374h16.688c.206 0 .374-.167.374-.374V2.875c0-.207-.168-.374-.375-.374h-2.199V.749h4.136c.305 0 .553.248.553.553v27.367h0z" transform="translate(-1183 -661) translate(1183 661) translate(5 2)"/>
                </g>
            </g>
        </g>
    </g>
</svg>
