<svg xmlns="http://www.w3.org/2000/svg" width="92" height="92" viewBox="0 0 92 92">
    <g fill="none" fill-rule="evenodd">
        <g>
            <g transform="translate(-797 -774) translate(797 774)">
                <circle cx="46" cy="46" r="46"/>
                <g fill-rule="nonzero" transform="translate(14 17)">
                    <g>
                        <path fill="#FFD074" d="M49.424 35.212c0 1.907-1.538 3.445-3.445 3.445h-3.077c1.908 0 3.446 1.538 3.446 3.446 0 1.938-1.538 3.476-3.446 3.476h-3.076c1.907 0 3.445 1.538 3.445 3.476 0 1.907-1.538 3.445-3.445 3.445H29.43c-4.307-1.077-1.785-.462-12.305-3.076v-24.61c.03 0 6.644-1.784 9.905-3.445 2.892-1.446 4.891-6.552 5.353-10.336.061-.461.338-.892.738-1.138.277-.154.585-.215.923-.185.123-.03.277 0 .4.062 2.522.923 4.091 3.507 3.691 6.183-.646 4.276-1.261 5.783-2.4 8.86H45.98c1.907 0 3.445 1.538 3.445 3.445 0 1.938-1.538 3.476-3.445 3.476 1.907 0 3.445 1.538 3.445 3.476z" transform="translate(0 5.912)"/>
                        <path fill="#D184D1" d="M7.69 49.424H1.538c-.85 0-1.538-.688-1.538-1.538V26.353c0-.85.688-1.539 1.538-1.539H7.69c.85 0 1.539.688 1.539 1.539v21.533c0 .85-.688 1.538-1.539 1.538z" transform="translate(0 5.912)"/>
                        <path fill="#282828" d="M20.2 17.124c.85 0 1.538.688 1.538 1.538 0 .85-.688 1.538-1.538 1.538h-3.076c-.85 0-1.538-.688-1.538-1.538 0-.85.688-1.538 1.538-1.538H20.2zm30.762 0c.85 0 1.538.688 1.538 1.538 0 .85-.688 1.538-1.538 1.538h-3.076c-.85 0-1.538-.688-1.538-1.538 0-.85.688-1.538 1.538-1.538h3.076zM23.167 5.611l2.175 2.175c.6.6.6 1.574 0 2.175-.601.6-1.574.6-2.175 0l-2.175-2.175c-.601-.6-.601-1.574 0-2.175.6-.6 1.574-.6 2.175 0zm23.927 0c.6.6.6 1.574 0 2.175L44.92 9.96c-.6.6-1.574.6-2.175 0-.6-.6-.6-1.574 0-2.175L44.92 5.61c.601-.6 1.574-.6 2.175 0zM34.043 0c.861 0 1.538.677 1.538 1.538V4.82c0 .814-.604 1.463-1.396 1.532l-.142.006c-.861 0-1.538-.676-1.538-1.538V1.54c0-.862.677-1.539 1.538-1.539z" transform="translate(0 5.912)"/>
                        <path fill="#ED9FED" d="M14.048 52.5H7.69c-.849 0-1.538-.689-1.538-1.538V24.814h12.51v23.072c0 2.548-2.066 4.614-4.614 4.614z" transform="translate(0 5.912)"/>
                    </g>
                    <circle cx="53.903" cy="2.669" r="1.794" fill="#7FCCCB" transform="rotate(-80.792 53.903 2.67)"/>
                    <circle cx="60.296" cy="31.742" r="1.794" fill="#6BAE7E" transform="rotate(-45 60.296 31.742)"/>
                    <path fill="#6BAE7E" d="M9.418 9.765l.883 2.482c.038.107.112.19.207.233l2.206.994c.311.14.311.637 0 .778l-2.206.993c-.095.043-.17.127-.207.233l-.883 2.483c-.125.351-.566.351-.69 0l-.884-2.483c-.038-.106-.112-.19-.207-.233l-2.206-.993c-.311-.14-.311-.637 0-.778l2.206-.994c.094-.042.17-.126.207-.233l.883-2.482c.125-.351.566-.351.69 0z"/>
                    <path fill="#FFD074" d="M57.875 8.27l.655 1.842c.028.08.083.142.153.173l1.636.737c.232.104.232.473 0 .577l-1.636.737c-.07.032-.125.094-.153.173l-.655 1.842c-.093.26-.42.26-.513 0l-.655-1.842c-.028-.079-.083-.141-.153-.173l-1.636-.737c-.232-.104-.232-.473 0-.577l1.636-.737c.07-.031.125-.094.153-.173l.655-1.842c.093-.26.42-.26.513 0z"/>
                    <circle cx="61.215" cy="25.535" r="1" fill="#6BAE7E"/>
                    <circle cx="3.521" cy="22.565" r="1.536" fill="#FFD074" transform="rotate(-82.996 3.52 22.565)"/>
                </g>
            </g>
        </g>
    </g>
</svg>
