<svg xmlns="http://www.w3.org/2000/svg" xmlns:xlink="http://www.w3.org/1999/xlink" width="100" height="40" viewBox="0 0 100 40">
    <defs>
        <path id="dtxxi2a4ua" d="M0 16.611L99.74 16.611 99.74 0.234 0 0.234z"/>
    </defs>
    <g fill="none" fill-rule="evenodd">
        <g>
            <g>
                <path d="M0 0H100V40H0z" transform="translate(-734 -693) translate(734 693)"/>
                <g>
                    <path fill="#776C61" d="M65.99 8.402h6.625V2.808h-6.624v5.594zm1.394-1.22h3.844v-3.16h-3.844v3.16zM59.549 7.439L59.549 9.187 63.646 9.187 63.646 13.758 62.246 13.758 62.246 10.395 54.025 10.395 54.025 9.187 58.153 9.187 58.153 7.439 53.168 7.439 53.168 6.232 62.182 6.232 62.182 3.816 54.178 3.816 54.178 2.615 63.582 2.615 63.582 6.223 64.585 6.223 64.585 7.439zM76.043 13.712L67.252 13.712 67.252 9.603 68.652 9.603 68.652 12.502 76.043 12.502zM74.543 9.884L75.935 9.884 75.935 2.54 74.543 2.54zM28.193 2.632L29.969 2.632 29.969 7.61 35.947 2.632 38.461 2.632 32.144 7.655 38.985 13.755 36.472 13.755 29.969 7.794 29.969 13.755 28.193 13.755z" transform="translate(-734 -693) translate(734 693) translate(0 11)"/>
                    <g transform="translate(-734 -693) translate(734 693) translate(0 11) translate(0 .098)">
                        <path fill="#776C61" d="M41.995 12.417h3.496c2.172 0 2.747-.847 2.747-1.925 0-1.279-.883-1.987-2.84-1.987h-3.403v3.912zm0-5.176h3.608c1.34 0 2.33-.508 2.33-1.695 0-1.033-.489-1.723-2.534-1.723h-3.404v3.418zm-1.772-4.684h5.468c2.6 0 3.96.863 3.96 2.752 0 1.345-.937 2.269-2.186 2.518v.046c1.79.213 2.636 1.388 2.636 2.711 0 1.66-1.217 3.097-4.238 3.097h-5.64V2.557zM85.463 13.643L86.868 13.643 86.868 6.315 88.289 6.315 88.289 5.101 86.868 5.101 86.868 2.477 85.463 2.477z"/>
                        <mask id="ybnih2nqjb" fill="#fff">
                            <use xlink:href="#dtxxi2a4ua"/>
                        </mask>
                        <path fill="#776C61" d="M89.058 12.891L99.74 12.891 99.74 11.692 89.058 11.692zM91.42 4.131L98.591 4.131 98.591 2.931 90.04 2.931 90.04 9.369 98.591 9.369 98.591 8.17 91.42 8.17zM82.63 10.018L84.043 10.018 84.043 2.887 77.371 2.887 77.371 4.1 82.63 4.1z" mask="url(#ybnih2nqjb)"/>
                        <path fill="#776C61" d="M77.371 6.698L83.563 6.698 83.563 5.498 77.371 5.498z" mask="url(#ybnih2nqjb)"/>
                        <path fill="#FBAF17" d="M22.62 8.639l-.2-.127c-.679-.677-1.623-.97-2.885-.897-1.051.065-1.885.481-2.521.868l-.001-.028c0-.329.037-.686.074-1.033.037-.352.075-.71.075-1.05 0-.346-.04-.674-.159-.954-.03-.073-.096-.116-.18-.116-.34.008-1.003.24-1.163.381l-.088.192c-.006.375-.088 1.425-.171 1.553.003-.005-.046.126-.046.126-.142 1.5-.145 2.818-.013 3.95.015.114.233.284.4.346.184.067.762-.087 1.095-.214-.003.003.126-.018.126-.018.106-.012.168-.1.162-.22l.007-.326c.242-.977 1.215-2.142 2.366-2.318.65-.103 1.163.062 1.57.507.054.078.172.78-.257 1.589-.318.599-.957 1.101-1.797 1.418-.795.301-1.67.424-2.75.386l-1.011-.683c-.855-.6-1.92-1.35-2.885-1.716-.168-.065-.473-.317-.656-.469l-.099-.082c-.556-.445-1.615-1.15-2.466-1.718L8.69 7.68l.003-.096c.023-.027.557-.347.557-.347.748-.439 1.094-.653 1.168-.764-.015.017.1-.059.1-.059l1.854-1.048c1.779-.98 3.796-2.09 4.855-3.186.002 0 .052-.166.052-.166l.023-.15c.07-.235.075-.415.016-.623-.016-.06-.07-.128-.144-.141-.826-.082-1.894.413-2.865 1.324-.219.206-.403.306-.597.412l-.149.083c-1.071.607-3.483 2.104-4.745 2.912.083-1.357.334-3.288.643-4.898L9.426.74l-.13-.243-.1-.174-.028-.008C8.916.187 8.711.24 8.56.278l-.254.093-.334.122c-.067.013-.115.055-.14.119-.603 1.457-1.106 3.853-1.225 5.771-1.205-.767-2.32-1.317-2.864-1.583l-.016-.009-.066-.015c-.195-.024-.436-.169-.667-.308l-.457-.298-.7-.448c.006.005-.185-.043-.185-.043-.301.052-.878.44-1.05.704-.022.035-.031.075-.031.114 0 .054.017.111.032.165l.031.143.033.086c.335.344 1.182.918 2.013 1.364l.962.51 1.473.805c0 .006.253.199.253.199l.173.1.03.02-2.678 1.79-1.41.933c-.133.09-.691.341-.812.39-.307.123-.537.314-.634.522L0 11.605l.038.055.107.081c-.004-.001.145.094.145.094l.155.107c.003.002.147.022.147.022.247.01.615-.131 1.3-.431.63-.28 2.342-1.311 3.073-1.752l.313-.188c.128.01.272-.099.397-.195.147-.116.467-.312.662-.398.005-.001.117-.064.22-.122l-.002.084c.034 2.238.162 3.865.406 5.12l.005.022.023.05c.121.177.258.708.38 1.175l.278.935c.006.01.08.087.08.087.159.107.642.294.967.255l.08-.009.052-.114c.027-.14.037-.277.037-.428 0-.171-.013-.359-.028-.589l-.022-.337c-.102-1.562-.205-3.819-.205-5.32l.001-.118 1.427.898c1.975 1.282 4.96 3.219 6.764 3.731.095.029.193.006.262-.06l.278-.178.051-.021c.105-.05.174-.224.186-.413 1.52-.077 3.642-.662 4.776-2.088.44-.554.637-1.23.637-1.811 0-.476-.132-.885-.37-1.11" mask="url(#ybnih2nqjb)"/>
                    </g>
                </g>
            </g>
        </g>
    </g>
</svg>
