<svg xmlns="http://www.w3.org/2000/svg" width="17" height="17" viewBox="0 0 17 17">
    <g fill="none" fill-rule="evenodd">
        <g>
            <g transform="translate(-1283 -1583) translate(1283 1583)">
                <path fill="#8D8682" fill-rule="nonzero" d="M8.966 9.789c.063-.413.114-.803.152-1.172.037-.368.056-.744.056-1.127V3.878H7.703V7.49c0 .383.019.76.057 1.127.038.369.088.76.151 1.172h1.055zm-.543 3.309c.13 0 .255-.024.372-.073.118-.048.22-.114.304-.199.084-.084.151-.184.202-.3.05-.115.075-.24.075-.375 0-.13-.025-.255-.075-.373-.05-.118-.118-.219-.202-.303-.085-.084-.186-.152-.304-.202-.117-.05-.242-.076-.372-.076-.135 0-.261.025-.379.076-.118.05-.22.118-.306.202-.087.084-.154.185-.202.303-.049.118-.073.242-.073.373 0 .134.024.26.073.375.048.116.115.216.202.3.086.085.188.151.306.2.118.048.244.072.379.072z"/>
                <circle cx="8.5" cy="8.5" r="8" stroke="#8D8682"/>
            </g>
        </g>
    </g>
</svg>
