<svg xmlns="http://www.w3.org/2000/svg" width="20" height="20" viewBox="0 0 20 20">
    <g fill="none" fill-rule="evenodd">
        <g>
            <g>
                <path d="M0 0H20V20H0z" transform="translate(-1054 -467) translate(1054 467)"/>
                <g transform="translate(-1054 -467) translate(1054 467) translate(3 3)">
                    <circle cx="7" cy="7" r="6.5" stroke="#BBB3AB"/>
                    <path fill="#BBB3AB" fill-rule="nonzero" d="M7.63 8.45c.05-.327.09-.636.12-.927.03-.292.045-.59.045-.893V3.77H6.63v2.86c0 .303.015.6.045.893.03.291.07.6.12.927h.835zm-.43 2.62c.103 0 .202-.02.295-.058.093-.038.173-.09.24-.157s.12-.146.16-.238c.04-.091.06-.19.06-.297 0-.103-.02-.202-.06-.295-.04-.093-.093-.173-.16-.24s-.147-.12-.24-.16c-.093-.04-.192-.06-.295-.06-.107 0-.207.02-.3.06-.093.04-.174.093-.243.16-.068.067-.121.147-.16.24-.038.093-.057.192-.057.295 0 .107.02.206.057.297.039.092.092.171.16.238.069.067.15.12.243.157.093.039.193.058.3.058z"/>
                </g>
            </g>
        </g>
    </g>
</svg>
