<svg xmlns="http://www.w3.org/2000/svg" width="48" height="48" viewBox="0 0 48 48">
    <g fill="none" fill-rule="evenodd">
        <g>
            <g>
                <g>
                    <g>
                        <path d="M0 0H48V48H0z" transform="translate(-1104 -534) translate(660 398) translate(428 120) translate(16 16)"/>
                        <g fill="#FFF" fill-rule="nonzero">
                            <path d="M27.367 31H10.898c-2.003 0-3.632-1.63-3.632-3.633V10.898c0-2.003 1.63-3.632 3.632-3.632h16.47c2.003 0 3.632 1.63 3.632 3.632v16.47C31 29.37 29.37 31 27.367 31zM10.898 9.687c-.667 0-1.21.544-1.21 1.211v16.47c0 .667.543 1.21 1.21 1.21h16.47c.667 0 1.21-.543 1.21-1.21v-16.47c0-.667-.543-1.21-1.21-1.21h-16.47zM4.844 21.313H3.633c-.668 0-1.211-.544-1.211-1.211V3.632c0-.667.543-1.21 1.21-1.21h16.47c.667 0 1.21.543 1.21 1.21v1.151h2.422v-1.15c0-2.004-1.63-3.633-3.632-3.633H3.632C1.63 0 0 1.63 0 3.633v16.469c0 2.003 1.63 3.632 3.633 3.632h1.21v-2.422z" transform="translate(-1104 -534) translate(660 398) translate(428 120) translate(16 16) translate(8 9)"/>
                        </g>
                    </g>
                </g>
            </g>
        </g>
    </g>
</svg>
