<svg xmlns="http://www.w3.org/2000/svg" xmlns:xlink="http://www.w3.org/1999/xlink" width="76" height="76" viewBox="0 0 76 76">
    <defs>
        <circle id="dgmwvgrf9a" cx="37.5" cy="37.5" r="37.5"/>
    </defs>
    <g fill="none" fill-rule="evenodd">
        <g>
            <g>
                <g transform="translate(-823 -365) translate(370 315) translate(453 50)">
                    <g transform="translate(.5 .5)">
                        <mask id="wq2592zsub" fill="#fff">
                            <use xlink:href="#dgmwvgrf9a"/>
                        </mask>
                        <use fill="#FFF" xlink:href="#dgmwvgrf9a"/>
                        <path fill="#E0E0E0" d="M25.823 58.5L44.031 77.332 71.084 77.332 78.192 52.5 42.068 18.701 51.364 27.33 50.515 57.943 26.605 58.5" mask="url(#wq2592zsub)"/>
                    </g>
                    <g fill-rule="nonzero">
                        <path fill="#E5AFE5" d="M4.572 16.823L21.834 16.823 21.834 35.48 4.572 35.48z" transform="translate(25.5 19)"/>
                        <g fill="#000">
                            <path d="M13.203 4.154c-1.723 0-3.125 1.4-3.125 3.12 0 1.72 1.402 3.119 3.125 3.119s3.126-1.4 3.126-3.12c0-1.72-1.403-3.12-3.126-3.12zm0 4.676c-.862 0-1.563-.698-1.563-1.557 0-.858.701-1.557 1.563-1.557s1.563.699 1.563 1.557c0 .859-.701 1.557-1.563 1.557z" transform="translate(25.5 19)"/>
                            <path d="M26.106 8.347L17.068.201C16.925.07 16.738 0 16.545 0H9.861c-.193 0-.38.072-.523.2L.3 8.348c-.164.149-.258.36-.258.58V39.22c0 .431.35.781.781.781h24.76c.431 0 .781-.35.781-.781V8.928c0-.222-.094-.432-.258-.58zM1.605 38.437V9.276l8.556-7.713h6.084l8.557 7.713v29.163H1.605z" transform="translate(25.5 19)"/>
                            <path d="M7.375 21.21c0 .431.35.781.781.781H18.25c.431 0 .781-.35.781-.781 0-.431-.35-.781-.781-.781H8.156c-.431 0-.78.35-.78.781zM18.25 24.857H8.156c-.431 0-.78.35-.78.781 0 .432.349.781.78.781H18.25c.431 0 .781-.35.781-.78 0-.432-.35-.782-.781-.782zM14.001 29.285H8.156c-.431 0-.78.35-.78.781 0 .432.349.782.78.782h5.845c.432 0 .782-.35.782-.782 0-.431-.35-.78-.782-.78z" transform="translate(25.5 19)"/>
                        </g>
                    </g>
                    <circle cx="38" cy="38" r="37.5" stroke="#E0E0E0"/>
                </g>
            </g>
        </g>
    </g>
</svg>
