<?xml version="1.0" encoding="UTF-8"?>
<svg width="48px" height="48px" viewBox="0 0 48 48" version="1.1" xmlns="http://www.w3.org/2000/svg" xmlns:xlink="http://www.w3.org/1999/xlink">
    <title>E5536CFA-8E57-4D16-AD53-B461B8FC6A1F</title>
    <g id="Page-1" stroke="none" stroke-width="1" fill="none" fill-rule="evenodd">
        <g id="IM-PW-CM-10" transform="translate(-1104.000000, -401.000000)">
            <g id="Group-5" transform="translate(660.000000, 265.000000)">
                <g id="Group" transform="translate(428.000000, 120.000000)">
                    <g id="link/icon/linkcopypage" transform="translate(16.000000, 16.000000)">
                        <rect id="Rectangle-Copy-3" x="0" y="0" width="48" height="48"></rect>
                        <g id="copy" transform="translate(8.000000, 9.000000)" fill="#FFFFFF" fill-rule="nonzero">
                            <path d="M27.3671875,31 L10.8984375,31 C8.89509277,31 7.265625,29.3705322 7.265625,27.3671875 L7.265625,10.8984375 C7.265625,8.89509277 8.89509277,7.265625 10.8984375,7.265625 L27.3671875,7.265625 C29.3705322,7.265625 31,8.89509277 31,10.8984375 L31,27.3671875 C31,29.3705322 29.3705322,31 27.3671875,31 Z M10.8984375,9.6875 C10.230719,9.6875 9.6875,10.230719 9.6875,10.8984375 L9.6875,27.3671875 C9.6875,28.034906 10.230719,28.578125 10.8984375,28.578125 L27.3671875,28.578125 C28.034906,28.578125 28.578125,28.034906 28.578125,27.3671875 L28.578125,10.8984375 C28.578125,10.230719 28.034906,9.6875 27.3671875,9.6875 L10.8984375,9.6875 Z M4.84375,21.3125 L3.6328125,21.3125 C2.96509401,21.3125 2.421875,20.769281 2.421875,20.1015625 L2.421875,3.6328125 C2.421875,2.96509401 2.96509401,2.421875 3.6328125,2.421875 L20.1015625,2.421875 C20.769281,2.421875 21.3125,2.96509401 21.3125,3.6328125 L21.3125,4.78320312 L23.734375,4.78320312 L23.734375,3.6328125 C23.734375,1.62946777 22.1049072,0 20.1015625,0 L3.6328125,0 C1.62946777,0 0,1.62946777 0,3.6328125 L0,20.1015625 C0,22.1049072 1.62946777,23.734375 3.6328125,23.734375 L4.84375,23.734375 L4.84375,21.3125 Z" id="Shape"></path>
                        </g>
                    </g>
                </g>
            </g>
        </g>
    </g>
</svg>