<svg xmlns="http://www.w3.org/2000/svg" width="26" height="26" viewBox="0 0 26 26">
    <g fill="none" fill-rule="evenodd">
        <g>
            <g>
                <g>
                    <path d="M0 0H26V26H0z" transform="translate(-539 -1672) translate(537 1672) translate(2)"/>
                    <path fill="#FFF" fill-rule="nonzero" d="M20.472 4.809c-1.078-1.079-2.826-1.079-3.905 0L5.62 15.756c-.076.075-.13.168-.158.27l-1.44 5.198c-.059.213.001.441.158.598.156.156.384.216.597.157l5.198-1.44c.102-.028.195-.082.27-.157L21.192 9.434c1.077-1.079 1.077-2.826 0-3.905l-.72-.72zM6.957 16.155l8.96-8.96 2.889 2.89-8.96 8.96-2.89-2.89zm-.578 1.159l2.309 2.308-3.193.885.884-3.193zm13.946-8.748l-.651.651-2.89-2.89.651-.65c.6-.6 1.57-.6 2.17 0l.72.72c.598.6.598 1.57 0 2.17z" transform="translate(-539 -1672) translate(537 1672) translate(2)"/>
                </g>
            </g>
        </g>
    </g>
</svg>
