<svg xmlns="http://www.w3.org/2000/svg" xmlns:xlink="http://www.w3.org/1999/xlink" width="48" height="48" viewBox="0 0 48 48">
    <defs>
        <path id="ry4irw9s3a" d="M0 0L18.608 0 18.608 35.833 0 35.833z"/>
    </defs>
    <g fill="none" fill-rule="evenodd">
        <g>
            <g>
                <g>
                    <g>
                        <path d="M0 0H48V48H0z" transform="translate(-992 -534) translate(660 398) translate(316 120) translate(16 16)"/>
                        <g transform="translate(-992 -534) translate(660 398) translate(316 120) translate(16 16) translate(14 6)">
                            <mask id="l5alxt2job" fill="#fff">
                                <use xlink:href="#ry4irw9s3a"/>
                            </mask>
                            <path fill="#FEFEFE" d="M12.079 35.833V19.488h5.486l.821-6.37H12.08V9.05c0-1.844.512-3.101 3.156-3.101l3.373-.002V.251C18.025.173 16.023 0 13.693 0 8.83 0 5.501 2.969 5.501 8.42v4.698H0v6.37h5.5v16.345h6.579z" mask="url(#l5alxt2job)"/>
                        </g>
                    </g>
                </g>
            </g>
        </g>
    </g>
</svg>
