<svg xmlns="http://www.w3.org/2000/svg" xmlns:xlink="http://www.w3.org/1999/xlink" width="100" height="40" viewBox="0 0 100 40">
    <defs>
        <path id="8svnxm1pia" d="M0 0L76.713 0 76.713 27.948 0 27.948z"/>
    </defs>
    <g fill="none" fill-rule="evenodd">
        <g>
            <g>
                <path d="M0 0H100V40H0z" transform="translate(-734 -571) translate(734 571)"/>
                <g transform="translate(-734 -571) translate(734 571) translate(12 6)">
                    <mask id="daczxpezpb" fill="#fff">
                        <use xlink:href="#8svnxm1pia"/>
                    </mask>
                    <path fill="#0060A8" d="M49.13 26.539h3.14v-1.067h-3.14v1.067zm-1.149 1.191h5.427v-3.45h-5.427v3.45zm2.986-4.072c-.324-.165-.654-.395-.99-.689-.335-.294-.621-.64-.858-1.042-.182.401-.433.768-.752 1.1-.32.33-.654.61-1.002.838l-.829-.943c.505-.262.961-.667 1.369-1.212.406-.546.61-1.102.61-1.669v-1.108h1.22v1.108c0 .567.207 1.099.622 1.596.415.498.847.833 1.297 1.006l-.687 1.015zm2.441-1.751v1.937h-1.15v-5.129h1.15v2h.995v1.192h-.995zM59.526 25.44c-.328-.151-.737-.227-1.226-.227-.474 0-.877.07-1.209.212-.332.142-.497.337-.497.585 0 .235.165.437.497.607.332.17.735.253 1.209.253.49 0 .898-.077 1.226-.233.327-.155.492-.35.492-.585 0-.255-.165-.46-.492-.611zm.947 1.974c-.533.356-1.261.534-2.185.534-.916 0-1.64-.176-2.174-.529-.533-.352-.8-.811-.8-1.377 0-.56.267-1.02.8-1.379.533-.358 1.258-.538 2.174-.538.916 0 1.643.178 2.18.533.536.356.806.817.806 1.384 0 .56-.267 1.017-.8 1.372zm-2.031-3.735c-.316-.166-.644-.396-.984-.69-.34-.293-.628-.64-.864-1.04-.182.4-.431.767-.747 1.098-.316.331-.651.611-1.007.84l-.829-.944c.506-.262.961-.666 1.368-1.212.407-.546.61-1.102.61-1.67v-1.16h1.233v1.16c0 .568.207 1.1.622 1.597.414.498.847.832 1.297 1.005l-.7 1.016zm1.505.352v-2.539h-1.481V20.28h1.48v-1.565h1.15v5.316h-1.15zM68.519 23.575v4.259H67.38v-9.119h1.138v3.596h1.066v1.264H68.52zm-3.164.295c-.663 1.11-1.504 1.964-2.523 2.565l-.889-.828c.427-.221.908-.59 1.446-1.11.537-.518.896-1.04 1.078-1.564-.277.069-.598.124-.966.165-.367.042-.787.063-1.261.063v-1.099c.513 0 1.023-.024 1.528-.072.505-.048.873-.104 1.102-.166.031-.152.059-.32.083-.503.024-.183.043-.347.059-.492H62.5v-1.181h3.85c0 1.706-.331 3.114-.995 4.222zM69.167 26.861h7.546v-1.18h-7.546v1.18zm6.718-2.756H70.09v-4.591h5.746v1.192H71.24v2.207h4.645v1.192zM52.446 11.984C63.05 6.547 61.724 1.35 50.93.279 39.303-.876 22.312 1.626 10.474 6.407l-1.642.702c-12.328 5.512-11.162 11.346-.156 12.41 12.025 1.163 30.306-1.213 42.275-6.787l1.495-.748z" mask="url(#daczxpezpb)"/>
                    <path fill="#FEFEFE" d="M50.157 13.05s-2.026.163-2.075-1.47V8.42s-.252-1.743 2.02-1.743c0 0 1.475-.047 1.866.829 0 0 .194.235.141 1.204h-1.574v-.497s-.003-.4-.411-.4c0 0-.425.018-.425.355v3.267s-.02.439.46.439c0 0 .396-.01.396-.47v-.946h-.43v-.88h2.024v1.857s-.006.39-.168.618c0 0-.166.249-.227.296 0 0-.545.7-1.597.7M45.989 6.913L44.414 6.913 44.525 10.533 44.458 10.533 42.859 6.913 40.948 6.913 40.948 12.881 42.504 12.881 42.41 9.232 42.48 9.232 44.135 12.881 45.989 12.881zM36.232 6.888h-1.708v4.475s-.174 1.693 2.216 1.693c0 0 2.079.025 2.079-1.615V6.889H37.15v4.498s.022.491-.434.491c0 0-.481.026-.481-.48l-.004-4.51zM32.564 8.735l-.002-.748s.12-1.226-1.85-1.28c0 0-1.549-.101-1.994.732 0 0-.175.187-.175.836v.467s-.016.541.258.89c0 0 .157.227.541.48 0 0 .782.421 1.25.661 0 0 .474.272.41.701 0 0-.037.44-.494.424 0 0-.418-.02-.418-.452v-.51h-1.673v.74s-.047 1.41 2.103 1.41c0 0 2.054.042 2.15-1.447v-.6s.072-.914-.727-1.395c0 0-.427-.263-.692-.365 0 0-.816-.38-.977-.56 0 0-.32-.3-.132-.648 0 0 .078-.229.414-.229 0 0 .439.024.439.385v.508h1.57zM20.129 6.912L19.997 12.881 21.55 12.881 21.57 8.383 21.692 8.383 22.515 12.88 24.148 12.88 24.962 8.385 25.071 8.385 25.109 12.881 26.669 12.881 26.502 6.912 23.904 6.912 23.378 10.178 23.256 10.178 22.753 6.912zM18.33 12.873L17.297 6.907 14.657 6.907 13.625 12.873 15.296 12.873 15.91 8.247 16.045 8.247 16.659 12.873zM11.985 8.735l-.003-.748s.12-1.226-1.85-1.28c0 0-1.55-.101-1.995.732 0 0-.175.187-.175.836v.467s-.016.541.258.89c0 0 .157.227.543.48 0 0 .78.421 1.248.661 0 0 .474.272.41.701 0 0-.037.44-.493.424 0 0-.419-.02-.419-.452v-.51H7.836v.74s-.047 1.41 2.105 1.41c0 0 2.053.042 2.15-1.447v-.6s.07-.914-.729-1.395c0 0-.426-.263-.69-.365 0 0-.816-.38-.979-.56 0 0-.32-.3-.132-.648 0 0 .078-.229.414-.229 0 0 .439.024.439.385v.508h1.571z" mask="url(#daczxpezpb)"/>
                </g>
            </g>
        </g>
    </g>
</svg>
