<svg xmlns="http://www.w3.org/2000/svg" xmlns:xlink="http://www.w3.org/1999/xlink" width="58" height="58" viewBox="0 0 58 58">
    <defs>
        <path id="ka5whtwpha" d="M0.045 0.047L33.528 0.047 33.528 20.43 0.045 20.43z"/>
    </defs>
    <g fill="none" fill-rule="evenodd">
        <g>
            <g>
                <path d="M0 0H58V58H0z" transform="translate(-832 -1285) translate(832 1285)"/>
                <g>
                    <path fill="#8D8682" d="M8.197 8.103h3.595c1.894 0 3.79.004 5.684.003.962 0 1.46-.359 1.449-1.034-.011-.67-.497-1-1.481-1-3.06-.002-6.118 0-9.231 0V4.027h4.2c.39 0 .778.005 1.167-.002.784-.015 1.248-.39 1.259-1.009.01-.62-.455-1.018-1.235-1.022-1.555-.008-3.11-.003-4.665-.003h-.745V0h25.313v18.272H8.212v-6.087H21.38c.194 0 .39.01.583-.005.619-.044 1-.362 1.04-.996.034-.576-.42-.993-1.079-1.03-.17-.01-.34-.002-.51-.002l-12.536.001h-.68v-2.05z" transform="translate(-832 -1285) translate(832 1285) translate(4 15)"/>
                    <g transform="translate(-832 -1285) translate(832 1285) translate(4 15) translate(16.353 3.973)">
                        <mask id="p114y22eub" fill="#fff">
                            <use xlink:href="#ka5whtwpha"/>
                        </mask>
                        <path fill="#8D8682" d="M27.406 10.248c1.018 0 1.96-.003 2.901.001 1.895.008 3.208 1.308 3.216 3.201.01 2.303.002 4.605.002 6.957h-2.127c-.773-2.416-2.346-3.903-4.943-4.014-2.325-.1-3.97 1.258-5.11 4.037H3.962c-.588-2.038-1.882-3.39-3.918-4.064h4.568c5.443.001 7.701.003 13.143.003 1.152 0 1.478-.321 1.479-1.458V.085c1.893 0 3.738-.103 5.565.031 1.534.112 2.593 1.472 2.602 3.028.014 2.33.004 4.66.004 7.104" mask="url(#p114y22eub)"/>
                    </g>
                    <path fill="#8D8682" d="M42.715 22.384c1.658-.009 3.07 1.385 3.08 3.042.01 1.667-1.374 3.067-3.04 3.076-1.656.01-3.074-1.388-3.083-3.04-.01-1.657 1.387-3.07 3.043-3.078M18.364 25.466c-.012 1.655-1.428 3.048-3.086 3.036-1.657-.011-3.048-1.423-3.037-3.083.012-1.655 1.428-3.048 3.087-3.035 1.663.012 3.049 1.418 3.036 3.082M8.186 24.4v-4.016h6.262c-2.253.64-3.581 1.953-4.151 4.016H8.186zM6.107 1.989v2.043H4.821c-1.214 0-2.43.009-3.644-.004C.467 4.021.001 3.602 0 3.011 0 2.42.463 1.997 1.174 1.993c1.622-.012 3.244-.004 4.933-.004M6.092 6.072v2.03c-.717 0-1.416.046-2.106-.014-.575-.05-.935-.44-.913-1.032.021-.587.394-.942.978-.976.651-.038 1.306-.008 2.04-.008" transform="translate(-832 -1285) translate(832 1285) translate(4 15)"/>
                </g>
            </g>
        </g>
    </g>
</svg>
