<svg xmlns="http://www.w3.org/2000/svg" width="63" height="42" viewBox="0 0 63 42">
    <g fill="none" fill-rule="evenodd">
        <g fill="#A49992">
            <g>
                <g>
                    <path d="M109 3.116C109 1.396 110.41 0 112.15 0h37.753c1.74 0 3.15 1.395 3.15 3.116v3.687h10.271c.909 0 1.773.388 2.37 1.065l5.527 6.248c.502.568.779 1.297.779 2.052v14.859c0 1.72-1.41 3.116-3.15 3.116h-1.412c-.01 4.341-3.57 7.857-7.96 7.857-2.86 0-5.369-1.492-6.772-3.732H131.58C130.177 40.508 127.67 42 124.81 42c-4.397 0-7.961-3.526-7.961-7.876 0-.19.006-.38.02-.567h-4.719c-1.74 0-3.15-1.395-3.15-3.116V3.116zm60.3 28.16h-2.103c-1.247-2.855-4.14-4.856-7.509-4.856-2.705 0-5.102 1.29-6.588 3.276V9.83h10.533l5.667 6.348v15.099zm-18.105 1.788h.058c-.013.21-.02.421-.02.635 0 .39.023.775.067 1.152h-18.9c.044-.377.067-.762.067-1.152 0-.214-.007-.425-.02-.635h18.748zm-1.695-2.681h-18.077c-1.337-2.529-3.992-4.252-7.048-4.252-3.055 0-5.71 1.723-7.047 4.252H111.7V2.681h37.8v27.702zm5.4-17.265c0-.829.657-1.501 1.468-1.501h5.551c.431 0 .84.194 1.12.53l3.212 3.873c.226.271.349.616.349.971v2.06c0 .83-.657 1.502-1.468 1.502h-8.764c-.81 0-1.468-.672-1.468-1.501v-5.934zm2.7 1.18v3.574h6.3v-.247l-2.574-3.327H157.6zm-32.85 15.191c-2.734 0-4.95 2.2-4.95 4.915s2.216 4.915 4.95 4.915 4.95-2.2 4.95-4.915c0-2.714-2.216-4.915-4.95-4.915zm0 7.15c1.243 0 2.25-1 2.25-2.235 0-1.234-1.007-2.234-2.25-2.234s-2.25 1-2.25 2.234 1.007 2.234 2.25 2.234zm35.1-7.15c-2.734 0-4.95 2.2-4.95 4.915s2.216 4.915 4.95 4.915 4.95-2.2 4.95-4.915c0-2.714-2.216-4.915-4.95-4.915zm0 7.15c1.243 0 2.25-1 2.25-2.235 0-1.234-1.007-2.234-2.25-2.234s-2.25 1-2.25 2.234 1.007 2.234 2.25 2.234z" transform="translate(-1379 -12744) translate(0 12723) translate(1270 21)"/>
                </g>
            </g>
        </g>
    </g>
</svg>
