<svg xmlns="http://www.w3.org/2000/svg" xmlns:xlink="http://www.w3.org/1999/xlink" width="32" height="32" viewBox="0 0 32 32">
    <defs>
        <path id="g02fh8nw4a" d="M0 0L22.826 0 22.826 20.97 0 20.97z"/>
    </defs>
    <g fill="none" fill-rule="evenodd">
        <g>
            <g>
                <path d="M0 0H32V32H0z" transform="translate(-677 -542) translate(677 542)"/>
                <g transform="translate(-677 -542) translate(677 542) translate(5 6)">
                    <mask id="imc4qsp6gb" fill="#fff">
                        <use xlink:href="#g02fh8nw4a"/>
                    </mask>
                    <path fill="#381E1F" d="M11.413 0C5.11 0 0 4.04 0 9.022c0 3.244 2.165 6.087 5.415 7.677-.24.891-.865 3.229-.99 3.729-.155.62.227.612.478.445.196-.13 3.127-2.123 4.392-2.984.686.102 1.394.156 2.118.156 6.303 0 11.413-4.04 11.413-9.023C22.826 4.04 17.716 0 11.413 0" mask="url(#imc4qsp6gb)"/>
                </g>
            </g>
        </g>
    </g>
</svg>
