<svg xmlns="http://www.w3.org/2000/svg" width="42" height="42" viewBox="0 0 42 42">
    <g fill="none" fill-rule="evenodd">
        <g>
            <g>
                <g>
                    <path d="M0 0H42V42H0z" transform="translate(-1379 -748) translate(370 633) translate(1009 115)"/>
                    <g>
                        <g>
                            <path fill="#EFEEEA" d="M0.099 21.009L12.835 26.407 13.064 10.815 0.099 5.266z" transform="translate(-1379 -748) translate(370 633) translate(1009 115) translate(2 5) translate(9.934 1)"/>
                            <path fill="#8D8682" fill-rule="nonzero" d="M13.064.39L24.659 5.025 22.408 5.92 10.814 1.284zM17.959 7.889L6.145 3.157 9.03 2.004l12.73 5.091v4.192l-3.375 1.338V8.52c-.007-.276-.174-.522-.427-.63z" transform="translate(-1379 -748) translate(370 633) translate(1009 115) translate(2 5) translate(9.934 1)"/>
                            <path fill="#8D8682" fill-rule="nonzero" d="M4.339 3.883L15.928 8.519 13.064 9.689 1.475 5.025zM.339 6.015L12.395 10.814 12.395 25.441.339 20.648zM13.734 25.469V10.814l3.336-1.333v4.146c0 .221.111.428.295.552.183.123.416.148.622.067l4.692-1.874c.253-.103.418-.35.416-.624V7.095l2.695-1.08v14.627l-12.056 4.827z" transform="translate(-1379 -748) translate(370 633) translate(1009 115) translate(2 5) translate(9.934 1)"/>
                        </g>
                        <path fill="#8D8682" fill-rule="nonzero" stroke="#EFEEEA" d="M8.292 16.899c.174-.137.411-.163.61-.066.2.097.325.3.324.521h0v3.458h8.645c.319 0 .577.258.577.577h0v4.61c0 .154-.061.3-.17.408-.107.108-.254.17-.407.17h0-8.645v3.457c.001.222-.125.424-.324.521-.199.098-.436.072-.61-.065h0l-2.524-1.983-.001.004-1.303-1.01-4.241-3.34c-.113-.087-.188-.212-.213-.35L0 23.706c0-.178.082-.346.223-.456h0l4.392-3.458 1.153-.91z" transform="translate(-1379 -748) translate(370 633) translate(1009 115) translate(2 5)"/>
                    </g>
                </g>
            </g>
        </g>
    </g>
</svg>
