<svg xmlns="http://www.w3.org/2000/svg" width="34" height="34" viewBox="0 0 34 34">
    <g fill="none" fill-rule="evenodd">
        <g>
            <g>
                <path d="M0 0H34V34H0z" transform="translate(-1122 -661) translate(1122 661)"/>
                <g fill="#000" fill-rule="nonzero" stroke="#000" stroke-width=".2">
                    <path d="M.32 4.531c1.256.105 2.66.198 3.7.263v22.829c0 .11.05.212.137.278.088.067.2.089.305.059l9.525-2.636 9.524 2.636c.03.009.062.013.093.013.076 0 .15-.025.212-.072.087-.066.138-.169.138-.278V4.949c1.476-.075 2.69-.148 3.695-.223.192-.014.337-.182.323-.374-.015-.193-.184-.34-.375-.323-.992.073-2.189.145-3.643.22v-3.9c0-.192-.157-.349-.35-.349H4.369c-.193 0-.35.157-.35.35v3.744c-1.032-.066-2.41-.157-3.64-.26-.195-.015-.362.127-.378.32-.016.192.127.361.32.377zM4.72.7h18.535v26.464l-9.174-2.539c-.03-.008-.062-.013-.093-.013-.032 0-.063.005-.094.013l-9.174 2.54V.698z" transform="translate(-1122 -661) translate(1122 661) translate(3 3)"/>
                    <path d="M18.26 19.693c.044.019.091.028.138.028.073 0 .145-.022.206-.066.1-.073.154-.193.143-.316l-.433-4.628 3.074-3.491c.081-.093.108-.222.07-.34-.039-.117-.136-.205-.256-.232l-4.541-1.02-2.374-3.999c-.126-.212-.475-.212-.601 0l-2.374 3.999-4.541 1.02c-.12.027-.218.115-.256.233-.038.117-.011.246.07.339l3.073 3.49-.432 4.63c-.011.122.043.242.143.315.1.072.23.087.344.038l4.273-1.841 4.274 1.84zm-8.283-.876l.392-4.192c.009-.095-.022-.19-.086-.263L7.5 11.201l4.112-.924c.094-.021.175-.08.224-.163l2.15-3.621 2.15 3.621c.05.083.13.142.225.163l4.112.924-2.783 3.161c-.064.072-.095.168-.086.263l.391 4.192-3.87-1.667c-.044-.019-.092-.029-.139-.029-.047 0-.094.01-.138.029l-3.87 1.667z" transform="translate(-1122 -661) translate(1122 661) translate(3 3)"/>
                </g>
            </g>
        </g>
    </g>
</svg>
