<svg xmlns="http://www.w3.org/2000/svg" width="45" height="45" viewBox="0 0 45 45">
    <g fill="none" fill-rule="evenodd">
        <g>
            <g>
                <path d="M0 0H45V45H0z" transform="translate(-216 -413) translate(216 413)"/>
                <g transform="translate(-216 -413) translate(216 413) translate(12 12)">
                    <rect width="16.762" height="20.114" fill="#000" rx="1"/>
                    <path fill="#FFF" d="M10.029 9.429h6.733v1.257h-6.733c-.332 0-.6-.269-.6-.6v-.057c0-.332.268-.6.6-.6z"/>
                    <path fill="#000" d="M17.362 9.429H22v1.257h-4.638c-.331 0-.6-.269-.6-.6v-.057c0-.332.269-.6.6-.6z" transform="matrix(-1 0 0 1 38.762 0)"/>
                </g>
            </g>
        </g>
    </g>
</svg>
