<svg xmlns="http://www.w3.org/2000/svg" width="25" height="25" viewBox="0 0 25 25">
    <g fill="none" fill-rule="evenodd">
        <g>
            <g>
                <g transform="translate(-1387 -380) translate(855 352) translate(532 28)">
                    <path fill="#6BAE7E" fill-rule="nonzero" d="M11.235 19.014v-4.229h1.678c.781 0 1.463-.097 2.044-.29.582-.195 1.066-.466 1.454-.815.388-.349.679-.766.873-1.25.193-.485.29-1.018.29-1.6 0-.56-.091-1.074-.274-1.545-.183-.471-.465-.875-.847-1.213-.383-.338-.867-.601-1.454-.79C14.412 7.094 13.716 7 12.913 7H9v12.014h2.235zm1.678-5.974h-1.678V8.728h1.678c.41 0 .767.049 1.072.146.305.096.557.236.756.42.2.182.35.403.449.664.1.26.15.55.15.872 0 .338-.05.644-.15.918-.1.274-.25.507-.449.698-.2.191-.451.338-.756.44-.305.103-.662.154-1.072.154z"/>
                    <circle cx="12.5" cy="12.5" r="12" stroke="#6BAE7E"/>
                </g>
            </g>
        </g>
    </g>
</svg>
