<svg xmlns="http://www.w3.org/2000/svg" width="68" height="68" viewBox="0 0 68 68">
    <g fill="none" fill-rule="evenodd">
        <g fill-rule="nonzero">
            <g>
                <g>
                    <g transform="translate(-847 -833) translate(370 815) translate(477 18) translate(7 10)">
                        <path fill="#000" d="M40.104.106H1.146C.513.106 0 .62 0 1.252v34.375c0 .184.053.35.128.504.007.014.003.03.012.046.016.028.048.041.064.067.08.119.176.22.293.302.042.03.076.057.12.08.16.088.334.147.529.147h38.958c.186 0 .355-.055.509-.133.043-.023.078-.053.12-.08.11-.073.2-.16.279-.268.018-.025.05-.037.066-.064.012-.02.01-.044.02-.064.067-.122.106-.255.125-.4.004-.038.02-.07.022-.11 0-.008.005-.018.005-.027V1.252c0-.632-.513-1.146-1.146-1.146z"/>
                        <path fill="#FFF" stroke="#000" d="M28.524 14.491c-.19-.378-.57-.62-.994-.632-.433-.02-.816.21-1.027.577L18.081 28.26l-5.814-4.902c-.243-.243-.591-.365-.93-.328-.344.037-.656.23-.841.52l-8.204 8.177V2.398h36.666v28.375L28.524 14.491z"/>
                        <circle cx="11.917" cy="11.106" r="5.042" fill="#000"/>
                        <path fill="#8D8682" d="M42.941 38.957c-.346-.369-.889-.472-1.343-.252-.49.238-.992.36-1.494.36H25.438c-.523 0-.979.353-1.11.86-.13.506.097 1.035.553 1.29l12.375 6.874c.176.099.366.145.554.145.394 0 .777-.204.992-.569l4.288-7.351c.255-.436.193-.988-.149-1.357zM54.489 18.632l-9.167-6.112c-.353-.233-.806-.254-1.175-.057-.372.2-.605.59-.605 1.01v21.824c0 .518.346.972.848 1.107.098.028.199.04.297.04.402 0 .782-.212.99-.57l9.167-15.713c.305-.523.151-1.194-.355-1.529z"/>
                    </g>
                </g>
            </g>
        </g>
    </g>
</svg>
