<svg xmlns="http://www.w3.org/2000/svg" width="130" height="35" viewBox="0 0 130 35">
    <g fill="none" fill-rule="evenodd">
        <g>
            <g>
                <path d="M0 0H130V35H0z" transform="translate(-574 -353) translate(574 353)"/>
                <g fill="#C74C4C">
                    <path d="M6.17 8.025c1.721 0 2.727-1.027 2.727-2.368V5.61c0-1.542-1.072-2.369-2.794-2.369h-2.66v4.784H6.17zM0 1.855C0 .893.76.134 1.72.134h4.674c3.734 0 5.99 2.213 5.99 5.41v.045c0 3.621-2.815 5.5-6.326 5.5H3.443v3.24c0 .962-.76 1.723-1.722 1.723-.961 0-1.72-.76-1.72-1.723V1.855zM21.516 9.367l-2.168-5.165-2.169 5.165h4.337zm-9.68 4.336l5.455-12.316c.38-.85 1.073-1.365 2.012-1.365h.201c.94 0 1.61.514 1.99 1.365l5.454 12.316c.113.246.18.47.18.694 0 .916-.716 1.654-1.632 1.654-.805 0-1.342-.47-1.656-1.185l-1.05-2.459h-6.886l-1.094 2.57c-.292.672-.872 1.074-1.589 1.074-.893 0-1.586-.714-1.586-1.61 0-.245.089-.492.201-.738zM30.769 9.881l-5.053-6.863c-.245-.334-.425-.738-.425-1.23 0-.916.76-1.654 1.721-1.654.783 0 1.275.426 1.699 1.051l3.801 5.477 3.867-5.523c.425-.624.94-1.027 1.655-1.027 1.05 0 1.676.738 1.676 1.676 0 .47-.223.896-.447 1.208l-5.052 6.818v4.516c0 .962-.76 1.72-1.721 1.72-.962 0-1.721-.758-1.721-1.72V9.88zM39.815 8.138v-.045c0-4.45 3.353-8.092 8.16-8.092 2.347 0 3.934.624 5.231 1.586.358.268.67.76.67 1.365 0 .938-.76 1.676-1.698 1.676-.47 0-.783-.179-1.028-.335-.962-.717-1.968-1.119-3.198-1.119-2.638 0-4.538 2.19-4.538 4.874v.045c0 2.683 1.856 4.918 4.538 4.918 1.454 0 2.415-.447 3.398-1.23.269-.223.626-.38 1.028-.38.873 0 1.611.716 1.611 1.588 0 .537-.269.96-.582 1.228-1.408 1.23-3.063 1.968-5.566 1.968-4.605 0-8.026-3.554-8.026-8.047M67.92 8.138v-.045c0-2.683-1.968-4.919-4.74-4.919-2.772 0-4.695 2.19-4.695 4.874v.045c0 2.683 1.968 4.918 4.74 4.918 2.772 0 4.694-2.191 4.694-4.873m-13.033 0v-.045c0-4.45 3.51-8.092 8.339-8.092 4.828 0 8.293 3.599 8.293 8.047v.045c0 4.448-3.509 8.092-8.338 8.092-4.829 0-8.294-3.599-8.294-8.047" transform="translate(-574 -353) translate(574 353) translate(29 9)"/>
                </g>
            </g>
        </g>
    </g>
</svg>
