<svg xmlns="http://www.w3.org/2000/svg" width="42" height="42" viewBox="0 0 42 42">
    <g fill="none" fill-rule="evenodd">
        <g>
            <g>
                <g>
                    <path d="M0 0H42V42H0z" transform="translate(-408 -748) translate(370 633) translate(38 115)"/>
                    <g>
                        <path fill="#8D8682" d="M0 31.296V1.308C0 .65.672.208 1.276.466l4.771 2.045c.23.099.491.099.721 0L12.455.074c.23-.099.49-.099.721 0l5.687 2.437c.23.099.49.099.721 0L24.355.466c.604-.259 1.276.185 1.276.842v29.988c0 .703-.76 1.144-1.37.795l-4.583-2.62c-.282-.16-.628-.16-.909 0l-5.5 3.143c-.28.161-.626.161-.908 0l-5.5-3.142c-.28-.161-.626-.161-.907 0L1.37 32.09C.76 32.44 0 31.999 0 31.296z" transform="translate(-408 -748) translate(370 633) translate(38 115) translate(8 5)"/>
                        <path fill="#FFF" d="M14.646 7.232c0 .5-.41.904-.915.904H5.492c-.505 0-.915-.405-.915-.904 0-.5.41-.905.915-.905h8.239c.505 0 .915.405.915.905zM14.646 18.536c0 .5-.41.904-.915.904H5.492c-.505 0-.915-.405-.915-.904 0-.5.41-.904.915-.904h8.239c.505 0 .915.404.915.904zM19.223 13.628c.506 0 .916-.405.916-.904 0-.5-.41-.904-.916-.904H5.493c-.506 0-.916.405-.916.904 0 .5.41.904.915.904h13.731zM19.223 24.933c.506 0 .916-.405.916-.905s-.41-.904-.916-.904H5.493c-.506 0-.916.405-.916.904 0 .5.41.905.915.905h13.731z" transform="translate(-408 -748) translate(370 633) translate(38 115) translate(8 5)"/>
                    </g>
                </g>
            </g>
        </g>
    </g>
</svg>
