<svg xmlns="http://www.w3.org/2000/svg" width="92" height="92" viewBox="0 0 92 92">
    <g fill="none" fill-rule="evenodd">
        <g>
            <g transform="translate(-686 -672) translate(686 672)">
                <circle cx="46" cy="46" r="46"/>
                <g fill-rule="nonzero">
                    <path fill="#CFCFCF" d="M55.233 3.83L10.145 3.83 8.213 12.848 0 51.172 45.088 51.172 65.378 51.172z" transform="translate(13 20)"/>
                    <path fill="#FEF" d="M55.233 3.83L53.301 12.848 45.088 51.172 0 51.172 8.213 12.848 10.145 3.83z" transform="translate(13 20)"/>
                    <path fill="#DF9CDF" d="M55.233 3.83L53.301 12.848 8.213 12.848 10.145 3.83z" transform="translate(13 20)"/>
                    <path fill="#CFCFCF" d="M2.254 41.028L12.399 41.028 12.399 51.172z" transform="translate(13 20)"/>
                    <path fill="#282828" d="M32.331 27.92c-.932-.987-2.23-1.546-3.587-1.546-1.358 0-2.655.56-3.587 1.547l-1.486 1.546-1.485-1.546c-.932-.988-2.23-1.547-3.587-1.547-1.358 0-2.656.56-3.588 1.547-1.98 2.096-1.98 5.374 0 7.47l8.66 9.018 8.66-9.017c1.98-2.097 1.98-5.375 0-7.471z" transform="translate(13 20)"/>
                    <path fill="#6BAE7E" d="M37.335 35.231c-1.334-1.289-3.45-1.289-4.783 0l-.99.967-.99-.967c-1.334-1.289-3.45-1.289-4.784 0-.632.612-.99 1.455-.99 2.335 0 .88.358 1.723.99 2.334l5.774 5.636 5.773-5.636c.633-.611.99-1.454.99-2.334 0-.88-.357-1.723-.99-2.335z" transform="translate(13 20)"/>
                    <path fill="#282828" d="M45.214 3.87c-.411-1.158-1.506-1.932-2.735-1.934-1.23.002-2.325.776-2.736 1.935-.24.557-.265 1.135-.072 1.734l.072.2c.411 1.158 1.507 1.933 2.736 1.934.534 0 .967.434.967.968s-.433.967-.967.967c-2.297-.003-4.276-1.619-4.739-3.869-.152-.716-.152-1.36 0-1.934l.05-.216C38.328 1.515 40.255 0 42.48 0c2.298 0 4.28 1.618 4.738 3.87zm-11.606 0c-.411-1.158-1.507-1.932-2.736-1.934-1.229.002-2.324.776-2.735 1.935-.255.538-.28 1.114-.077 1.728l.077.206c.411 1.158 1.506 1.933 2.735 1.934.534 0 .967.434.967.968s-.433.967-.967.967c-2.297-.003-4.276-1.619-4.738-3.869-.131-.817-.131-1.462 0-1.934C26.594 1.618 28.574 0 30.873 0s4.28 1.618 4.739 3.87zM22 3.87c-.41-1.158-1.506-1.932-2.735-1.934-1.23.002-2.324.776-2.735 1.935-.189.666-.189 1.311 0 1.934.006.022.015.044.026.066.427 1.122 1.504 1.867 2.709 1.868.534 0 .967.434.967.968s-.433.967-.967.967c-2.297-.003-4.276-1.619-4.739-3.869-.116-.553-.132-1.105-.05-1.658l.05-.276C14.988 1.618 16.968 0 19.268 0c2.298 0 4.28 1.618 4.738 3.87zM11.272 20.738h9.018c.622 0 1.127-.505 1.127-1.127 0-.623-.505-1.127-1.127-1.127h-9.018c-.623 0-1.127.504-1.127 1.127 0 .622.504 1.127 1.127 1.127zM41.706 18.484h5.636c.623 0 1.128-.505 1.128-1.128 0-.622-.505-1.127-1.128-1.127h-5.636c-.622 0-1.127.505-1.127 1.127 0 .623.505 1.128 1.127 1.128zM39.452 22.992h7.89c.623 0 1.128-.504 1.128-1.127 0-.622-.505-1.127-1.128-1.127h-7.89c-.622 0-1.127.505-1.127 1.127 0 .623.505 1.127 1.127 1.127z" transform="translate(13 20)"/>
                </g>
            </g>
        </g>
    </g>
</svg>
