<svg xmlns="http://www.w3.org/2000/svg" width="54" height="54" viewBox="0 0 54 54">
    <g fill="none" fill-rule="evenodd">
        <g>
            <g>
                <path d="M0 0H54V54H0z" transform="translate(-846 -918) translate(846 918)"/>
                <g transform="translate(-846 -918) translate(846 918) translate(2 2)">
                    <circle cx="25" cy="25" r="24" stroke="#000" stroke-width="2"/>
                    <circle cx="25" cy="25" r="20.596" fill="#8D8682" stroke="#000" stroke-width="1.4"/>
                    <path fill="#FFF" fill-rule="nonzero" d="M14.084 28.314v-2.12h.841c.392 0 .734-.05 1.025-.147.292-.097.535-.233.73-.408.194-.175.34-.384.437-.627.097-.243.146-.51.146-.802 0-.28-.046-.54-.138-.775-.091-.236-.233-.44-.425-.609-.191-.17-.434-.301-.729-.395-.294-.095-.643-.142-1.046-.142h-1.962v6.025h1.12zm.841-2.996h-.841v-2.162h.841c.206 0 .385.024.538.072.153.05.28.12.38.21.1.093.174.204.224.334.05.13.075.277.075.438 0 .17-.025.323-.075.46-.05.138-.125.254-.225.35-.1.096-.226.17-.379.221-.153.051-.332.077-.538.077zm5.938 3.063c.456 0 .87-.078 1.246-.232.375-.154.696-.368.962-.643.267-.275.474-.601.621-.978.147-.376.221-.785.221-1.227 0-.441-.074-.85-.22-1.227-.148-.376-.355-.701-.622-.975-.266-.273-.587-.488-.962-.643-.375-.156-.79-.234-1.246-.234-.456 0-.872.077-1.248.231-.376.155-.699.37-.967.644-.268.275-.475.6-.623.977-.147.377-.22.786-.22 1.227 0 .442.073.851.22 1.227.148.377.355.703.623.978s.59.49.967.643c.376.154.792.232 1.248.232zm0-.959c-.294 0-.56-.048-.796-.146-.236-.097-.437-.236-.602-.418-.165-.182-.292-.405-.381-.667-.09-.263-.134-.56-.134-.89 0-.33.045-.627.134-.89.089-.262.216-.485.381-.668.165-.183.366-.324.602-.42.236-.098.502-.147.796-.147.294 0 .559.049.794.146.234.097.434.238.598.421.164.183.29.406.377.669.087.262.131.559.131.89 0 .33-.044.626-.131.889-.088.262-.213.485-.377.667-.164.182-.364.321-.598.418-.235.098-.5.146-.794.146zm5.196.892v-6.025h-1.125v6.025h1.125zm2.341 0v-3.7c0-.072-.002-.152-.006-.24-.004-.087-.01-.175-.019-.264l3.15 4.012c.056.072.113.122.171.15.059.028.132.042.221.042h.58v-6.025h-.988v3.662c0 .08.002.168.006.26.004.094.012.189.023.286l-3.163-4.029c-.03-.039-.058-.07-.083-.094-.025-.023-.05-.041-.077-.054-.026-.012-.056-.02-.09-.025-.033-.004-.075-.006-.125-.006h-.587v6.025h.987zm7.746 0V23.21h1.813v-.921h-4.754v.92h1.82v5.105h1.121z"/>
                </g>
            </g>
        </g>
    </g>
</svg>
