<svg xmlns="http://www.w3.org/2000/svg" width="23" height="23" viewBox="0 0 23 23">
    <g fill="none" fill-rule="evenodd">
        <g>
            <g>
                <g>
                    <path d="M0 0H23V23H0z" transform="translate(-88 -664) translate(88 664)"/>
                </g>
                <g fill="#858585" fill-rule="nonzero">
                    <path d="M10.484.4c4.37 0 7.74 2.125 10.042 6.31.16.291.053.656-.237.816-.29.16-.655.053-.815-.237-2.096-3.814-5.07-5.689-8.99-5.689-3.918 0-6.88 1.875-8.957 5.687-.159.291-.523.398-.814.24-.291-.159-.398-.523-.24-.814C2.753 2.525 6.113.4 10.484.4z" transform="translate(-88 -664) translate(88 664) translate(1 6)"/>
                    <g>
                        <path d="M4.51.025C2.034.025.024 2.035.024 4.51c0 2.475 2.01 4.485 4.484 4.485 2.475 0 4.485-2.01 4.485-4.485 0-2.474-2.01-4.484-4.485-4.484zM4.17 3.18c-.557 0-1.021.463-1.021 1.02H1.664c.031-1.392 1.144-2.505 2.505-2.505V3.18z" transform="translate(-88 -664) translate(88 664) translate(1 6) translate(6 1)"/>
                    </g>
                </g>
            </g>
        </g>
    </g>
</svg>
