<svg xmlns="http://www.w3.org/2000/svg" xmlns:xlink="http://www.w3.org/1999/xlink" width="48" height="48" viewBox="0 0 48 48">
    <defs>
        <path id="qz406jxisa" d="M0 0L41.708 0 41.708 39.74 0 39.74z"/>
    </defs>
    <g fill="none" fill-rule="evenodd">
        <g>
            <g>
                <g>
                    <g>
                        <path d="M0 0H48V48H0z" transform="translate(-880 -534) translate(660 398) translate(204 120) translate(16 16)"/>
                        <g transform="translate(-880 -534) translate(660 398) translate(204 120) translate(16 16) translate(3 4)">
                            <mask id="7z6hxvkubb" fill="#fff">
                                <use xlink:href="#qz406jxisa"/>
                            </mask>
                            <path fill="#FFF" d="M33.655 16.144c.604 0 1.094.49 1.094 1.094 0 .602-.49 1.093-1.094 1.093h-3.049v1.956h3.05c.602 0 1.093.49 1.093 1.094 0 .603-.491 1.094-1.094 1.094h-4.143c-.602 0-1.094-.49-1.094-1.094V13.094c0-.603.49-1.094 1.094-1.094h4.143c.604 0 1.094.491 1.094 1.094 0 .603-.49 1.094-1.094 1.094h-3.049v1.956h3.05zm-6.704 5.237c0 .472-.3.889-.748 1.037-.113.038-.23.057-.347.057-.341 0-.668-.164-.874-.438l-4.247-5.783v5.127c0 .603-.49 1.094-1.093 1.094s-1.093-.49-1.093-1.094v-8.287c0-.471.3-.888.747-1.037.112-.038.23-.057.347-.057.341 0 .669.163.873.438l4.248 5.783v-5.127c0-.603.491-1.094 1.093-1.094.604 0 1.094.491 1.094 1.094v8.287zm-9.975 0c0 .603-.49 1.094-1.093 1.094-.602 0-1.093-.49-1.093-1.094v-8.287c0-.603.49-1.094 1.093-1.094s1.093.491 1.093 1.094v8.287zm-4.286 1.094H8.547c-.602 0-1.093-.49-1.093-1.094v-8.287c0-.603.49-1.094 1.093-1.094s1.093.491 1.093 1.094v7.193h3.05c.604 0 1.094.49 1.094 1.094 0 .603-.49 1.094-1.094 1.094zm29.018-5.552C41.708 7.592 32.352 0 20.854 0S0 7.592 0 16.923c0 8.365 7.419 15.371 17.44 16.697.679.146 1.603.448 1.838 1.028.21.527.137 1.353.067 1.885 0 0-.244 1.472-.298 1.786-.09.527-.419 2.061 1.807 1.124 2.226-.937 12.009-7.072 16.384-12.108h-.001c3.022-3.314 4.47-6.678 4.47-10.412z" mask="url(#7z6hxvkubb)"/>
                        </g>
                    </g>
                </g>
            </g>
        </g>
    </g>
</svg>
