<?xml version="1.0" encoding="utf-8"?>
<!-- Generator: Adobe Illustrator 25.0.0, SVG Export Plug-In . SVG Version: 6.00 Build 0)  -->
<svg version="1.1" id="Layer_1" xmlns="http://www.w3.org/2000/svg" xmlns:xlink="http://www.w3.org/1999/xlink" x="0px" y="0px"
	 viewBox="0 0 300 170" style="enable-background:new 0 0 300 170;" xml:space="preserve">
<style type="text/css">
	.st0{fill-rule:evenodd;clip-rule:evenodd;fill:#010202;}
	.st1{fill:#010202;}
</style>
<path class="st0" d="M291.4,0h-2.1H10.7H8.6H0v10.6V12v51.8c9.4,0,17.1,9.6,17.1,21.2S9.4,106.2,0,106.2V158v1.3V170h8.6h2.1h278.6
	h2.1h8.6v-10.6V158v-51.8c-9.4,0-17.1-9.6-17.1-21.2s7.7-21.2,17.1-21.2V12v-1.3V0H291.4z"/>
<g>
	<g>
		<path class="st1" d="M166.1,29.4c3.2,0,3.2-5,0-5C162.9,24.4,162.9,29.4,166.1,29.4L166.1,29.4z"/>
	</g>
</g>
</svg>
