<svg xmlns="http://www.w3.org/2000/svg" width="104" height="13" viewBox="0 0 104 13">
    <g fill="none" fill-rule="evenodd">
        <g fill="#231F20">
            <g>
                <g>
                    <g>
                        <path d="M76.127 0L76.127 12.818 86.463 12.818 86.463 9.488 79.903 9.488 79.903 0zM57.12 0L57.12 12.818 67.456 12.818 67.456 9.613 60.776 9.613 60.776 7.831 66.211 7.831 66.211 4.987 60.776 4.987 60.776 3.205 67.456 3.205 67.456 0zM0 12.818L4.106 12.818 4.106 0 0 0zM99.413 0L96.604 4.779 93.795 0 89.784 0 94.715 8.264 94.715 12.818 98.454 12.818 98.454 8.263 103.384 0zM45.901 0L42.854 7.232 39.806 0 35.537 0 41.119 12.818 44.588 12.818 50.17 0zM23.989 0L21.219 6.22 18.449 0 15.13 0 13.195 12.818 16.859 12.818 17.809 6.383 20.557 12.818 21.881 12.818 24.645 6.383 25.579 12.818 29.243 12.818 27.307 0z" transform="translate(-20 -62) translate(0 44) translate(20 18)"/>
                    </g>
                </g>
            </g>
        </g>
    </g>
</svg>
