<?xml version="1.0" encoding="utf-8"?>
<!-- Generator: Adobe Illustrator 21.0.0, SVG Export Plug-In . SVG Version: 6.00 Build 0)  -->
<svg version="1.1" id="Layer_1" xmlns="http://www.w3.org/2000/svg" xmlns:xlink="http://www.w3.org/1999/xlink" x="0px" y="0px"
	 viewBox="0 0 70 14" style="enable-background:new 0 0 70 14;" xml:space="preserve">
<style type="text/css">
	.st0{filter:url(#hryo6gmwab);}
	.st1{fill:#E7E0DA;}
</style>
<filter  id="hryo6gmwab">
	<feColorMatrix  in="SourceGraphic" values="0 0 0 0 0.905882 0 0 0 0 0.878431 0 0 0 0 0.854902 0 0 0 1.000000 0">
		</feColorMatrix>
</filter>
<g>
	<g>
		<g>
			<g transform="translate(-72 -619) translate(16 476) translate(56 143)" class="st0">
			</g>
			<path class="st1" d="M7,10.5l-3.2,1.7c-0.2,0.1-0.5,0-0.7-0.2c-0.1-0.1-0.1-0.2,0-0.3l0.6-3.6L1.1,5.5C0.9,5.4,0.9,5,1.1,4.8
				c0.1-0.1,0.2-0.1,0.3-0.1l3.6-0.5l1.6-3.3C6.7,0.7,7,0.6,7.2,0.7c0.1,0.1,0.2,0.1,0.2,0.2l1.6,3.3l3.6,0.5c0.3,0,0.5,0.3,0.4,0.6
				c0,0.1-0.1,0.2-0.1,0.3l-2.6,2.5l0.6,3.6c0,0.3-0.1,0.5-0.4,0.6c-0.1,0-0.2,0-0.3-0.1L7,10.5z"/>
		</g>
	</g>
</g>
<g>
	<g>
		<g>
			<g transform="translate(-72 -619) translate(16 476) translate(56 143)" class="st0">
			</g>
			<path class="st1" d="M21,10.5l-3.2,1.7c-0.2,0.1-0.5,0-0.7-0.2c-0.1-0.1-0.1-0.2-0.1-0.3l0.6-3.6l-2.6-2.5
				c-0.2-0.2-0.2-0.5,0-0.7c0.1-0.1,0.2-0.1,0.3-0.1l3.6-0.5l1.6-3.3c0.1-0.2,0.4-0.3,0.7-0.2c0.1,0.1,0.2,0.1,0.2,0.2l1.6,3.3
				l3.6,0.5c0.3,0,0.5,0.3,0.4,0.6c0,0.1-0.1,0.2-0.1,0.3l-2.6,2.5l0.6,3.6c0,0.3-0.1,0.5-0.4,0.6c-0.1,0-0.2,0-0.3-0.1L21,10.5z"/>
		</g>
	</g>
</g>
<g>
	<g>
		<g>
			<g transform="translate(-72 -619) translate(16 476) translate(56 143)" class="st0">
			</g>
			<path class="st1" d="M35,10.5l-3.2,1.7c-0.2,0.1-0.5,0-0.7-0.2c-0.1-0.1-0.1-0.2-0.1-0.3l0.6-3.6l-2.6-2.5
				c-0.2-0.2-0.2-0.5,0-0.7c0.1-0.1,0.2-0.1,0.3-0.1l3.6-0.5l1.6-3.3c0.1-0.2,0.4-0.3,0.7-0.2c0.1,0.1,0.2,0.1,0.2,0.2l1.6,3.3
				l3.6,0.5c0.3,0,0.5,0.3,0.4,0.6c0,0.1-0.1,0.2-0.1,0.3l-2.6,2.5l0.6,3.6c0,0.3-0.1,0.5-0.4,0.6c-0.1,0-0.2,0-0.3-0.1L35,10.5z"/>
		</g>
	</g>
</g>
<g>
	<g>
		<g>
			<g transform="translate(-72 -619) translate(16 476) translate(56 143)" class="st0">
			</g>
			<path class="st1" d="M49,10.5l-3.2,1.7c-0.2,0.1-0.5,0-0.7-0.2c-0.1-0.1-0.1-0.2,0-0.3l0.6-3.6l-2.6-2.5c-0.2-0.2-0.2-0.5,0-0.7
				c0.1-0.1,0.2-0.1,0.3-0.1l3.6-0.5l1.6-3.3c0.1-0.2,0.4-0.3,0.7-0.2c0.1,0.1,0.2,0.1,0.2,0.2l1.6,3.3l3.6,0.5
				c0.3,0,0.5,0.3,0.4,0.6c0,0.1-0.1,0.2-0.1,0.3l-2.6,2.5l0.6,3.6c0,0.3-0.1,0.5-0.4,0.6c-0.1,0-0.2,0-0.3-0.1L49,10.5z"/>
		</g>
	</g>
</g>
<g>
	<g>
		<g>
			<g transform="translate(-72 -619) translate(16 476) translate(56 143)" class="st0">
			</g>
			<path class="st1" d="M63,10.5l-3.2,1.7c-0.2,0.1-0.5,0-0.7-0.2c-0.1-0.1-0.1-0.2,0-0.3l0.6-3.6l-2.6-2.5c-0.2-0.2-0.2-0.5,0-0.7
				c0.1-0.1,0.2-0.1,0.3-0.1l3.6-0.5l1.6-3.3c0.1-0.2,0.4-0.3,0.7-0.2c0.1,0.1,0.2,0.1,0.2,0.2l1.6,3.3l3.6,0.5
				c0.3,0,0.5,0.3,0.4,0.6c0,0.1-0.1,0.2-0.1,0.3l-2.6,2.5l0.6,3.6c0,0.3-0.1,0.5-0.4,0.6c-0.1,0-0.2,0-0.3-0.1L63,10.5z"/>
		</g>
	</g>
</g>
</svg>
